ply
format ascii 1.0
element vertex 661
property float x
property float y
property float z
property uchar diffuse_red
property uchar diffuse_green
property uchar diffuse_blue
end_header
6.981474e-01 2.121122e+00 3.865434e+00 62 32 36
4.736868e-01 2.391997e+00 5.923287e+00 65 85 84
8.253556e-01 2.160080e+00 3.792398e+00 49 40 45
1.372779e+00 2.022129e+00 3.457804e+00 204 195 182
1.178279e+00 1.978052e+00 3.835395e+00 159 144 138
3.689042e-01 2.248070e+00 3.172064e+00 214 208 207
8.476871e-01 2.565417e+00 3.310791e+00 72 87 83
1.254245e+00 1.843581e+00 3.618292e+00 36 33 41
1.253095e+00 1.844808e+00 3.619820e+00 36 33 41
1.136948e+00 1.812388e+00 3.640685e+00 49 53 59
1.033909e+00 2.218922e+00 3.543497e+00 62 86 138
1.134428e+00 2.251659e+00 3.460845e+00 213 215 227
3.778887e-01 2.332233e+00 3.317722e+00 177 120 38
1.028842e+00 2.360622e+00 3.590989e+00 175 123 29
2.306908e-01 2.728360e+00 2.901838e+00 70 28 17
1.109006e+00 1.861430e+00 3.691346e+00 151 119 88
1.292837e+00 1.943717e+00 3.743873e+00 13 29 82
1.279967e+00 1.980976e+00 3.748363e+00 2 31 102
1.402861e+00 2.028267e+00 3.390628e+00 209 198 196
9.673550e-01 2.126469e+00 3.442743e+00 88 23 19
8.834100e-01 2.136421e+00 3.522440e+00 20 13 31
8.834100e-01 2.136421e+00 3.522440e+00 20 13 31
5.914727e-01 2.182088e+00 3.461198e+00 233 231 216
6.012298e-01 2.202806e+00 3.193012e+00 233 231 216
1.035760e+00 1.926620e+00 3.655836e+00 138 110 95
1.069447e+00 1.986666e+00 3.807231e+00 6 27 89
1.031912e+00 1.991539e+00 3.731545e+00 130 111 95
9.971551e-01 2.024199e+00 3.512377e+00 59 27 11
6.446122e-01 2.135297e+00 3.135949e+00 155 117 77
1.475595e+00 2.181091e+00 3.236276e+00 23 19 18
1.276359e+00 2.133523e+00 3.754017e+00 185 162 121
1.149022e+00 2.157101e+00 3.804513e+00 18 71 167
2.036393e-01 2.194196e+00 3.209425e+00 238 234 226
2.001422e-01 2.195629e+00 3.212712e+00 238 234 226
8.698309e-01 2.199009e+00 3.722396e+00 30 18 24
8.705988e-01 2.198150e+00 3.724078e+00 30 18 24
2.317063e-01 2.235342e+00 3.153041e+00 97 102 132
1.277662e+00 1.872359e+00 3.644244e+00 23 20 58
1.258076e+00 1.906899e+00 3.685580e+00 185 144 116
1.009035e+00 1.926016e+00 3.480022e+00 80 47 19
6.910119e-01 1.911444e+00 3.556703e+00 150 135 129
7.836967e-01 1.929246e+00 3.533009e+00 167 134 21
6.637054e-01 1.943748e+00 3.482134e+00 94 69 45
8.869912e-01 1.967385e+00 3.521226e+00 35 20 22
6.943742e-01 1.955905e+00 3.588798e+00 146 129 109
8.509537e-01 1.996499e+00 3.575088e+00 157 136 115
1.288683e+00 2.046025e+00 3.721979e+00 5 24 81
1.196376e+00 2.084552e+00 3.836584e+00 52 58 23
1.100430e+00 2.136914e+00 3.832756e+00 228 214 203
1.410002e+00 2.207821e+00 3.201820e+00 12 8 13
9.058644e-01 2.157740e+00 3.719874e+00 237 215 112
7.964457e-01 2.203659e+00 3.459686e+00 24 27 29
1.020286e+00 2.215920e+00 3.781008e+00 29 63 141
1.136715e+00 2.255223e+00 3.418544e+00 214 217 228
2.147038e-01 2.271392e+00 3.137693e+00 238 233 221
2.149724e-01 2.274508e+00 3.106320e+00 238 233 221
4.012468e-01 2.284234e+00 3.272872e+00 249 236 227
1.076765e+00 2.332499e+00 3.131777e+00 244 232 98
1.076765e+00 2.332499e+00 3.131777e+00 244 232 98
1.016254e+00 2.410177e+00 3.170780e+00 165 116 42
9.534532e-01 2.262277e+00 5.316068e+00 218 218 193
2.765354e-01 2.531266e+00 2.790092e+00 43 6 0
1.046012e+00 1.793699e+00 3.641313e+00 54 35 38
1.364494e+00 1.968066e+00 3.460856e+00 240 232 224
1.096510e+00 1.927911e+00 3.754285e+00 25 26 16
7.290060e-01 1.960211e+00 3.593678e+00 23 12 28
1.403976e+00 2.006947e+00 3.420670e+00 228 215 203
1.329951e+00 2.002454e+00 3.443692e+00 218 212 196
1.431706e+00 2.034692e+00 3.423771e+00 224 207 197
1.431733e+00 2.037206e+00 3.398532e+00 224 207 197
1.319532e+00 2.036948e+00 3.554982e+00 200 202 220
1.427884e+00 2.068528e+00 3.340338e+00 111 104 88
1.427387e+00 2.069126e+00 3.339301e+00 111 104 88
8.092628e-01 2.022252e+00 3.607921e+00 63 51 37
1.427097e+00 2.099791e+00 3.309619e+00 229 208 189
1.461295e+00 2.101607e+00 3.290399e+00 119 103 99
1.064789e+00 2.044450e+00 3.847714e+00 8 16 69
1.065490e+00 2.042580e+00 3.852401e+00 8 16 69
1.132658e+00 2.067446e+00 3.701772e+00 158 144 95
8.619538e-01 2.085933e+00 3.661451e+00 167 151 150
1.129561e+00 2.081899e+00 3.853392e+00 3 17 39
1.066734e+00 2.099230e+00 3.898882e+00 158 144 119
1.429318e+00 2.176753e+00 3.216948e+00 219 217 223
1.379657e+00 2.209702e+00 3.071528e+00 204 194 191
1.479909e+00 2.219835e+00 3.170795e+00 166 134 130
1.183165e+00 2.169393e+00 3.782754e+00 9 57 151
9.218600e-01 2.221690e+00 3.700419e+00 174 71 37
1.074268e+00 2.212039e+00 3.938476e+00 192 194 229
4.482601e-01 2.216640e+00 3.648038e+00 245 235 219
4.482601e-01 2.216640e+00 3.648038e+00 245 235 219
4.268109e-01 2.238768e+00 3.465413e+00 152 127 90
4.255950e-01 2.240046e+00 3.491231e+00 152 127 90
1.038022e+00 2.342459e+00 3.114643e+00 241 223 109
4.663323e-01 2.535423e+00 2.792042e+00 73 70 50
1.188432e+00 1.859447e+00 3.680695e+00 43 10 3
1.010428e+00 1.794842e+00 4.360430e+00 78 48 14
1.234330e+00 1.892937e+00 3.685363e+00 182 156 137
8.764865e-01 1.899310e+00 3.470031e+00 149 104 40
1.310619e+00 1.920080e+00 3.604916e+00 142 101 54
1.095879e+00 1.904054e+00 3.740000e+00 165 140 121
7.303253e-01 1.914538e+00 3.542471e+00 22 34 46
7.313027e-01 1.915782e+00 3.538896e+00 22 34 46
8.334368e-01 1.936930e+00 3.521404e+00 153 130 31
1.386395e+00 1.990736e+00 3.416713e+00 71 60 47
1.061965e+00 1.946740e+00 3.784286e+00 15 22 58
7.565038e-01 1.956604e+00 3.569040e+00 157 137 57
1.358282e+00 1.998370e+00 3.411598e+00 56 46 44
1.357671e+00 1.996914e+00 3.420559e+00 56 46 44
1.431659e+00 2.003906e+00 3.419631e+00 123 94 44
1.263892e+00 1.993678e+00 3.755262e+00 5 8 53
6.794016e-01 1.989007e+00 3.629432e+00 146 126 120
1.263934e+00 2.024999e+00 3.768781e+00 179 170 177
1.148346e+00 2.026643e+00 3.807855e+00 45 46 60
8.149528e-01 2.047825e+00 3.618898e+00 169 152 141
7.598790e-01 2.053322e+00 3.644912e+00 74 42 41
7.600083e-01 2.053288e+00 3.645016e+00 74 42 41
1.280053e+00 2.068554e+00 3.788386e+00 180 169 171
7.050582e-01 2.077373e+00 3.531224e+00 100 95 86
6.673872e-01 2.066352e+00 3.695779e+00 28 11 21
7.528043e-01 2.073985e+00 3.674065e+00 143 123 127
1.542681e+00 2.167155e+00 3.213765e+00 206 188 163
1.318584e+00 2.129000e+00 3.667020e+00 117 83 82
9.506213e-01 2.149378e+00 3.376111e+00 56 7 0
1.144295e+00 2.130870e+00 3.845451e+00 33 58 92
1.009177e+00 2.148133e+00 3.615895e+00 70 41 35
1.439609e+00 2.228063e+00 3.177149e+00 192 161 146
1.274369e+00 2.191660e+00 3.553484e+00 19 21 66
1.412373e+00 2.253885e+00 3.156968e+00 74 50 32
1.411820e+00 2.252914e+00 3.168833e+00 74 50 32
1.004969e+00 2.199642e+00 4.107458e+00 37 51 99
8.824748e-01 2.194376e+00 4.187801e+00 180 144 115
2.969308e-01 2.276889e+00 3.099303e+00 48 49 71
1.172406e+00 2.306787e+00 3.307030e+00 38 38 6
1.110607e+00 2.327056e+00 3.310611e+00 131 100 33
9.805928e-01 2.316893e+00 3.784535e+00 192 182 143
4.109011e-01 2.386091e+00 3.055665e+00 153 117 51
9.596085e-01 2.483951e+00 3.396467e+00 141 113 57
8.986989e-01 2.414355e+00 4.427160e+00 227 222 214
4.724062e-01 2.513801e+00 2.798436e+00 166 129 54
1.265688e+00 1.814993e+00 3.594413e+00 34 9 1
1.284467e+00 1.846590e+00 3.614210e+00 30 25 39
1.093160e+00 1.838058e+00 3.684908e+00 174 137 113
1.119355e+00 1.859664e+00 3.572003e+00 167 143 116
1.242095e+00 1.860331e+00 3.657838e+00 123 111 113
1.230459e+00 1.874284e+00 3.676159e+00 37 8 5
1.303091e+00 1.921117e+00 3.351839e+00 141 110 78
1.116585e+00 1.895896e+00 3.731254e+00 89 72 64
1.060605e+00 1.894954e+00 3.735481e+00 31 11 12
6.708468e-01 1.903684e+00 3.556754e+00 90 56 28
1.287560e+00 1.955377e+00 3.289898e+00 32 25 40
1.385168e+00 1.992633e+00 2.997908e+00 116 92 46
1.074047e+00 1.918257e+00 3.748573e+00 20 9 10
6.835692e-01 1.920762e+00 3.582629e+00 160 143 133
8.798496e-01 1.941359e+00 3.504049e+00 129 118 74
7.550169e-01 1.937850e+00 3.560778e+00 54 42 8
7.544010e-01 1.936839e+00 3.560308e+00 54 42 8
1.096456e+00 1.938799e+00 3.760817e+00 34 23 33
8.204900e-01 1.950656e+00 3.554454e+00 129 73 0
1.090413e+00 1.956657e+00 3.784781e+00 139 121 128
7.630646e-01 1.976647e+00 3.577190e+00 27 12 1
7.872648e-01 1.981008e+00 3.574268e+00 167 141 132
7.870366e-01 1.981001e+00 3.574403e+00 167 141 132
6.679248e-01 2.014669e+00 3.335779e+00 95 72 51
1.100054e+00 1.991433e+00 3.806568e+00 179 177 188
1.253571e+00 2.005428e+00 3.756528e+00 160 148 160
1.122195e+00 1.996046e+00 3.805571e+00 79 57 61
1.122272e+00 1.995689e+00 3.806124e+00 79 57 61
1.197188e+00 2.019980e+00 3.802358e+00 185 172 163
1.163613e+00 2.015358e+00 3.810736e+00 170 167 167
6.577373e-01 2.021193e+00 3.568542e+00 95 69 42
6.799272e-01 2.021921e+00 3.659724e+00 157 133 119
1.072524e+00 2.024412e+00 3.836893e+00 135 108 138
1.005923e+00 2.063808e+00 3.587893e+00 55 38 40
6.862261e-01 2.041869e+00 3.674053e+00 26 28 4
1.507187e+00 2.119574e+00 3.257279e+00 218 201 177
1.504589e+00 2.115728e+00 3.284197e+00 218 201 177
7.638846e-01 2.181797e+00 2.430919e+00 118 101 107
1.398681e+00 2.121746e+00 3.418507e+00 218 217 219
1.075517e+00 2.070535e+00 3.864834e+00 12 17 33
7.438683e-01 2.091025e+00 3.681457e+00 35 8 24
7.195692e-01 2.086035e+00 3.691442e+00 21 2 14
7.662921e-01 2.094342e+00 3.679646e+00 35 16 20
9.773356e-01 2.168311e+00 3.369816e+00 144 63 33
1.300396e+00 2.165795e+00 3.585175e+00 63 28 55
1.359571e+00 2.190220e+00 3.329224e+00 128 87 110
9.937544e-01 2.174086e+00 3.447261e+00 220 191 148
9.912677e-01 2.169727e+00 3.513261e+00 220 191 148
6.985149e-01 2.146116e+00 3.744031e+00 28 16 24
7.221687e-01 2.154822e+00 3.762923e+00 105 85 88
4.027829e-01 2.194647e+00 3.181139e+00 138 109 77
1.379450e+00 2.212975e+00 3.370945e+00 70 38 56
9.581552e-01 2.199922e+00 3.322457e+00 150 81 34
1.417268e+00 2.141712e+00 4.317222e+00 201 174 171
8.197397e-01 2.182164e+00 3.680233e+00 98 89 97
1.284858e+00 2.349410e+00 1.845152e+00 140 116 155
1.074193e+00 2.186023e+00 3.760415e+00 217 215 245
1.074193e+00 2.186023e+00 3.760415e+00 217 215 245
6.908075e-01 2.170848e+00 3.776742e+00 11 3 10
8.214027e-01 2.195857e+00 3.750752e+00 17 9 17
9.811223e-01 2.310359e+00 2.551164e+00 241 163 113
1.317705e+00 2.277401e+00 3.200009e+00 73 67 19
2.876838e-01 2.245250e+00 3.149964e+00 219 219 221
8.553156e-01 2.222599e+00 3.726800e+00 157 150 129
9.862699e-01 2.223708e+00 3.855366e+00 213 152 119
9.941390e-01 2.266812e+00 3.301113e+00 213 152 119
8.682666e-01 2.380596e+00 2.009066e+00 173 171 132
8.682666e-01 2.380596e+00 2.009066e+00 173 171 132
9.694490e-01 2.350252e+00 3.659613e+00 167 164 131
8.773774e-01 2.508849e+00 3.237911e+00 218 225 213
2.536625e-01 2.778027e+00 2.598029e+00 69 29 9
2.689114e-01 2.803326e+00 2.435668e+00 149 125 83
8.206693e-01 1.909868e+00 3.501462e+00 23 44 60
8.206016e-01 1.909588e+00 3.501252e+00 23 44 60
1.199491e+00 1.823035e+00 3.620221e+00 29 11 19
8.794578e-01 2.045817e+00 3.533224e+00 119 106 94
8.029068e-01 2.102493e+00 3.632592e+00 26 2 6
1.343075e+00 1.929502e+00 3.476118e+00 172 120 52
1.145431e+00 2.051661e+00 3.830818e+00 158 162 69
9.035945e-01 2.247357e+00 3.840541e+00 135 128 93
8.468231e-01 2.491898e+00 3.497195e+00 211 216 198
8.149480e-01 2.496472e+00 3.495521e+00 214 217 204
7.266668e-01 1.980251e+00 3.603139e+00 150 129 135
1.374076e+00 2.133006e+00 3.404480e+00 214 203 196
5.166702e-01 2.234653e+00 3.808580e+00 161 154 121
5.166702e-01 2.234653e+00 3.808580e+00 161 154 121
8.781785e-01 2.165871e+00 3.587537e+00 22 23 33
3.435437e-01 2.287536e+00 3.119591e+00 223 204 195
7.081448e-01 1.883063e+00 3.534389e+00 28 40 81
7.097490e-01 1.885895e+00 3.518782e+00 28 40 81
1.014001e+00 2.144451e+00 3.499681e+00 74 43 31
8.796790e-01 2.221729e+00 3.658910e+00 26 1 2
6.294083e-01 2.272757e+00 3.817323e+00 224 212 187
1.076456e+00 1.774291e+00 3.641228e+00 141 95 57
8.066360e-01 1.933686e+00 3.534520e+00 175 130 38
1.042022e+00 1.925941e+00 3.713751e+00 142 119 101
8.887568e-01 1.956770e+00 3.498516e+00 19 6 0
7.323915e-01 1.994577e+00 3.618450e+00 81 56 53
6.543197e-01 2.011199e+00 3.657914e+00 87 53 34
1.508384e+00 2.103957e+00 3.261406e+00 158 121 74
1.229452e+00 2.204774e+00 3.715918e+00 197 208 238
1.149243e+00 2.027277e+00 3.815252e+00 46 60 82
7.602792e-01 2.053663e+00 3.659836e+00 55 33 12
1.242220e+00 1.861597e+00 3.669525e+00 126 110 121
1.250818e+00 2.073507e+00 3.807982e+00 148 143 116
1.250979e+00 2.071331e+00 3.796988e+00 148 143 116
1.190922e+00 1.842071e+00 3.668564e+00 96 80 94
1.190922e+00 1.842071e+00 3.668564e+00 96 80 94
8.256247e-01 2.157752e+00 3.667699e+00 73 28 29
1.285935e+00 1.881772e+00 3.656225e+00 21 20 50
1.090249e+00 1.958327e+00 3.779932e+00 135 124 121
1.544476e-01 2.832652e+00 2.408124e+00 80 31 25
1.013419e+00 2.192285e+00 3.300506e+00 220 198 87
7.364642e-01 2.056242e+00 3.658344e+00 56 40 1
1.252080e+00 1.807865e+00 3.607770e+00 39 6 1
1.073029e+00 1.809229e+00 3.675518e+00 125 98 90
8.470751e-01 1.988067e+00 3.547778e+00 176 143 127
1.047128e+00 2.019104e+00 3.798274e+00 151 136 130
9.955755e-01 2.135371e+00 3.357018e+00 85 3 2
1.246218e+00 2.075378e+00 3.809668e+00 160 144 125
7.007346e-01 2.121591e+00 3.725043e+00 43 2 5
1.928605e-01 2.839119e+00 2.342788e+00 147 112 73
5.842279e-01 2.294084e+00 3.091395e+00 253 238 219
8.205912e-01 2.068031e+00 3.639099e+00 127 110 93
4.015642e-01 2.257191e+00 3.117876e+00 201 192 185
3.992144e-01 2.264069e+00 3.105766e+00 201 192 185
1.102412e+00 2.180311e+00 3.760840e+00 127 118 117
1.026650e+00 2.202940e+00 3.683645e+00 33 32 90
8.727211e-01 2.210721e+00 3.676111e+00 25 23 36
6.555742e-01 1.954304e+00 3.451563e+00 93 59 48
1.281784e+00 2.000172e+00 3.698714e+00 6 27 106
9.764850e-01 2.309202e+00 3.136965e+00 197 85 45
1.408076e+00 2.007223e+00 3.424517e+00 221 201 196
6.273210e-01 2.205494e+00 3.160882e+00 242 230 206
1.011570e+00 2.169884e+00 3.354114e+00 236 198 110
6.332409e-01 2.381227e+00 3.005307e+00 254 239 221
1.323759e+00 1.927570e+00 3.455535e+00 144 109 66
1.231829e+00 2.040444e+00 3.844157e+00 141 137 55
1.162762e+00 2.204488e+00 3.729719e+00 178 173 203
1.044312e+00 1.906356e+00 3.692120e+00 144 123 111
1.183443e+00 2.024369e+00 3.804852e+00 185 168 159
6.699641e-01 2.096786e+00 3.697751e+00 23 19 29
6.034384e-01 2.242594e+00 3.855308e+00 97 81 35
1.255247e+00 1.788702e+00 3.618484e+00 136 92 38
1.211478e+00 1.841555e+00 3.658923e+00 5 2 29
6.667282e-01 1.914606e+00 3.577484e+00 83 57 44
1.239305e+00 1.914171e+00 3.724576e+00 79 58 37
1.480265e+00 2.065664e+00 3.361349e+00 214 189 160
1.480265e+00 2.065664e+00 3.361349e+00 214 189 160
6.735173e-01 1.971694e+00 3.610409e+00 50 18 18
7.238123e-01 2.006015e+00 3.627460e+00 157 140 114
7.238123e-01 2.006015e+00 3.627460e+00 157 140 114
1.429880e+00 2.162772e+00 3.270148e+00 209 209 208
7.592606e-01 2.021356e+00 3.631275e+00 83 64 67
7.423822e-01 2.025663e+00 3.618845e+00 76 58 53
1.379281e+00 2.195660e+00 3.264698e+00 206 196 186
9.182249e-01 2.150981e+00 3.357595e+00 36 16 4
1.092188e+00 2.010047e+00 3.807349e+00 53 57 87
6.754098e-01 2.059431e+00 3.650976e+00 152 141 133
1.223440e+00 2.038764e+00 3.801311e+00 85 70 61
1.193591e+00 2.037537e+00 3.806601e+00 45 41 14
1.059379e+00 2.037423e+00 3.827556e+00 25 17 66
1.227482e+00 2.054767e+00 3.800627e+00 160 153 60
1.246139e+00 2.075161e+00 3.809771e+00 159 148 137
5.450381e-01 2.412362e+00 2.979364e+00 163 121 49
1.043914e+00 2.207533e+00 3.711862e+00 113 132 183
6.934240e-01 1.921538e+00 3.515722e+00 158 128 123
8.771344e-01 2.197365e+00 3.702560e+00 20 18 31
8.754795e-01 2.107816e+00 3.653612e+00 18 20 39
8.754795e-01 2.107816e+00 3.653612e+00 18 20 39
9.764350e-01 2.140580e+00 3.779402e+00 173 144 82
8.642113e-01 2.085152e+00 3.633768e+00 176 151 138
9.086202e-01 2.223490e+00 3.757409e+00 72 47 12
8.459593e-01 1.977473e+00 3.572433e+00 170 148 134
5.364120e-01 2.179430e+00 3.877716e+00 161 155 126
7.040465e-01 1.893368e+00 3.569707e+00 143 116 120
7.123883e-01 1.930019e+00 3.543599e+00 141 127 126
6.322803e-01 1.932378e+00 3.547696e+00 93 57 46
6.322803e-01 1.932378e+00 3.547696e+00 93 57 46
8.344488e-01 2.000138e+00 3.575941e+00 163 139 130
7.118663e-01 2.145148e+00 3.730567e+00 15 12 20
8.063306e-01 2.162588e+00 3.706226e+00 1 3 15
1.035631e+00 2.134351e+00 3.836487e+00 19 26 71
7.302624e-01 2.197517e+00 3.749885e+00 109 88 46
7.081116e-01 2.391984e+00 3.810936e+00 217 213 167
1.379849e+00 2.109152e+00 3.538339e+00 207 193 187
1.252158e+00 2.256851e+00 3.385032e+00 131 71 86
6.858149e-01 2.107693e+00 3.634178e+00 62 21 13
1.105140e+00 1.868975e+00 3.731733e+00 142 109 66
8.077064e-01 2.068352e+00 3.627573e+00 120 92 77
1.270358e+00 2.110760e+00 3.736286e+00 146 142 94
1.436638e+00 2.045004e+00 3.392006e+00 204 191 182
3.966894e-01 2.251747e+00 3.606232e+00 150 146 113
3.966894e-01 2.251747e+00 3.606232e+00 150 146 113
1.427786e+00 2.030592e+00 3.449283e+00 205 189 174
1.145275e+00 2.293027e+00 3.217818e+00 245 222 114
1.153689e+00 2.298358e+00 3.309638e+00 245 222 114
9.822090e-01 2.346070e+00 3.685102e+00 190 155 117
4.167703e-01 2.268598e+00 3.602181e+00 204 200 168
1.283365e+00 1.850324e+00 3.652969e+00 25 25 49
1.238199e+00 1.971409e+00 3.725528e+00 143 119 112
1.307592e+00 1.973012e+00 3.544254e+00 24 1 1
1.265576e+00 1.992944e+00 3.762251e+00 6 1 22
6.564630e-01 2.056390e+00 3.628861e+00 31 13 3
6.372983e-01 2.065554e+00 3.627090e+00 144 106 49
1.499687e+00 2.229562e+00 3.052311e+00 90 59 27
1.470433e+00 2.232670e+00 3.020568e+00 67 33 11
2.835523e-01 2.216261e+00 3.235733e+00 225 215 213
1.372979e+00 1.743490e+00 3.707180e+00 105 51 0
8.866019e-01 1.905388e+00 3.475962e+00 136 97 41
1.268680e+00 2.041926e+00 3.796826e+00 34 20 9
7.227411e-01 1.938678e+00 3.583624e+00 23 17 27
1.339652e+00 2.078949e+00 3.405701e+00 71 55 56
1.369538e+00 2.097666e+00 3.263539e+00 204 201 198
1.411253e+00 2.145426e+00 3.346275e+00 204 195 194
6.749157e-01 2.001517e+00 3.601328e+00 84 64 42
1.434604e+00 2.229984e+00 3.059621e+00 177 150 136
7.848528e-01 2.169768e+00 3.640301e+00 18 5 2
8.169931e-01 2.196228e+00 3.667514e+00 149 146 120
1.035740e+00 2.284185e+00 3.372757e+00 231 168 95
9.790422e-01 2.296734e+00 3.724457e+00 133 59 23
1.057458e+00 2.300763e+00 3.252814e+00 238 162 103
3.732565e-01 2.214698e+00 3.524800e+00 237 227 206
4.555559e-01 2.390636e+00 3.683951e+00 180 175 134
4.502902e-01 2.427651e+00 3.530313e+00 214 211 172
9.487190e-01 2.545135e+00 2.931539e+00 160 132 67
9.739577e-01 2.566179e+00 3.048423e+00 40 39 11
1.894818e+00 2.816449e+00 2.323080e+00 52 10 0
8.218981e-01 1.952164e+00 3.533532e+00 135 70 0
6.844356e-01 2.007679e+00 3.646758e+00 99 65 64
1.258688e+00 2.028915e+00 3.780525e+00 169 161 169
5.211347e-01 3.120447e+00 2.488598e+00 126 98 55
1.334216e+00 3.225341e+00 2.602289e+00 199 180 173
3.723267e-01 3.183716e+00 2.704023e+00 175 170 150
1.001680e+00 2.037903e+00 3.358816e+00 55 21 1
4.912802e-01 3.212462e+00 2.671787e+00 14 11 14
1.162326e+00 1.785052e+00 3.633104e+00 33 10 0
1.155169e+00 1.822837e+00 3.662258e+00 5 4 16
1.155169e+00 1.822837e+00 3.662258e+00 5 4 16
1.118340e+00 1.839863e+00 3.689656e+00 172 137 117
6.957809e-01 2.023972e+00 3.645095e+00 146 139 119
1.130718e+00 2.010590e+00 3.810860e+00 184 173 170
8.574257e-01 2.151710e+00 3.686227e+00 26 9 18
8.513093e-01 2.189877e+00 3.722660e+00 53 51 62
1.594975e+00 3.299995e+00 2.602872e+00 131 120 106
1.256773e+00 1.845713e+00 3.630746e+00 43 37 47
1.386539e+00 2.107329e+00 3.298161e+00 130 118 107
1.386539e+00 2.107329e+00 3.298161e+00 130 118 107
9.613309e-01 2.290567e+00 3.432737e+00 176 142 83
2.586482e-01 2.637741e+00 2.630932e+00 79 32 14
2.586482e-01 2.637741e+00 2.630932e+00 79 32 14
1.038323e+00 1.798558e+00 3.624505e+00 78 44 28
1.365259e+00 2.136943e+00 3.313938e+00 208 195 176
2.113145e-01 2.774543e+00 2.509026e+00 146 118 63
1.055708e+00 2.112801e+00 3.409337e+00 152 126 109
6.248309e-01 3.190519e+00 2.701767e+00 191 180 156
5.640334e-01 3.178667e+00 2.730238e+00 7 12 44
1.281625e+00 2.046629e+00 3.777248e+00 5 24 95
1.266185e+00 2.125381e+00 3.809814e+00 179 160 111
4.221143e-01 3.184512e+00 2.717967e+00 7 8 35
4.923530e-01 3.221119e+00 2.735360e+00 180 167 171
1.322244e+00 1.923659e+00 3.464504e+00 142 108 61
1.334511e+00 2.001080e+00 3.440926e+00 208 187 170
1.402218e+00 2.196025e+00 3.243855e+00 11 4 0
1.098313e+00 1.864847e+00 3.720615e+00 175 131 89
9.591212e-01 2.133648e+00 3.384262e+00 65 1 0
1.307357e+00 2.041154e+00 3.783247e+00 166 130 93
6.451516e-01 2.404930e+00 2.951441e+00 255 239 218
1.816135e+00 3.107354e+00 2.625633e+00 167 145 95
5.216371e-01 3.221824e+00 2.727921e+00 182 167 164
1.052269e+00 1.699789e+00 3.711453e+00 107 46 0
1.221584e+00 1.806883e+00 3.608146e+00 27 6 1
1.177194e+00 1.797348e+00 3.636463e+00 139 129 116
1.057387e+00 1.802971e+00 3.672779e+00 29 17 25
1.088368e+00 1.814315e+00 3.684284e+00 41 3 1
1.202928e+00 1.870967e+00 3.686366e+00 173 144 132
1.239470e+00 1.916781e+00 3.720354e+00 87 53 36
1.114054e+00 1.908602e+00 3.746498e+00 176 154 133
1.230947e+00 1.928579e+00 3.732926e+00 168 150 136
1.336444e+00 2.074126e+00 3.396461e+00 201 202 205
1.173989e+00 1.928086e+00 3.741578e+00 168 151 137
1.131581e+00 1.946813e+00 3.770658e+00 187 169 154
1.131522e+00 1.946878e+00 3.771120e+00 187 169 154
9.634174e-01 2.123546e+00 3.367273e+00 97 39 28
9.626107e-01 2.113441e+00 3.389906e+00 97 39 28
1.193747e+00 1.988337e+00 3.772076e+00 187 166 151
8.513780e-01 2.057177e+00 3.611952e+00 160 137 113
1.733189e-01 2.202761e+00 3.198882e+00 146 108 54
1.059001e+00 2.081393e+00 3.886987e+00 156 139 128
1.038043e+00 2.118209e+00 3.833377e+00 123 114 137
1.737509e+00 3.347783e+00 2.764477e+00 140 128 114
1.737509e+00 3.347783e+00 2.764477e+00 140 128 114
1.748759e+00 3.354104e+00 2.776257e+00 188 177 168
3.716750e-01 3.162254e+00 2.737192e+00 176 169 153
1.095840e+00 1.924996e+00 3.759171e+00 30 23 29
1.104404e+00 1.777844e+00 3.644922e+00 20 8 13
1.104404e+00 1.777844e+00 3.644922e+00 20 8 13
1.190721e+00 1.794736e+00 3.623299e+00 52 19 3
1.217720e+00 1.857823e+00 3.664925e+00 153 121 114
1.099334e+00 1.890072e+00 3.740128e+00 167 137 108
1.046644e+00 1.929892e+00 3.711433e+00 150 133 118
1.212015e+00 1.962867e+00 3.752825e+00 189 157 160
1.212015e+00 1.962867e+00 3.752825e+00 189 157 160
1.120112e+00 1.962331e+00 3.784766e+00 184 168 158
1.120313e+00 1.963309e+00 3.783794e+00 184 168 158
1.223666e+00 2.005328e+00 3.774708e+00 184 163 159
1.223666e+00 2.005328e+00 3.774708e+00 184 163 159
1.189740e+00 2.003809e+00 3.790921e+00 130 106 88
1.147528e+00 2.035301e+00 3.828538e+00 64 63 60
1.258285e+00 2.061844e+00 3.785673e+00 117 124 95
1.257042e+00 2.068822e+00 3.801584e+00 61 52 40
7.587010e-01 2.116301e+00 3.686511e+00 79 1 0
7.907536e-01 2.133112e+00 3.696375e+00 54 12 0
1.257910e+00 2.099874e+00 3.819412e+00 186 173 129
7.326500e-01 2.180499e+00 3.758474e+00 15 4 3
7.326260e-01 2.178368e+00 3.758889e+00 15 4 3
8.224585e-01 2.194848e+00 3.735065e+00 10 6 3
1.587431e+00 3.258625e+00 2.677934e+00 137 124 108
1.562933e+00 3.294348e+00 2.708506e+00 140 126 112
1.381621e+00 2.101184e+00 3.519752e+00 207 193 187
1.037345e+00 2.319048e+00 3.188042e+00 194 66 27
1.062394e+00 2.096827e+00 3.856769e+00 133 140 71
8.654785e-01 2.269949e+00 3.777873e+00 122 118 67
1.150112e+00 2.027971e+00 3.814699e+00 47 34 57
1.131057e+00 2.124294e+00 3.858506e+00 99 40 50
1.204943e+00 2.159646e+00 3.799883e+00 12 39 103
1.248679e+00 2.178400e+00 3.734374e+00 179 177 142
6.570442e-01 2.057263e+00 3.631420e+00 31 13 3
1.042581e+00 2.235299e+00 3.663915e+00 8 32 99
1.141816e+00 2.292794e+00 3.202935e+00 240 215 123
1.301133e+00 1.903566e+00 3.660290e+00 130 83 54
1.241854e+00 1.920691e+00 3.714064e+00 57 31 19
1.392933e+00 1.957409e+00 3.437804e+00 109 69 37
1.372158e+00 1.979662e+00 3.442821e+00 210 201 191
1.389718e+00 2.004021e+00 3.432996e+00 206 190 173
1.232641e+00 2.007711e+00 3.792566e+00 157 140 124
1.175569e+00 2.006773e+00 3.788119e+00 84 70 58
1.342698e+00 2.046388e+00 3.365771e+00 39 30 35
1.342698e+00 2.046388e+00 3.365771e+00 39 30 35
1.278105e+00 2.092129e+00 3.860360e+00 61 52 37
1.414008e+00 2.079628e+00 3.305898e+00 215 193 164
1.171373e+00 2.159327e+00 3.826723e+00 12 51 141
1.103501e+00 2.232795e+00 3.715286e+00 70 70 74
1.200201e+00 2.265329e+00 3.649702e+00 17 53 144
1.172249e+00 2.263232e+00 3.670024e+00 213 218 244
1.136651e+00 2.270811e+00 3.198311e+00 102 66 59
8.915756e-01 2.247108e+00 3.779473e+00 110 109 68
9.935731e-01 2.259149e+00 3.298612e+00 220 174 117
7.324019e-01 2.259715e+00 3.823968e+00 225 226 188
1.053177e+00 2.362544e+00 3.085087e+00 220 214 134
8.735906e-01 2.658934e+00 5.688437e+00 218 210 177
9.219807e-01 2.696980e+00 4.870218e+00 37 41 17
7.128315e-01 2.046415e+00 3.629920e+00 41 29 5
1.233572e+00 2.073603e+00 3.817787e+00 51 31 34
1.068809e+00 1.791177e+00 3.658689e+00 38 12 14
1.500097e+00 2.111971e+00 3.191510e+00 212 194 170
1.252217e+00 2.180700e+00 3.782001e+00 171 193 122
1.527547e+00 2.183621e+00 3.084741e+00 102 83 69
1.069054e+00 2.237263e+00 3.709755e+00 216 210 238
1.244333e+00 2.293290e+00 3.192005e+00 22 11 11
1.041549e+00 2.290608e+00 3.302633e+00 233 166 96
1.041549e+00 2.290608e+00 3.302633e+00 233 166 96
4.917825e-01 2.430136e+00 2.844171e+00 218 202 172
5.960015e-01 2.312782e+00 3.428178e+00 172 142 83
6.449491e-01 1.927705e+00 3.484768e+00 63 46 47
8.605577e-01 1.995856e+00 3.564001e+00 161 133 104
8.786588e-01 2.118325e+00 3.636288e+00 21 23 39
8.799342e-01 2.152691e+00 3.668887e+00 18 16 29
1.037164e+00 1.830308e+00 3.652270e+00 139 114 86
5.608142e-01 2.439248e+00 2.913049e+00 251 237 211
1.193331e+00 2.088041e+00 3.832012e+00 88 103 71
8.876926e-01 2.106009e+00 3.629195e+00 23 14 17
1.094510e+00 1.775610e+00 3.679585e+00 105 105 114
6.357903e-01 2.001815e+00 3.387481e+00 71 43 36
9.150442e-01 1.961343e+00 3.510807e+00 85 76 76
8.900261e-01 2.104955e+00 3.624977e+00 22 8 8
1.044273e+00 2.091390e+00 3.883563e+00 27 24 47
1.270391e+00 1.815060e+00 3.603198e+00 14 5 3
1.042538e+00 1.806573e+00 3.658059e+00 138 126 130
1.160582e+00 1.918473e+00 3.736285e+00 177 154 140
6.738717e-01 2.057845e+00 3.666631e+00 156 138 133
6.395368e-01 2.214759e+00 3.580893e+00 148 117 71
6.354603e-01 2.243308e+00 3.629909e+00 115 87 50
8.512188e-01 2.167233e+00 3.911680e+00 87 69 43
1.187592e+00 1.792052e+00 3.629208e+00 45 10 4
7.301405e-01 1.877148e+00 3.519120e+00 39 32 7
7.934955e-01 1.890856e+00 3.508294e+00 17 31 17
8.554471e-01 1.904112e+00 3.493938e+00 27 19 30
1.121864e+00 1.816793e+00 3.674243e+00 157 127 130
1.123235e+00 1.820505e+00 3.670967e+00 157 127 130
1.152791e+00 1.842838e+00 3.651452e+00 147 118 118
7.033124e-01 1.907332e+00 3.540956e+00 156 125 126
1.044731e+00 1.848381e+00 3.689004e+00 133 121 117
1.242645e+00 1.894163e+00 3.675797e+00 183 149 125
1.252279e+00 1.992334e+00 3.764583e+00 18 15 44
1.200112e+00 1.998872e+00 3.785316e+00 181 168 156
7.430928e-01 2.065082e+00 3.666028e+00 50 46 16
1.173653e+00 2.009258e+00 3.796966e+00 85 75 62
7.050491e-01 2.088653e+00 3.652480e+00 112 111 97
6.579001e-01 2.100418e+00 3.667875e+00 137 113 117
1.101671e+00 2.026137e+00 3.840161e+00 153 130 137
1.176661e+00 2.046870e+00 3.819737e+00 184 142 72
1.152235e+00 2.039729e+00 3.836654e+00 175 158 56
1.044647e+00 2.032509e+00 3.840203e+00 157 154 171
7.883445e-01 2.168171e+00 3.726092e+00 6 7 19
6.294692e-01 2.274339e+00 3.554018e+00 100 71 26
1.061581e+00 2.085253e+00 3.878335e+00 158 153 137
8.525042e-01 2.187591e+00 3.724710e+00 56 51 64
8.496467e-01 2.208735e+00 3.714091e+00 19 6 12
1.887724e+00 3.343102e+00 2.773742e+00 193 180 158
8.864281e-01 2.103714e+00 3.630825e+00 23 5 12
6.901179e-01 2.173832e+00 3.929089e+00 100 100 49
1.118958e+00 1.839745e+00 3.693145e+00 188 151 121
8.828756e-01 1.922735e+00 3.496669e+00 105 104 54
1.521430e+00 2.180155e+00 3.142808e+00 127 112 96
1.427573e+00 2.201523e+00 3.128146e+00 27 2 1
1.481774e+00 2.218685e+00 3.081243e+00 186 168 149
7.535152e-01 2.238301e+00 3.603721e+00 85 75 81
1.148279e+00 2.099302e+00 3.885334e+00 169 158 96
1.150814e+00 1.846526e+00 3.676350e+00 20 0 0
4.224430e-01 2.410708e+00 3.581302e+00 45 26 0
1.068493e+00 1.791513e+00 3.668185e+00 153 131 139
7.734888e-01 1.886280e+00 3.510392e+00 19 29 0
8.748122e-01 1.907353e+00 3.492390e+00 41 21 28
7.131016e-01 1.947018e+00 3.573032e+00 28 28 48
1.223074e+00 2.039670e+00 3.797323e+00 63 48 46
1.011698e+00 2.222957e+00 3.687501e+00 49 19 19
7.902994e-01 2.188768e+00 3.735922e+00 8 5 7
4.914062e-01 2.352049e+00 3.547206e+00 181 151 96
1.926234e+00 3.315602e+00 2.785826e+00 132 121 102
1.859001e+00 3.353657e+00 2.801635e+00 157 146 125
1.764284e+00 3.370665e+00 2.797501e+00 155 139 124
6.881062e-01 2.100180e+00 3.685772e+00 19 19 34
6.848357e-01 1.912476e+00 3.555640e+00 171 147 127
9.454336e-01 2.067367e+00 3.529297e+00 177 136 83
8.808200e-01 2.117417e+00 3.633551e+00 27 28 48
1.056875e+00 2.037170e+00 3.859744e+00 5 36 126
1.028585e+00 1.815687e+00 3.616062e+00 28 25 44
9.935713e-01 1.946537e+00 3.458554e+00 110 68 26
7.549077e-01 1.955592e+00 3.569422e+00 164 150 11
1.038689e+00 1.881698e+00 3.727696e+00 170 143 121
1.261808e+00 1.926722e+00 3.693949e+00 190 160 118
1.042556e+00 1.912908e+00 3.738779e+00 167 144 121
1.036816e+00 1.954099e+00 3.796005e+00 172 147 116
6.614891e-01 1.918647e+00 3.552365e+00 65 50 59
6.586661e-01 2.018423e+00 3.618675e+00 53 35 66
6.559058e-01 2.085884e+00 3.539893e+00 61 55 62
6.786140e-01 2.029071e+00 3.648068e+00 167 141 133
6.579352e-01 2.159179e+00 3.578094e+00 55 26 35
8.188374e-01 2.119191e+00 3.673099e+00 141 63 18
1.005021e+00 2.158531e+00 3.662266e+00 40 33 34
6.652054e-01 1.877666e+00 3.521228e+00 22 27 45
7.992228e-01 1.916397e+00 3.559654e+00 189 150 21
1.102649e+00 1.912748e+00 3.752865e+00 24 16 11
8.907087e-01 2.079009e+00 3.611562e+00 110 95 76
8.907087e-01 2.079009e+00 3.611562e+00 110 95 76
1.043668e+00 1.980733e+00 3.802283e+00 164 145 135
7.177036e-01 2.111743e+00 3.697409e+00 144 84 54
6.558812e-01 2.160146e+00 3.648880e+00 55 27 24
1.040883e+00 2.052678e+00 3.835873e+00 0 5 62
1.119942e+00 2.056993e+00 3.865509e+00 21 23 50
1.181876e+00 1.804007e+00 3.628108e+00 160 144 134
1.023916e+00 1.829060e+00 3.592452e+00 25 12 12
1.222328e+00 1.822435e+00 3.622383e+00 118 106 107
1.222328e+00 1.822435e+00 3.622383e+00 118 106 107
1.162818e+00 1.813530e+00 3.652396e+00 163 150 167
6.849356e-01 1.888033e+00 3.545517e+00 45 47 55
1.193649e+00 1.830357e+00 3.651207e+00 30 23 25
6.740560e-01 1.938952e+00 3.575533e+00 47 29 30
6.740560e-01 1.938952e+00 3.575533e+00 47 29 30
1.143794e+00 1.869327e+00 3.702558e+00 194 157 116
6.570996e-01 1.986640e+00 3.530163e+00 64 56 54
8.351949e-01 1.977262e+00 3.560016e+00 180 159 144
6.672481e-01 1.958850e+00 3.583534e+00 81 72 64
8.266070e-01 2.022267e+00 3.584507e+00 131 115 106
8.343499e-01 2.020969e+00 3.596042e+00 142 125 115
6.546511e-01 2.055510e+00 3.556415e+00 126 91 86
1.045170e+00 1.950534e+00 3.776765e+00 161 140 124
8.376909e-01 2.123541e+00 3.673109e+00 73 10 0
6.549540e-01 2.160340e+00 3.613361e+00 149 90 61
6.549540e-01 2.160340e+00 3.613361e+00 149 90 61
1.114463e+00 2.021609e+00 3.835690e+00 151 135 146
1.114463e+00 2.021609e+00 3.835690e+00 151 135 146
7.907100e-01 2.131894e+00 3.703706e+00 88 13 2
1.054526e+00 2.054915e+00 3.881657e+00 141 155 174
1.152473e+00 2.074460e+00 3.865490e+00 72 59 10
6.535226e-01 2.320193e+00 3.517231e+00 134 106 63
6.590825e-01 2.205650e+00 3.746907e+00 119 93 41
7.979336e-01 2.130457e+00 3.925087e+00 88 66 19
1.868431e+00 3.301448e+00 2.798536e+00 152 137 118
1.290052e+00 3.815098e+00 -1.602573e+01 0 255 0
1.290957e+00 3.819461e+00 -1.607553e+01 255 255 0
1.325477e+00 4.131001e+00 -2.089920e+01 255 0 0
1.326286e+00 4.134972e+00 -2.094904e+01 255 255 0
-8.260219e+01 -2.670406e+02 3.433367e+03 0 255 0
-8.260097e+01 -2.670367e+02 3.433317e+03 255 255 0
-2.482417e+02 -6.490540e+02 5.832267e+03 255 0 0
-2.482396e+02 -6.490484e+02 5.832218e+03 255 255 0
-9.081961e+01 -1.565156e+02 9.476324e+02 0 255 0
-9.081485e+01 -1.565074e+02 9.475834e+02 255 255 0
5.050104e+02 1.271221e+03 -5.152835e+03 255 0 0
5.050151e+02 1.271233e+03 -5.152883e+03 255 255 0
-6.407505e-01 -4.453712e+00 2.256276e+01 0 255 0
-6.370372e-01 -4.437135e+00 2.251574e+01 255 255 0
-5.150921e-02 -3.454732e+00 1.699876e+01 255 0 0
-4.800464e-02 -3.435126e+00 1.695290e+01 255 255 0
2.695845e-01 -2.576916e+00 1.340145e+01 0 255 0
2.726832e-01 -2.555202e+00 1.335652e+01 255 255 0
3.126601e+00 3.892630e+00 1.998241e+01 255 0 0
3.119878e+00 3.887495e+00 1.993313e+01 255 255 0
5.126948e+01 5.688729e+01 8.245034e+02 0 255 0
5.126643e+01 5.688397e+01 8.244536e+02 255 255 0
-2.340654e+00 -5.028239e+00 -1.034988e+02 255 0 0
-2.342318e+00 -5.031581e+00 -1.035487e+02 255 255 0
1.534731e-01 -1.784670e+00 9.635083e+00 0 255 0
1.594594e-01 -1.757961e+00 9.593240e+00 255 255 0
-3.612695e-01 -6.924792e-01 7.558932e+00 255 0 0
-3.487428e-01 -6.647986e-01 7.519222e+00 255 255 0
2.975335e+00 3.281550e+00 1.028679e+01 0 255 0
2.960815e+00 3.274180e+00 1.023951e+01 255 255 0
-5.706063e-01 2.772296e-01 6.576053e+00 255 0 0
-5.510433e-01 3.017164e-01 6.537096e+00 255 255 0
