ply
format ascii 1.0
element vertex 995
property float x
property float y
property float z
property uchar diffuse_red
property uchar diffuse_green
property uchar diffuse_blue
end_header
6.663233e-01 2.062045e+00 3.809126e+00 62 32 36
4.497679e-01 2.345986e+00 5.778055e+00 65 85 84
7.932151e-01 2.100232e+00 3.740979e+00 49 40 45
1.339455e+00 1.959351e+00 3.424114e+00 204 195 182
1.145929e+00 1.918279e+00 3.782889e+00 159 144 138
3.348508e-01 2.184184e+00 3.147756e+00 214 208 207
8.146972e-01 2.503381e+00 3.260218e+00 72 87 83
1.221071e+00 1.782358e+00 3.576092e+00 36 33 41
1.219836e+00 1.783723e+00 3.576069e+00 36 33 41
1.103933e+00 1.751378e+00 3.597189e+00 49 53 59
1.001014e+00 2.157159e+00 3.502921e+00 62 86 138
1.101289e+00 2.189260e+00 3.423525e+00 213 215 227
3.445875e-01 2.269676e+00 3.282600e+00 177 120 38
9.960794e-01 2.298888e+00 3.551419e+00 175 123 29
1.958736e-01 2.662956e+00 2.887297e+00 70 28 17
1.076333e+00 1.801345e+00 3.642268e+00 151 119 88
1.260196e+00 1.883342e+00 3.695282e+00 13 29 82
1.247436e+00 1.920322e+00 3.701790e+00 2 31 102
1.369343e+00 1.965274e+00 3.358032e+00 209 198 196
9.341404e-01 2.064054e+00 3.406982e+00 88 23 19
8.504822e-01 2.074779e+00 3.481323e+00 20 13 31
8.504822e-01 2.074779e+00 3.481323e+00 20 13 31
5.585603e-01 2.120531e+00 3.418802e+00 233 231 216
5.672071e-01 2.138682e+00 3.170806e+00 233 231 216
1.003058e+00 1.865738e+00 3.610804e+00 138 110 95
1.037174e+00 1.926813e+00 3.755604e+00 6 27 89
9.994458e-01 1.931149e+00 3.683476e+00 130 111 95
9.640996e-01 1.962377e+00 3.472906e+00 59 27 11
6.105219e-01 2.071195e+00 3.110571e+00 155 117 77
1.442124e+00 2.116992e+00 3.217256e+00 23 19 18
1.243892e+00 2.072797e+00 3.707883e+00 185 162 121
1.116740e+00 2.096882e+00 3.755329e+00 18 71 167
1.696885e-01 2.130970e+00 3.182528e+00 238 234 226
1.658383e-01 2.131871e+00 3.188062e+00 238 234 226
8.374600e-01 2.138575e+00 3.674636e+00 30 18 24
8.383440e-01 2.138052e+00 3.672208e+00 30 18 24
1.970109e-01 2.170918e+00 3.132762e+00 97 102 132
1.244850e+00 1.811140e+00 3.600801e+00 23 20 58
1.225116e+00 1.846346e+00 3.639264e+00 185 144 116
9.758139e-01 1.863828e+00 3.443375e+00 80 47 19
6.584651e-01 1.850175e+00 3.513363e+00 150 135 129
7.510178e-01 1.867373e+00 3.491290e+00 167 134 21
6.306428e-01 1.882017e+00 3.443079e+00 94 69 45
8.541320e-01 1.905854e+00 3.481237e+00 35 20 22
6.620347e-01 1.894875e+00 3.544168e+00 146 129 109
8.182537e-01 1.935308e+00 3.532504e+00 157 136 115
1.256086e+00 1.985094e+00 3.677376e+00 5 24 81
1.164079e+00 2.024635e+00 3.785086e+00 52 58 23
1.068461e+00 2.077000e+00 3.780920e+00 228 214 203
1.376315e+00 2.143201e+00 3.175865e+00 12 8 13
8.735976e-01 2.097670e+00 3.667276e+00 237 215 112
7.633726e-01 2.141471e+00 3.423185e+00 24 27 29
9.880933e-01 2.155811e+00 3.730099e+00 29 63 141
1.103467e+00 2.192593e+00 3.382196e+00 214 217 228
1.805705e-01 2.207435e+00 3.114140e+00 238 233 221
1.799465e-01 2.209600e+00 3.089341e+00 238 233 221
3.675459e-01 2.220825e+00 3.246796e+00 249 236 227
1.042699e+00 2.267604e+00 3.112023e+00 244 232 98
1.042699e+00 2.267604e+00 3.112023e+00 244 232 98
9.824042e-01 2.346022e+00 3.143249e+00 165 116 42
9.259532e-01 2.212622e+00 5.195220e+00 218 218 193
2.399494e-01 2.463584e+00 2.793413e+00 43 6 0
1.013265e+00 1.733022e+00 3.595331e+00 54 35 38
1.331019e+00 1.905610e+00 3.424866e+00 240 232 224
1.063809e+00 1.867260e+00 3.704178e+00 25 26 16
6.961623e-01 1.900678e+00 3.547656e+00 23 12 28
1.370446e+00 1.944136e+00 3.386508e+00 228 215 203
1.296602e+00 1.939589e+00 3.410730e+00 218 212 196
1.398317e+00 1.971580e+00 3.392019e+00 224 207 197
1.398256e+00 1.974024e+00 3.366967e+00 224 207 197
1.286492e+00 1.974867e+00 3.517183e+00 200 202 220
1.394246e+00 2.004898e+00 3.314891e+00 111 104 88
1.393531e+00 2.004884e+00 3.316048e+00 111 104 88
7.768329e-01 1.961170e+00 3.563758e+00 63 51 37
1.393502e+00 2.036160e+00 3.279654e+00 229 208 189
1.427545e+00 2.037697e+00 3.261130e+00 119 103 99
1.032475e+00 1.985087e+00 3.794289e+00 8 16 69
1.033333e+00 1.983098e+00 3.798391e+00 8 16 69
1.100086e+00 2.006910e+00 3.653430e+00 158 144 95
8.294750e-01 2.025491e+00 3.612098e+00 167 151 150
1.097829e+00 2.019248e+00 3.802579e+00 3 17 39
1.034767e+00 2.039832e+00 3.844533e+00 158 144 119
1.395778e+00 2.112566e+00 3.195175e+00 219 217 223
1.345515e+00 2.144162e+00 3.054006e+00 204 194 191
1.446176e+00 2.155144e+00 3.146813e+00 166 134 130
1.151046e+00 2.109092e+00 3.733418e+00 9 57 151
8.895747e-01 2.161505e+00 3.647516e+00 174 71 37
1.042452e+00 2.152702e+00 3.884410e+00 192 194 229
4.155876e-01 2.155435e+00 3.609508e+00 245 235 219
4.155876e-01 2.155435e+00 3.609508e+00 245 235 219
3.935127e-01 2.176099e+00 3.438774e+00 152 127 90
3.928110e-01 2.178378e+00 3.452924e+00 152 127 90
1.003902e+00 2.277463e+00 3.095731e+00 241 223 109
4.313171e-01 2.469159e+00 2.780875e+00 73 70 50
1.155196e+00 1.798784e+00 3.635471e+00 43 10 3
9.793599e-01 1.737055e+00 4.310037e+00 78 48 14
1.201352e+00 1.832135e+00 3.638929e+00 182 156 137
8.433033e-01 1.837433e+00 3.431648e+00 149 104 40
1.277667e+00 1.858449e+00 3.564414e+00 142 101 54
1.062996e+00 1.844640e+00 3.691798e+00 165 140 121
6.974623e-01 1.853481e+00 3.498579e+00 22 34 46
6.987657e-01 1.854841e+00 3.495867e+00 22 34 46
8.006736e-01 1.874466e+00 3.477844e+00 153 130 31
1.352945e+00 1.927719e+00 3.384236e+00 71 60 47
1.029448e+00 1.887333e+00 3.731889e+00 15 22 58
7.238042e-01 1.895595e+00 3.524560e+00 157 137 57
1.324615e+00 1.934864e+00 3.383138e+00 56 46 44
1.324255e+00 1.934239e+00 3.387188e+00 56 46 44
1.398180e+00 1.940901e+00 3.387431e+00 123 94 44
1.231292e+00 1.933201e+00 3.707427e+00 5 8 53
6.470395e-01 1.930242e+00 3.579919e+00 146 126 120
1.231290e+00 1.964657e+00 3.722396e+00 179 170 177
1.116094e+00 1.966652e+00 3.757119e+00 45 46 60
7.825603e-01 1.986831e+00 3.574356e+00 169 152 141
7.275299e-01 1.992586e+00 3.599227e+00 74 42 41
7.276301e-01 1.992577e+00 3.599364e+00 74 42 41
1.247607e+00 2.007922e+00 3.741652e+00 180 169 171
6.717846e-01 2.014592e+00 3.506830e+00 100 95 86
6.356245e-01 2.005695e+00 3.648154e+00 28 11 21
7.207133e-01 2.014475e+00 3.625393e+00 143 123 127
1.508799e+00 2.102528e+00 3.191619e+00 206 188 163
1.285868e+00 2.067594e+00 3.625207e+00 117 83 82
9.172173e-01 2.086500e+00 3.343260e+00 56 7 0
1.112200e+00 2.071139e+00 3.792759e+00 33 58 92
9.764807e-01 2.086990e+00 3.571438e+00 70 41 35
1.405632e+00 2.163316e+00 3.155149e+00 192 161 146
1.241401e+00 2.129612e+00 3.515017e+00 19 21 66
1.378502e+00 2.188963e+00 3.135566e+00 74 50 32
1.377904e+00 2.188165e+00 3.146201e+00 74 50 32
9.737713e-01 2.142025e+00 4.039436e+00 37 51 99
8.518504e-01 2.138232e+00 4.105224e+00 180 144 115
2.626321e-01 2.212556e+00 3.079250e+00 48 49 71
1.138881e+00 2.243463e+00 3.273884e+00 38 38 6
1.077109e+00 2.263785e+00 3.277414e+00 131 100 33
9.484653e-01 2.256691e+00 3.734426e+00 192 182 143
3.766019e-01 2.321552e+00 3.034123e+00 153 117 51
9.263987e-01 2.421018e+00 3.363724e+00 141 113 57
8.687077e-01 2.358421e+00 4.347333e+00 227 222 214
4.372267e-01 2.447554e+00 2.787295e+00 166 129 54
1.232440e+00 1.753550e+00 3.553313e+00 34 9 1
1.251429e+00 1.785160e+00 3.572468e+00 30 25 39
1.060036e+00 1.777791e+00 3.636214e+00 174 137 113
1.086307e+00 1.798241e+00 3.530808e+00 167 143 116
1.209151e+00 1.799302e+00 3.613895e+00 123 111 113
1.197311e+00 1.813750e+00 3.631081e+00 37 8 5
1.269446e+00 1.857832e+00 3.320626e+00 141 110 78
1.083841e+00 1.835619e+00 3.681869e+00 89 72 64
1.027973e+00 1.835351e+00 3.685896e+00 31 11 12
6.379370e-01 1.842499e+00 3.514342e+00 90 56 28
1.253778e+00 1.891646e+00 3.261235e+00 32 25 40
1.350716e+00 1.926637e+00 2.982143e+00 116 92 46
1.041558e+00 1.858008e+00 3.699330e+00 20 9 10
6.513751e-01 1.859944e+00 3.537480e+00 160 143 133
8.469218e-01 1.879587e+00 3.464757e+00 129 118 74
7.222618e-01 1.876640e+00 3.518369e+00 54 42 8
7.218475e-01 1.875695e+00 3.517826e+00 54 42 8
1.063610e+00 1.877044e+00 3.711984e+00 34 23 33
7.875827e-01 1.889310e+00 3.512491e+00 129 73 0
1.057937e+00 1.896584e+00 3.732623e+00 139 121 128
7.304140e-01 1.915941e+00 3.532018e+00 27 12 1
7.547310e-01 1.919847e+00 3.530253e+00 167 141 132
7.545756e-01 1.919273e+00 3.529724e+00 167 141 132
6.343948e-01 1.951863e+00 3.303858e+00 95 72 51
1.067537e+00 1.931375e+00 3.755078e+00 179 177 188
1.221072e+00 1.944743e+00 3.707954e+00 160 148 160
1.089751e+00 1.936207e+00 3.753996e+00 79 57 61
1.089837e+00 1.935795e+00 3.754618e+00 79 57 61
1.164770e+00 1.960026e+00 3.751397e+00 185 172 163
1.131149e+00 1.955418e+00 3.759767e+00 170 167 167
6.250354e-01 1.960324e+00 3.522650e+00 95 69 42
6.477363e-01 1.961459e+00 3.612352e+00 157 133 119
1.040285e+00 1.964792e+00 3.783654e+00 135 108 138
9.730477e-01 2.002227e+00 3.548367e+00 55 38 40
6.539933e-01 1.981402e+00 3.626642e+00 26 28 4
1.473611e+00 2.055675e+00 3.234108e+00 218 201 177
1.470905e+00 2.050924e+00 3.265310e+00 218 201 177
7.273992e-01 2.112407e+00 2.437788e+00 118 101 107
1.365312e+00 2.058721e+00 3.385209e+00 218 217 219
1.043424e+00 2.011126e+00 3.810379e+00 12 17 33
7.116482e-01 2.030465e+00 3.634967e+00 35 8 24
6.874275e-01 2.026120e+00 3.641318e+00 21 2 14
7.343403e-01 2.033635e+00 3.633404e+00 35 16 20
9.439818e-01 2.105727e+00 3.332621e+00 144 63 33
1.267490e+00 2.103914e+00 3.545948e+00 63 28 55
1.326015e+00 2.126522e+00 3.300866e+00 128 87 110
9.605583e-01 2.111651e+00 3.411516e+00 220 191 148
9.582792e-01 2.107805e+00 3.474139e+00 220 191 148
6.663195e-01 2.086162e+00 3.694261e+00 28 16 24
6.915918e-01 2.102277e+00 3.702142e+00 105 85 88
3.683390e-01 2.130408e+00 3.159885e+00 138 109 77
1.346009e+00 2.149820e+00 3.337148e+00 70 38 56
9.246041e-01 2.136601e+00 3.292519e+00 150 81 34
1.386005e+00 2.085088e+00 4.242990e+00 201 174 171
7.873657e-01 2.121803e+00 3.630314e+00 98 89 97
1.247633e+00 2.275488e+00 1.879293e+00 140 116 155
1.042147e+00 2.125510e+00 3.710201e+00 217 215 245
1.042147e+00 2.125510e+00 3.710201e+00 217 215 245
6.586793e-01 2.111027e+00 3.725373e+00 11 3 10
7.892212e-01 2.135756e+00 3.701034e+00 17 9 17
9.453149e-01 2.241659e+00 2.554290e+00 241 163 113
1.283896e+00 2.212735e+00 3.178003e+00 73 67 19
2.539049e-01 2.181487e+00 3.124150e+00 219 219 221
8.231029e-01 2.162548e+00 3.674605e+00 157 150 129
9.543557e-01 2.164301e+00 3.798932e+00 213 152 119
9.605763e-01 2.203390e+00 3.270842e+00 213 152 119
8.306616e-01 2.308420e+00 2.033486e+00 173 171 132
8.306616e-01 2.308420e+00 2.033486e+00 173 171 132
9.373663e-01 2.289148e+00 3.612030e+00 167 164 131
8.437329e-01 2.444957e+00 3.211505e+00 218 225 213
2.184225e-01 2.711290e+00 2.585840e+00 69 29 9
2.326310e-01 2.734957e+00 2.440243e+00 149 125 83
7.877737e-01 1.845106e+00 3.465610e+00 23 44 60
7.876800e-01 1.844638e+00 3.465590e+00 23 44 60
1.166535e+00 1.761651e+00 3.577712e+00 29 11 19
8.464865e-01 1.984179e+00 3.492355e+00 119 106 94
7.704855e-01 2.041437e+00 3.586023e+00 26 2 6
1.309619e+00 1.867289e+00 3.439663e+00 172 120 52
1.112836e+00 1.991516e+00 3.780032e+00 158 162 69
8.715911e-01 2.187926e+00 3.784891e+00 135 128 93
8.137999e-01 2.429669e+00 3.461068e+00 211 216 198
7.819229e-01 2.434257e+00 3.459366e+00 214 217 204
6.936668e-01 1.919641e+00 3.555969e+00 150 129 135
1.340721e+00 2.070099e+00 3.371441e+00 214 203 196
4.842563e-01 2.174649e+00 3.759122e+00 161 154 121
4.842563e-01 2.174649e+00 3.759122e+00 161 154 121
8.453109e-01 2.104489e+00 3.545788e+00 22 23 33
3.094647e-01 2.223657e+00 3.094445e+00 223 204 195
6.754334e-01 1.821606e+00 3.492803e+00 28 40 81
6.760771e-01 1.819251e+00 3.485309e+00 28 40 81
9.809190e-01 2.082461e+00 3.461460e+00 74 43 31
8.469355e-01 2.160632e+00 3.615577e+00 26 1 2
5.970220e-01 2.212703e+00 3.768055e+00 224 212 187
1.043180e+00 1.713544e+00 3.597802e+00 141 95 57
7.738897e-01 1.872475e+00 3.492220e+00 175 130 38
1.009398e+00 1.865158e+00 3.667785e+00 142 119 101
8.555753e-01 1.894783e+00 3.460349e+00 19 6 0
6.999611e-01 1.933692e+00 3.573617e+00 81 56 53
6.215593e-01 1.950364e+00 3.612991e+00 87 53 34
1.473991e+00 2.038550e+00 3.245447e+00 158 121 74
1.196848e+00 2.143733e+00 3.671685e+00 197 208 238
1.117041e+00 1.967306e+00 3.764120e+00 46 60 82
7.278716e-01 1.992925e+00 3.612442e+00 55 33 12
1.209315e+00 1.800640e+00 3.625556e+00 126 110 121
1.218415e+00 2.013306e+00 3.758213e+00 148 143 116
1.218789e+00 2.011009e+00 3.747688e+00 148 143 116
1.157874e+00 1.781204e+00 3.623912e+00 96 80 94
1.157874e+00 1.781204e+00 3.623912e+00 96 80 94
7.930319e-01 2.096774e+00 3.623621e+00 73 28 29
1.252862e+00 1.820715e+00 3.612554e+00 21 20 50
1.057758e+00 1.898111e+00 3.729983e+00 135 124 121
1.139032e-01 2.758397e+00 2.446290e+00 80 31 25
9.791003e-01 2.127728e+00 3.278759e+00 220 198 87
7.044078e-01 1.995693e+00 3.612050e+00 56 40 1
1.218897e+00 1.747033e+00 3.563696e+00 39 6 1
1.040515e+00 1.751611e+00 3.625736e+00 125 98 90
8.145121e-01 1.926986e+00 3.505996e+00 176 143 127
1.014750e+00 1.959148e+00 3.747025e+00 151 136 130
9.616659e-01 2.071636e+00 3.330156e+00 85 3 2
1.212580e+00 2.010615e+00 3.765859e+00 160 144 125
6.675377e-01 2.060898e+00 3.681903e+00 43 2 5
1.520307e-01 2.764247e+00 2.384786e+00 147 112 73
5.483690e-01 2.225191e+00 3.086319e+00 253 238 219
7.886388e-01 2.009686e+00 3.592582e+00 127 110 93
3.664705e-01 2.191598e+00 3.102110e+00 201 192 185
3.643034e-01 2.198745e+00 3.089209e+00 201 192 185
1.069337e+00 2.118666e+00 3.716885e+00 127 118 117
9.936494e-01 2.141345e+00 3.642025e+00 33 32 90
8.399854e-01 2.149597e+00 3.632926e+00 25 23 36
6.230390e-01 1.892567e+00 3.413565e+00 93 59 48
1.248467e+00 1.938763e+00 3.655499e+00 6 27 106
9.411243e-01 2.240620e+00 3.131789e+00 197 85 45
1.374165e+00 1.943705e+00 3.396262e+00 221 201 196
5.922693e-01 2.138299e+00 3.148341e+00 242 230 206
9.775451e-01 2.105042e+00 3.331201e+00 236 198 110
5.966398e-01 2.310304e+00 3.009804e+00 254 239 221
1.289875e+00 1.863578e+00 3.426171e+00 144 109 66
1.199001e+00 1.980729e+00 3.791957e+00 141 137 55
1.129666e+00 2.143135e+00 3.686579e+00 178 173 203
1.011934e+00 1.846340e+00 3.643748e+00 144 123 111
1.150696e+00 1.964444e+00 3.754147e+00 185 168 159
6.381352e-01 2.037697e+00 3.646580e+00 23 19 29
5.721323e-01 2.185111e+00 3.795921e+00 97 81 35
1.222553e+00 1.730271e+00 3.569141e+00 136 92 38
1.178729e+00 1.781925e+00 3.610583e+00 5 2 29
6.349177e-01 1.854783e+00 3.530471e+00 83 57 44
1.206412e+00 1.854589e+00 3.675138e+00 79 58 37
1.446003e+00 2.000129e+00 3.340741e+00 214 189 160
1.446003e+00 2.000129e+00 3.340741e+00 214 189 160
6.418804e-01 1.911847e+00 3.562901e+00 50 18 18
6.922954e-01 1.950353e+00 3.570712e+00 157 140 114
6.922954e-01 1.950353e+00 3.570712e+00 157 140 114
1.395403e+00 2.096010e+00 3.256351e+00 209 209 208
7.272436e-01 1.960962e+00 3.585282e+00 83 64 67
7.101571e-01 1.965276e+00 3.573207e+00 76 58 53
1.344751e+00 2.128770e+00 3.251589e+00 206 196 186
8.841444e-01 2.085520e+00 3.335327e+00 36 16 4
1.059875e+00 1.950852e+00 3.754067e+00 53 57 87
6.434302e-01 1.999814e+00 3.602337e+00 152 141 133
1.190377e+00 1.978452e+00 3.752113e+00 85 70 61
1.160406e+00 1.976453e+00 3.758461e+00 45 41 14
1.026960e+00 1.977676e+00 3.775054e+00 25 17 66
1.194301e+00 1.993423e+00 3.753928e+00 160 153 60
1.212529e+00 2.012578e+00 3.764959e+00 159 148 137
5.079582e-01 2.341024e+00 2.985579e+00 163 121 49
1.010977e+00 2.146211e+00 3.668724e+00 113 132 183
6.614210e-01 1.860764e+00 3.473316e+00 158 128 123
8.442366e-01 2.134782e+00 3.661696e+00 20 18 31
8.427300e-01 2.045324e+00 3.613234e+00 18 20 39
8.441503e-01 2.052616e+00 3.594123e+00 18 20 39
9.437041e-01 2.078619e+00 3.734021e+00 173 144 82
8.316833e-01 2.023732e+00 3.591439e+00 176 151 138
8.756308e-01 2.160144e+00 3.716484e+00 72 47 12
8.135478e-01 1.915957e+00 3.531201e+00 170 148 134
5.053990e-01 2.119326e+00 3.822356e+00 161 155 126
6.724192e-01 1.833617e+00 3.522949e+00 143 116 120
6.792431e-01 1.864497e+00 3.506390e+00 141 127 126
6.005448e-01 1.872206e+00 3.502610e+00 93 57 46
6.005448e-01 1.872206e+00 3.502610e+00 93 57 46
8.022886e-01 1.939783e+00 3.532099e+00 163 139 130
6.807207e-01 2.087011e+00 3.680304e+00 15 12 20
7.739738e-01 2.100729e+00 3.661294e+00 1 3 15
1.002948e+00 2.073111e+00 3.787587e+00 19 26 71
6.979054e-01 2.135226e+00 3.705650e+00 109 88 46
6.767927e-01 2.331429e+00 3.752302e+00 217 213 167
1.346692e+00 2.046832e+00 3.498219e+00 207 193 187
1.218670e+00 2.192881e+00 3.345332e+00 131 71 86
6.535597e-01 2.046586e+00 3.586612e+00 62 21 13
1.072386e+00 1.808747e+00 3.684900e+00 142 109 66
7.752911e-01 2.007187e+00 3.581351e+00 120 92 77
1.237976e+00 2.049987e+00 3.688316e+00 146 142 94
1.402767e+00 1.981653e+00 3.357659e+00 204 191 182
3.648821e-01 2.190517e+00 3.557926e+00 150 146 113
3.648821e-01 2.190517e+00 3.557926e+00 150 146 113
1.394098e+00 1.967723e+00 3.413116e+00 205 189 174
1.111256e+00 2.227311e+00 3.180398e+00 245 222 114
1.119993e+00 2.233693e+00 3.270217e+00 245 222 114
9.501208e-01 2.284357e+00 3.632134e+00 190 155 117
3.849121e-01 2.207239e+00 3.553407e+00 204 200 168
1.250012e+00 1.789697e+00 3.610414e+00 25 25 49
1.205507e+00 1.910848e+00 3.678769e+00 143 119 112
1.274182e+00 1.910990e+00 3.503836e+00 24 1 1
1.233146e+00 1.932745e+00 3.715510e+00 6 1 22
6.241737e-01 1.995487e+00 3.582688e+00 31 13 3
6.050222e-01 2.004569e+00 3.580538e+00 144 106 49
1.465042e+00 2.163155e+00 3.029021e+00 90 59 27
1.435468e+00 2.165876e+00 2.995532e+00 67 33 11
2.505375e-01 2.152519e+00 3.201206e+00 225 215 213
1.339533e+00 1.683106e+00 3.663143e+00 105 51 0
8.532475e-01 1.843303e+00 3.436720e+00 136 97 41
1.236376e+00 1.981777e+00 3.747499e+00 34 20 9
6.900392e-01 1.877567e+00 3.540524e+00 23 17 27
1.305932e+00 2.015606e+00 3.369091e+00 71 55 56
1.335219e+00 2.033142e+00 3.230754e+00 204 201 198
1.377426e+00 2.081486e+00 3.312052e+00 204 195 194
6.424251e-01 1.940452e+00 3.556711e+00 84 64 42
1.399779e+00 2.163487e+00 3.032697e+00 177 150 136
7.525849e-01 2.108415e+00 3.591448e+00 18 5 2
7.848213e-01 2.134973e+00 3.617327e+00 149 146 120
1.002351e+00 2.220147e+00 3.330873e+00 231 168 95
9.470544e-01 2.235478e+00 3.671198e+00 133 59 23
1.023596e+00 2.235323e+00 3.213181e+00 238 162 103
3.411590e-01 2.152996e+00 3.480113e+00 237 227 206
4.242216e-01 2.329405e+00 3.631385e+00 180 175 134
4.182639e-01 2.365253e+00 3.480599e+00 214 211 172
9.138661e-01 2.476917e+00 2.896494e+00 160 132 67
9.395517e-01 2.498784e+00 3.009480e+00 40 39 11
1.859720e+00 2.740101e+00 2.380957e+00 52 10 0
7.894523e-01 1.890735e+00 3.492183e+00 135 70 0
6.526540e-01 1.947329e+00 3.599116e+00 99 65 64
1.225730e+00 1.968305e+00 3.733191e+00 169 161 169
4.784416e-01 3.042945e+00 2.545822e+00 126 98 55
1.293277e+00 3.137576e+00 2.681791e+00 199 180 173
3.289627e-01 3.105371e+00 2.752770e+00 175 170 150
9.681606e-01 1.974247e+00 3.330766e+00 55 21 1
4.480095e-01 3.125982e+00 2.740692e+00 14 11 14
1.129929e+00 1.727097e+00 3.581920e+00 33 10 0
1.122950e+00 1.765454e+00 3.611223e+00 5 4 16
1.123158e+00 1.766257e+00 3.610936e+00 5 4 16
1.085948e+00 1.781499e+00 3.637482e+00 172 137 117
6.640228e-01 1.963049e+00 3.599225e+00 146 139 119
1.097977e+00 1.951233e+00 3.759094e+00 184 173 170
8.250931e-01 2.090577e+00 3.641472e+00 26 9 18
8.187308e-01 2.127926e+00 3.679498e+00 53 51 62
1.554166e+00 3.209949e+00 2.690457e+00 131 120 106
1.223602e+00 1.784706e+00 3.587539e+00 43 37 47
1.351478e+00 2.038393e+00 3.287636e+00 130 118 107
1.351478e+00 2.038393e+00 3.287636e+00 130 118 107
9.267072e-01 2.222760e+00 3.415159e+00 176 142 83
2.170913e-01 2.560454e+00 2.664924e+00 79 32 14
2.170913e-01 2.560454e+00 2.664924e+00 79 32 14
1.006141e+00 1.738887e+00 3.576875e+00 78 44 28
1.330206e+00 2.068047e+00 3.303061e+00 208 195 176
1.678631e-01 2.695085e+00 2.555072e+00 146 118 63
1.021603e+00 2.046661e+00 3.386920e+00 152 126 109
5.821571e-01 3.115368e+00 2.747870e+00 191 180 156
5.212380e-01 3.103841e+00 2.773854e+00 7 12 44
1.247976e+00 1.984608e+00 3.732656e+00 5 24 95
1.232609e+00 2.063216e+00 3.765188e+00 179 160 111
3.782237e-01 3.115728e+00 2.750797e+00 7 8 35
4.487044e-01 3.151660e+00 2.770736e+00 180 167 171
1.288186e+00 1.859087e+00 3.436073e+00 142 108 61
1.300169e+00 1.935337e+00 3.416790e+00 208 187 170
1.366776e+00 2.125422e+00 3.240239e+00 11 4 0
1.067387e+00 1.810164e+00 3.664284e+00 175 131 89
9.254354e-01 2.069765e+00 3.357452e+00 65 1 0
1.273829e+00 1.979668e+00 3.737534e+00 166 130 93
6.085024e-01 2.336566e+00 2.951661e+00 255 239 218
1.779477e+00 3.019838e+00 2.693851e+00 167 145 95
4.781242e-01 3.152213e+00 2.764083e+00 182 167 164
1.020683e+00 1.642595e+00 3.654750e+00 107 46 0
1.188586e+00 1.746089e+00 3.564755e+00 27 6 1
1.144594e+00 1.738569e+00 3.586727e+00 139 129 116
1.026695e+00 1.750329e+00 3.616879e+00 29 17 25
1.057264e+00 1.761247e+00 3.629039e+00 41 3 1
1.170171e+00 1.811096e+00 3.637934e+00 173 144 132
1.206508e+00 1.857344e+00 3.670943e+00 87 53 36
1.081809e+00 1.850708e+00 3.693434e+00 176 154 133
1.198001e+00 1.869108e+00 3.683203e+00 168 150 136
1.301783e+00 2.006950e+00 3.377918e+00 201 202 205
1.141356e+00 1.868975e+00 3.691085e+00 168 151 137
1.099008e+00 1.887480e+00 3.718919e+00 187 169 154
1.099202e+00 1.888679e+00 3.718304e+00 187 169 154
9.297251e-01 2.059670e+00 3.340903e+00 97 39 28
9.285989e-01 2.047404e+00 3.367412e+00 97 39 28
1.160563e+00 1.927577e+00 3.723820e+00 187 166 151
8.189521e-01 1.995871e+00 3.569600e+00 160 137 113
1.383583e-01 2.136399e+00 3.180446e+00 146 108 54
1.026613e+00 2.021449e+00 3.832863e+00 156 139 128
1.005395e+00 2.057089e+00 3.784172e+00 123 114 137
1.698726e+00 3.263489e+00 2.838073e+00 140 128 114
1.698726e+00 3.263489e+00 2.838073e+00 140 128 114
1.709661e+00 3.268768e+00 2.851520e+00 188 177 168
3.277300e-01 3.092580e+00 2.771066e+00 176 169 153
1.063485e+00 1.866218e+00 3.706381e+00 30 23 29
1.072680e+00 1.721391e+00 3.591034e+00 20 8 13
1.073777e+00 1.725294e+00 3.590363e+00 20 8 13
1.157405e+00 1.734833e+00 3.578623e+00 52 19 3
1.184531e+00 1.797342e+00 3.617945e+00 153 121 114
1.068229e+00 1.834851e+00 3.683510e+00 167 137 108
1.014446e+00 1.870956e+00 3.660420e+00 150 133 118
1.178940e+00 1.902671e+00 3.704145e+00 189 157 160
1.178940e+00 1.902671e+00 3.704145e+00 189 157 160
1.087707e+00 1.903784e+00 3.731948e+00 184 168 158
1.087696e+00 1.903775e+00 3.732068e+00 184 168 158
1.190497e+00 1.944453e+00 3.727210e+00 184 163 159
1.190497e+00 1.944453e+00 3.727210e+00 184 163 159
1.156736e+00 1.943248e+00 3.741949e+00 130 106 88
1.114597e+00 1.974512e+00 3.778606e+00 64 63 60
1.224724e+00 1.999662e+00 3.741189e+00 117 124 95
1.223258e+00 2.006315e+00 3.756909e+00 61 52 40
7.265520e-01 2.055256e+00 3.641261e+00 79 1 0
7.584450e-01 2.071818e+00 3.651709e+00 54 12 0
1.221450e+00 2.028539e+00 3.780718e+00 186 173 129
7.026225e-01 2.125440e+00 3.705145e+00 15 4 3
7.005859e-01 2.116539e+00 3.712586e+00 15 4 3
7.898318e-01 2.132755e+00 3.691603e+00 10 6 3
1.554285e+00 3.198162e+00 2.714768e+00 137 124 108
1.528198e+00 3.229542e+00 2.750973e+00 140 126 112
1.348139e+00 2.038429e+00 3.478354e+00 207 193 187
1.003208e+00 2.252739e+00 3.149163e+00 194 66 27
1.031063e+00 2.037262e+00 3.806191e+00 133 140 71
8.342915e-01 2.209202e+00 3.725816e+00 122 118 67
1.118272e+00 1.968250e+00 3.766205e+00 47 34 57
1.099493e+00 2.064491e+00 3.806957e+00 99 40 50
1.173187e+00 2.099061e+00 3.749636e+00 12 39 103
1.216434e+00 2.117456e+00 3.685503e+00 179 177 142
6.247722e-01 1.996420e+00 3.585236e+00 31 13 3
1.010251e+00 2.173701e+00 3.614116e+00 8 32 99
1.107771e+00 2.226732e+00 3.165700e+00 240 215 123
1.268003e+00 1.843056e+00 3.617856e+00 130 83 54
1.209063e+00 1.860512e+00 3.669496e+00 57 31 19
1.358701e+00 1.894761e+00 3.400740e+00 109 69 37
1.338059e+00 1.916956e+00 3.405236e+00 210 201 191
1.355629e+00 1.941125e+00 3.395610e+00 206 190 173
1.200509e+00 1.947812e+00 3.745108e+00 157 140 124
1.143500e+00 1.946894e+00 3.740571e+00 84 70 58
1.308583e+00 1.982828e+00 3.329713e+00 39 30 35
1.308583e+00 1.982828e+00 3.329713e+00 39 30 35
1.246425e+00 2.032336e+00 3.810217e+00 61 52 37
1.379729e+00 2.015517e+00 3.272499e+00 215 193 164
1.139477e+00 2.099171e+00 3.774265e+00 12 51 141
1.071590e+00 2.171250e+00 3.665346e+00 70 70 74
1.167786e+00 2.203483e+00 3.601522e+00 17 53 144
1.139918e+00 2.201555e+00 3.620889e+00 213 218 244
1.102546e+00 2.204831e+00 3.161515e+00 102 66 59
8.603185e-01 2.186424e+00 3.727744e+00 110 109 68
9.597779e-01 2.194056e+00 3.257321e+00 220 174 117
7.016831e-01 2.199729e+00 3.771567e+00 225 226 188
1.018710e+00 2.295181e+00 3.048544e+00 220 214 134
8.491580e-01 2.611537e+00 5.561471e+00 218 210 177
8.982877e-01 2.644599e+00 4.794038e+00 37 41 17
6.804608e-01 1.985476e+00 3.583863e+00 41 29 5
1.201624e+00 2.013502e+00 3.768441e+00 51 31 34
1.035570e+00 1.731016e+00 3.615832e+00 38 12 14
1.465377e+00 2.046937e+00 3.162925e+00 212 194 170
1.220323e+00 2.119849e+00 3.732090e+00 171 193 122
1.492697e+00 2.117574e+00 3.060426e+00 102 83 69
1.037049e+00 2.175736e+00 3.659556e+00 216 210 238
1.210264e+00 2.227346e+00 3.157101e+00 22 11 11
1.007927e+00 2.225569e+00 3.261726e+00 233 166 96
1.007927e+00 2.225569e+00 3.261726e+00 233 166 96
4.567252e-01 2.361233e+00 2.808554e+00 218 202 172
5.623929e-01 2.248397e+00 3.400832e+00 172 142 83
6.120243e-01 1.863180e+00 3.448518e+00 63 46 47
8.277788e-01 1.933894e+00 3.520517e+00 161 133 104
8.452718e-01 2.054262e+00 3.594599e+00 21 23 39
8.480591e-01 2.092775e+00 3.623389e+00 18 16 29
1.006420e+00 1.776113e+00 3.600034e+00 139 114 86
5.245573e-01 2.375542e+00 2.906525e+00 251 237 211
1.159323e+00 2.024776e+00 3.786810e+00 88 103 71
8.551192e-01 2.044587e+00 3.586162e+00 23 14 17
1.062847e+00 1.719833e+00 3.623012e+00 105 105 114
6.039604e-01 1.941162e+00 3.349720e+00 71 43 36
8.829243e-01 1.901712e+00 3.468272e+00 85 76 76
8.575452e-01 2.043730e+00 3.581791e+00 22 8 8
1.012278e+00 2.032056e+00 3.827039e+00 27 24 47
1.237431e+00 1.756466e+00 3.555751e+00 14 5 3
1.012494e+00 1.754082e+00 3.602216e+00 138 126 130
1.128676e+00 1.860440e+00 3.682998e+00 177 154 140
6.424791e-01 1.996495e+00 3.620545e+00 156 138 133
6.060971e-01 2.149163e+00 3.545251e+00 148 117 71
6.029096e-01 2.179715e+00 3.591884e+00 115 87 50
8.189677e-01 2.105019e+00 3.859991e+00 87 69 43
1.154437e+00 1.732413e+00 3.580954e+00 45 10 4
6.991974e-01 1.819194e+00 3.470892e+00 39 32 7
7.606924e-01 1.827843e+00 3.466925e+00 17 31 17
8.223230e-01 1.842186e+00 3.452186e+00 27 19 30
1.089807e+00 1.759823e+00 3.620528e+00 157 127 130
1.091325e+00 1.763451e+00 3.617905e+00 157 127 130
1.120401e+00 1.784919e+00 3.600714e+00 147 118 118
6.723251e-01 1.848755e+00 3.493097e+00 156 125 126
1.012899e+00 1.791157e+00 3.635007e+00 133 121 117
1.208050e+00 1.831057e+00 3.632829e+00 183 149 125
1.218395e+00 1.930395e+00 3.718829e+00 18 15 44
1.166563e+00 1.937434e+00 3.737669e+00 181 168 156
7.113804e-01 2.004354e+00 3.619521e+00 50 46 16
1.139045e+00 1.944411e+00 3.750798e+00 85 75 62
6.732926e-01 2.027423e+00 3.607381e+00 112 111 97
6.262918e-01 2.038855e+00 3.622401e+00 137 113 117
1.068633e+00 1.965159e+00 3.789235e+00 153 130 137
1.142567e+00 1.983660e+00 3.772113e+00 184 142 72
1.121423e+00 1.983482e+00 3.779195e+00 175 158 56
1.014977e+00 1.976535e+00 3.777810e+00 157 154 171
7.561842e-01 2.106355e+00 3.680445e+00 6 7 19
5.964803e-01 2.210373e+00 3.520369e+00 100 71 26
1.028492e+00 2.023409e+00 3.827865e+00 158 153 137
8.197749e-01 2.124859e+00 3.682360e+00 56 51 64
8.167807e-01 2.145642e+00 3.673171e+00 19 6 12
1.847607e+00 3.250965e+00 2.856829e+00 193 180 158
8.542908e-01 2.043267e+00 3.585125e+00 23 5 12
6.660819e-01 2.128576e+00 3.849515e+00 100 100 49
1.086917e+00 1.782445e+00 3.640351e+00 188 151 121
8.501398e-01 1.861081e+00 3.453739e+00 105 104 54
1.487008e+00 2.114636e+00 3.117315e+00 127 112 96
1.393106e+00 2.135561e+00 3.100137e+00 27 2 1
1.447350e+00 2.152509e+00 3.057022e+00 186 168 149
7.153547e-01 2.166804e+00 3.576469e+00 85 75 81
1.114789e+00 2.038460e+00 3.834532e+00 169 158 96
1.115821e+00 1.785722e+00 3.634361e+00 20 0 0
3.966012e-01 2.384109e+00 3.511974e+00 45 26 0
1.037898e+00 1.738144e+00 3.612375e+00 153 131 139
7.402287e-01 1.823552e+00 3.470491e+00 19 29 0
8.425524e-01 1.847420e+00 3.447887e+00 41 21 28
6.815764e-01 1.887373e+00 3.527443e+00 28 28 48
1.189095e+00 1.977048e+00 3.751747e+00 63 48 46
9.771760e-01 2.155086e+00 3.649009e+00 49 19 19
7.579781e-01 2.126627e+00 3.690217e+00 8 5 7
4.585231e-01 2.290585e+00 3.507306e+00 181 151 96
1.883455e+00 3.214617e+00 2.881096e+00 132 121 102
1.815244e+00 3.253595e+00 2.896785e+00 157 146 125
1.724322e+00 3.283914e+00 2.876394e+00 155 139 124
6.565335e-01 2.038259e+00 3.639788e+00 19 19 34
6.533727e-01 1.852681e+00 3.510736e+00 171 147 127
9.116363e-01 2.003642e+00 3.491292e+00 177 136 83
8.481026e-01 2.055457e+00 3.590698e+00 27 28 48
1.035165e+00 1.991933e+00 3.785271e+00 5 36 126
9.952112e-01 1.757733e+00 3.569452e+00 28 25 44
9.572398e-01 1.880056e+00 3.425115e+00 110 68 26
7.235501e-01 1.896641e+00 3.522416e+00 164 150 11
1.011950e+00 1.833085e+00 3.664918e+00 170 143 121
1.224122e+00 1.859737e+00 3.656637e+00 190 160 118
1.011255e+00 1.857666e+00 3.685786e+00 167 144 121
1.007184e+00 1.900128e+00 3.736255e+00 172 147 116
6.310623e-01 1.860622e+00 3.504442e+00 65 50 59
6.283053e-01 1.959245e+00 3.570678e+00 53 35 66
6.216294e-01 2.019434e+00 3.505065e+00 61 55 62
6.477611e-01 1.969054e+00 3.600559e+00 167 141 133
6.245914e-01 2.094043e+00 3.540542e+00 55 26 35
7.880527e-01 2.060325e+00 3.623697e+00 141 63 18
9.726321e-01 2.096730e+00 3.619475e+00 40 33 34
6.323143e-01 1.815419e+00 3.479856e+00 22 27 45
7.685882e-01 1.859310e+00 3.509788e+00 189 150 21
1.071542e+00 1.856574e+00 3.697400e+00 24 16 11
8.590045e-01 2.019116e+00 3.565663e+00 110 95 76
8.590045e-01 2.019116e+00 3.565663e+00 110 95 76
1.014177e+00 1.926528e+00 3.742946e+00 164 145 135
6.854420e-01 2.049324e+00 3.654425e+00 144 84 54
6.200381e-01 2.088286e+00 3.618742e+00 55 27 24
1.010705e+00 1.996737e+00 3.778728e+00 0 5 62
1.089193e+00 2.000159e+00 3.809362e+00 21 23 50
1.147005e+00 1.742339e+00 3.583230e+00 160 144 134
9.917375e-01 1.771065e+00 3.542816e+00 25 12 12
1.185341e+00 1.757423e+00 3.582984e+00 118 106 107
1.185341e+00 1.757423e+00 3.582984e+00 118 106 107
1.128914e+00 1.753502e+00 3.604557e+00 163 150 167
6.547448e-01 1.831076e+00 3.496095e+00 45 47 55
1.158536e+00 1.768229e+00 3.606732e+00 30 23 25
6.436286e-01 1.880826e+00 3.527183e+00 47 29 30
6.436286e-01 1.880826e+00 3.527183e+00 47 29 30
1.111420e+00 1.811167e+00 3.651022e+00 194 157 116
6.244377e-01 1.923982e+00 3.489845e+00 64 56 54
8.025647e-01 1.916470e+00 3.516113e+00 180 159 144
6.366400e-01 1.900068e+00 3.535969e+00 81 72 64
7.904258e-01 1.954608e+00 3.550147e+00 131 115 106
8.020704e-01 1.960379e+00 3.551169e+00 142 125 115
6.207202e-01 1.989698e+00 3.520169e+00 126 91 86
1.015542e+00 1.896325e+00 3.717882e+00 161 140 124
8.055781e-01 2.062391e+00 3.627735e+00 73 10 0
6.168544e-01 2.085664e+00 3.588287e+00 149 90 61
6.182149e-01 2.087270e+00 3.585697e+00 149 90 61
1.083626e+00 1.964927e+00 3.779751e+00 151 135 146
1.083626e+00 1.964927e+00 3.779751e+00 151 135 146
7.618772e-01 2.076506e+00 3.649170e+00 88 13 2
1.025731e+00 2.001111e+00 3.819231e+00 141 155 174
1.120959e+00 2.016074e+00 3.812022e+00 72 59 10
6.198268e-01 2.256409e+00 3.482043e+00 134 106 63
6.264686e-01 2.139744e+00 3.704662e+00 119 93 41
7.675187e-01 2.071580e+00 3.866799e+00 88 66 19
1.815628e+00 3.188730e+00 2.904126e+00 152 137 118
6.587511e-01 2.121372e+00 3.861155e+00 100 100 49
6.739419e-01 2.123054e+00 3.710787e+00 11 2 3
1.551107e+00 3.197527e+00 2.717079e+00 137 124 108
1.641256e+00 3.224732e+00 2.768342e+00 157 142 123
4.863322e-01 2.306404e+00 3.481173e+00 121 86 22
5.993101e-01 2.265069e+00 3.501107e+00 38 12 0
1.031800e+00 2.022551e+00 3.845386e+00 178 157 59
1.144549e+00 1.852248e+00 3.678524e+00 73 61 54
1.083571e+00 1.986702e+00 3.794706e+00 199 168 106
1.011144e+00 1.885834e+00 3.671088e+00 102 77 69
6.943849e-01 1.990567e+00 3.608406e+00 9 16 0
9.823789e-01 2.049583e+00 3.675656e+00 148 128 134
6.860980e-01 2.089802e+00 3.673674e+00 28 13 15
1.831092e+00 3.216575e+00 2.874730e+00 152 137 118
9.271808e-01 1.899891e+00 3.505414e+00 27 22 19
1.205115e+00 1.780426e+00 3.581286e+00 58 49 55
1.005370e+00 1.855960e+00 3.596390e+00 152 128 112
5.467477e-01 2.072588e+00 3.319167e+00 252 246 224
1.008656e+00 1.982674e+00 3.696290e+00 166 145 117
6.081018e-01 1.859380e+00 3.457905e+00 25 36 63
6.279121e-01 1.973566e+00 3.520396e+00 94 57 34
1.044652e+00 1.876659e+00 3.712834e+00 130 128 154
1.045444e+00 1.876636e+00 3.710775e+00 130 128 154
5.146298e-01 2.305005e+00 3.508455e+00 129 92 17
1.238320e+00 1.824251e+00 3.607582e+00 107 99 116
9.719441e-01 1.939263e+00 3.543854e+00 19 17 18
1.039199e+00 1.920964e+00 3.747537e+00 0 36 118
6.200765e-01 2.054694e+00 3.555679e+00 49 16 3
1.040174e+00 1.942321e+00 3.759217e+00 0 34 116
8.121188e-01 2.078364e+00 3.614255e+00 167 84 43
1.154998e+00 2.013792e+00 3.789592e+00 80 96 36
2.222224e+00 3.025974e+00 2.767976e+00 199 187 163
1.153125e+00 1.817222e+00 3.652085e+00 196 170 130
6.569002e-01 1.892435e+00 3.540513e+00 197 174 144
9.948120e-01 2.069898e+00 3.721724e+00 100 83 86
9.854059e-01 2.107311e+00 3.703798e+00 4 26 92
8.870657e-01 2.188904e+00 3.693256e+00 109 81 40
8.870657e-01 2.188904e+00 3.693256e+00 109 81 40
2.216539e+00 2.971057e+00 2.755047e+00 50 36 5
1.088577e+00 1.745927e+00 3.588411e+00 97 84 78
1.245457e+00 1.811413e+00 3.603101e+00 23 39 112
5.995004e-01 1.913500e+00 3.417417e+00 181 165 139
7.610464e-01 1.936015e+00 3.546870e+00 167 152 125
1.214859e+00 1.877455e+00 3.670072e+00 206 176 140
6.483246e-01 1.969726e+00 3.600652e+00 172 147 146
1.015342e+00 1.950990e+00 3.754908e+00 174 168 143
9.965351e-01 2.078106e+00 3.754254e+00 0 7 86
2.240917e+00 2.896854e+00 2.737508e+00 159 143 83
1.234104e+00 1.754516e+00 3.563848e+00 20 3 3
9.733508e-01 1.861279e+00 3.439795e+00 31 26 19
6.385455e-01 1.916072e+00 3.555660e+00 35 26 42
7.243699e-01 1.968856e+00 3.569948e+00 122 92 92
1.122829e+00 1.912033e+00 3.739087e+00 209 186 161
6.265758e-01 2.040441e+00 3.624208e+00 175 148 142
1.036731e+00 1.955996e+00 3.789431e+00 155 124 143
9.876806e-01 2.051530e+00 3.699217e+00 2 12 54
1.011044e+00 2.060656e+00 3.762476e+00 136 125 129
2.329150e+00 2.853545e+00 2.739066e+00 54 22 0
4.506953e-01 2.273838e+00 3.619583e+00 160 157 129
1.219168e+00 1.760046e+00 3.580691e+00 101 89 91
5.880025e-01 1.956787e+00 3.306724e+00 40 26 30
1.130314e+00 1.801786e+00 3.636448e+00 202 170 156
6.273555e-01 1.910215e+00 3.521881e+00 151 147 128
8.720307e-01 1.934639e+00 3.508000e+00 55 1 1
6.273370e-01 1.925485e+00 3.533669e+00 157 136 125
1.024518e+00 1.877183e+00 3.717768e+00 13 34 69
6.260031e-01 1.981508e+00 3.571494e+00 167 151 142
6.260031e-01 1.981508e+00 3.571494e+00 167 151 142
6.168797e-01 2.013174e+00 3.542179e+00 87 104 130
6.241440e-01 2.025856e+00 3.594777e+00 109 91 77
6.239568e-01 2.024908e+00 3.594336e+00 109 91 77
1.128565e+00 1.948918e+00 3.766795e+00 208 189 173
6.063218e-01 2.078826e+00 3.532138e+00 146 125 89
1.042010e+00 2.001172e+00 3.817379e+00 16 24 40
7.447675e-01 2.098604e+00 3.672355e+00 90 86 102
7.447675e-01 2.098604e+00 3.672355e+00 90 86 102
9.747217e-01 2.133846e+00 3.637110e+00 24 16 3
1.011848e+00 2.042149e+00 3.787882e+00 133 127 146
2.245178e+00 2.940766e+00 2.775531e+00 191 170 102
6.202240e-01 1.808392e+00 3.469796e+00 134 99 46
9.806240e-01 1.832684e+00 3.515102e+00 157 137 125
1.011557e+00 1.803342e+00 3.606739e+00 134 102 86
6.942391e-01 1.867467e+00 3.514162e+00 124 126 83
9.811003e-01 1.859714e+00 3.531548e+00 157 135 119
9.800247e-01 1.899219e+00 3.561748e+00 167 142 117
6.256154e-01 1.951910e+00 3.551209e+00 121 90 68
9.752367e-01 1.965747e+00 3.595661e+00 18 21 57
6.317111e-01 1.967662e+00 3.590539e+00 60 57 71
7.895196e-01 1.997180e+00 3.580245e+00 190 173 146
6.260424e-01 1.998757e+00 3.581129e+00 173 163 152
6.263897e-01 2.034561e+00 3.608263e+00 47 36 33
1.004181e+00 1.971268e+00 3.738986e+00 122 102 84
7.298363e-01 2.055978e+00 3.640287e+00 59 5 0
5.909948e-01 2.147303e+00 3.503713e+00 116 96 65
5.909948e-01 2.147303e+00 3.503713e+00 116 96 65
6.278309e-01 2.074774e+00 3.639196e+00 142 125 121
6.278309e-01 2.074774e+00 3.639196e+00 142 125 121
6.273390e-01 2.090227e+00 3.638877e+00 48 12 4
6.038526e-01 2.165874e+00 3.559885e+00 69 43 10
9.938941e-01 2.081701e+00 3.726874e+00 113 111 136
1.079337e+00 2.026751e+00 3.821905e+00 28 29 36
5.987483e-01 2.220056e+00 3.532544e+00 139 123 89
6.278570e-01 2.122028e+00 3.689465e+00 78 78 83
2.192000e+00 2.898973e+00 2.727410e+00 162 139 88
4.655054e-01 2.233796e+00 3.757646e+00 103 109 85
4.259389e-01 2.300689e+00 3.683573e+00 177 174 140
4.333903e-01 2.132358e+00 3.919458e+00 193 185 141
1.003233e+00 1.722923e+00 3.606501e+00 36 24 24
7.621107e-01 1.937435e+00 3.545445e+00 167 152 125
8.093025e-01 1.938026e+00 3.528049e+00 188 164 141
6.252599e-01 2.124444e+00 3.637735e+00 39 25 40
6.188494e-01 2.121488e+00 3.835421e+00 156 160 131
1.028654e+00 1.745323e+00 3.607211e+00 28 36 72
8.738087e-01 2.751544e+00 2.288248e+00 124 112 80
6.339513e-01 2.062536e+00 3.648719e+00 35 28 33
9.367700e-01 2.177612e+00 3.729858e+00 83 53 0
6.069594e-01 1.882369e+00 3.374843e+00 117 85 47
9.623431e-01 1.879229e+00 3.435480e+00 116 79 35
4.273638e-01 2.559745e+00 3.243890e+00 145 119 63
9.213968e-01 1.897911e+00 3.512858e+00 36 25 28
9.278590e-01 1.899601e+00 3.503809e+00 36 25 28
1.136908e+00 1.932234e+00 3.739187e+00 132 114 94
6.000315e-01 2.134164e+00 3.542747e+00 156 125 74
6.027913e-01 2.053043e+00 3.491377e+00 168 137 97
5.747975e-01 2.257183e+00 3.474826e+00 196 169 102
1.040260e+00 1.919494e+00 3.744831e+00 7 37 121
1.225201e+00 2.033199e+00 3.788414e+00 199 172 130
7.274081e-01 1.843673e+00 3.495686e+00 153 133 6
9.569029e-01 1.872897e+00 3.524578e+00 11 28 61
6.876875e-01 1.882809e+00 3.530320e+00 32 32 62
6.234629e-01 1.951676e+00 3.583041e+00 44 53 92
6.412638e-01 2.023053e+00 3.629564e+00 26 23 41
1.002875e+00 2.020670e+00 3.791396e+00 96 88 92
9.788653e-01 2.104472e+00 3.654147e+00 106 92 92
6.245756e-01 1.915172e+00 3.490309e+00 56 51 78
1.186163e+00 1.827198e+00 3.652395e+00 198 168 126
7.886100e-01 1.926092e+00 3.523031e+00 60 48 60
7.886100e-01 1.926092e+00 3.523031e+00 60 48 60
6.959855e-01 1.939517e+00 3.559841e+00 119 89 63
1.227097e+00 1.968648e+00 3.746975e+00 34 31 80
6.852987e-01 2.044797e+00 3.659074e+00 164 85 22
7.870280e-01 2.120871e+00 3.657790e+00 10 16 28
6.259290e-01 2.185041e+00 3.616999e+00 17 11 9
6.103732e-01 1.918082e+00 3.448225e+00 55 36 32
4.033644e-01 2.079084e+00 3.198607e+00 152 116 46
6.255288e-01 1.908958e+00 3.524194e+00 142 139 103
6.123594e-01 1.943840e+00 3.459628e+00 24 28 55
8.615590e-01 1.954488e+00 3.529099e+00 53 7 1
8.863812e-01 1.974247e+00 3.520300e+00 184 116 103
6.189169e-01 1.985327e+00 3.518565e+00 142 93 57
6.189169e-01 1.985327e+00 3.518565e+00 142 93 57
1.019526e+00 1.901086e+00 3.714974e+00 161 149 132
1.081657e+00 1.917574e+00 3.741087e+00 198 179 165
6.411016e-01 1.995335e+00 3.623508e+00 159 139 134
6.138686e-01 2.056541e+00 3.539882e+00 58 21 8
6.261878e-01 2.107996e+00 3.627373e+00 101 65 40
8.148104e-01 2.146786e+00 3.668674e+00 26 25 32
4.887333e-01 2.345174e+00 3.436212e+00 194 169 105
1.067386e+00 1.726257e+00 3.598401e+00 24 11 16
1.090511e+00 1.790517e+00 3.631835e+00 201 168 143
9.698141e-01 1.854930e+00 3.520138e+00 41 30 39
6.328448e-01 1.867632e+00 3.517152e+00 62 36 39
6.157682e-01 1.910422e+00 3.468750e+00 162 127 98
8.227646e-01 1.901658e+00 3.491603e+00 172 137 29
9.719429e-01 1.892974e+00 3.541352e+00 16 8 9
6.151526e-01 1.940690e+00 3.493681e+00 88 111 84
6.118195e-01 1.982075e+00 3.488092e+00 51 29 24
6.248325e-01 1.951207e+00 3.550903e+00 124 96 79
6.260650e-01 1.978973e+00 3.607397e+00 23 30 75
6.270130e-01 1.998584e+00 3.580870e+00 170 153 150
6.128990e-01 2.033351e+00 3.520622e+00 51 57 67
6.191228e-01 2.011728e+00 3.575943e+00 26 26 51
9.835306e-01 1.996468e+00 3.628746e+00 152 128 115
6.196927e-01 2.039767e+00 3.568152e+00 46 8 1
6.133193e-01 2.035126e+00 3.576079e+00 46 8 1
1.026018e+00 2.010695e+00 3.804117e+00 21 29 52
8.638776e-01 2.152246e+00 3.653427e+00 18 4 0
2.154921e+00 2.900754e+00 2.784433e+00 196 175 131
9.783348e-01 2.853983e+00 3.045312e+00 146 141 113
1.115540e+00 1.749588e+00 3.604349e+00 38 27 29
1.006971e+00 1.777401e+00 3.574229e+00 152 135 127
1.137510e+00 1.762710e+00 3.596108e+00 146 137 145
6.323692e-01 1.838260e+00 3.494796e+00 38 26 39
1.087441e+00 1.766132e+00 3.623556e+00 159 130 130
6.355484e-01 1.850956e+00 3.508642e+00 48 35 16
1.257032e+00 1.794016e+00 3.601298e+00 173 138 75
8.522314e-01 1.878932e+00 3.457708e+00 156 137 67
6.137937e-01 1.938112e+00 3.477856e+00 18 22 16
9.595176e-01 1.938827e+00 3.482843e+00 41 9 4
6.135438e-01 1.950960e+00 3.477496e+00 86 101 93
9.838179e-01 1.918614e+00 3.547360e+00 49 36 31
6.593764e-01 1.917217e+00 3.581704e+00 117 91 74
9.784325e-01 1.919785e+00 3.577504e+00 152 131 107
1.075715e+00 1.860537e+00 3.694841e+00 33 21 14
6.075629e-01 2.021633e+00 3.493373e+00 171 158 143
9.783800e-01 1.957549e+00 3.605719e+00 141 129 132
6.113870e-01 2.017181e+00 3.506367e+00 31 35 51
6.022563e-01 2.039855e+00 3.469251e+00 182 153 109
6.225438e-01 1.998626e+00 3.560082e+00 48 48 60
1.010362e+00 1.941668e+00 3.679207e+00 184 152 127
5.956017e-01 2.144871e+00 3.442535e+00 157 130 83
9.715543e-01 2.072851e+00 3.652287e+00 67 72 104
1.011362e+00 2.007269e+00 3.784010e+00 105 109 143
1.018053e+00 2.021063e+00 3.800743e+00 107 114 149
6.028942e-01 2.153904e+00 3.595786e+00 133 112 80
5.964244e-01 2.227548e+00 3.475186e+00 97 70 22
5.928979e-01 2.257773e+00 3.507226e+00 40 17 0
7.046504e-01 2.136828e+00 3.710678e+00 116 86 41
2.212316e+00 2.918516e+00 2.728318e+00 92 70 20
3.998286e-01 2.365542e+00 3.596357e+00 122 115 63
6.782085e-01 2.137423e+00 3.836908e+00 118 113 95
9.901558e-01 2.067655e+00 3.724082e+00 88 80 75
1.097424e+00 1.727750e+00 3.604303e+00 30 16 6
6.020751e-01 2.233507e+00 3.484431e+00 92 67 26
9.793617e-01 1.966943e+00 3.614204e+00 138 127 121
6.188321e-01 2.013854e+00 3.540511e+00 86 99 124
6.024195e-01 2.197219e+00 3.445254e+00 121 95 46
6.145073e-01 2.152433e+00 3.605786e+00 22 18 26
9.775268e-01 2.154206e+00 3.647334e+00 10 1 1
6.125060e-01 1.892145e+00 3.418602e+00 38 29 54
9.986578e-01 1.899314e+00 3.657097e+00 167 145 117
9.808538e-01 1.937948e+00 3.587100e+00 153 135 122
9.995388e-01 1.916240e+00 3.718774e+00 187 154 126
9.763931e-02 2.136100e+00 4.006136e+00 198 191 175
9.308505e-01 1.901024e+00 3.501470e+00 16 23 34
1.061197e+00 1.992218e+00 3.650220e+00 131 105 89
1.046747e+00 2.010031e+00 3.781840e+00 1 34 96
5.977917e-01 1.843291e+00 3.361990e+00 153 107 21
8.813461e-01 1.897636e+00 3.479075e+00 8 4 0
9.854015e-01 1.999070e+00 3.566660e+00 0 19 74
1.241578e+00 1.772237e+00 3.627335e+00 186 140 52
7.426996e-01 1.936156e+00 3.549568e+00 153 127 104
1.043257e+00 1.994474e+00 3.779457e+00 3 30 113
7.857840e-01 1.989518e+00 3.568497e+00 190 166 144
1.118893e+00 2.026567e+00 3.815956e+00 187 163 29
1.030744e+00 2.036654e+00 3.805139e+00 3 37 102
1.213868e+00 1.746775e+00 3.613914e+00 191 138 69
6.180958e-01 2.083766e+00 3.553521e+00 31 24 55
1.063204e+00 1.736409e+00 3.616883e+00 103 95 96
5.819545e-01 1.948716e+00 3.310416e+00 18 17 34
1.077076e+00 1.835159e+00 3.692610e+00 127 104 88
8.569265e-01 1.953259e+00 3.534551e+00 58 5 0
1.013772e+00 1.908382e+00 3.698532e+00 94 78 49
5.949792e-01 2.058374e+00 3.444779e+00 173 149 115
1.017315e+00 1.928320e+00 3.738527e+00 169 153 130
1.216042e+00 1.963940e+00 3.753175e+00 40 37 64
1.216042e+00 1.963940e+00 3.753175e+00 40 37 64
6.208417e-01 2.036971e+00 3.630813e+00 174 152 124
6.092171e-01 2.063381e+00 3.585415e+00 28 13 19
1.216272e+00 2.031598e+00 3.800006e+00 196 182 118
1.041549e+00 2.026142e+00 3.831002e+00 185 166 104
6.866483e-01 1.835928e+00 3.494542e+00 43 56 57
6.866483e-01 1.835928e+00 3.494542e+00 43 56 57
5.937661e-01 1.945656e+00 3.364084e+00 159 140 122
6.475827e-01 1.868394e+00 3.524858e+00 176 167 158
6.160395e-01 1.910626e+00 3.468635e+00 158 121 91
8.127286e-01 1.917760e+00 3.508873e+00 180 163 155
6.438178e-01 1.925421e+00 3.570638e+00 173 140 139
6.233387e-01 1.996583e+00 3.585615e+00 175 160 152
6.157827e-01 2.036138e+00 3.573293e+00 37 12 3
5.914142e-01 2.142051e+00 3.483397e+00 162 138 88
1.026212e+00 2.064769e+00 3.751916e+00 127 115 124
5.173175e-01 2.112259e+00 3.862538e+00 122 116 79
6.320588e-01 1.828627e+00 3.478156e+00 68 78 132
5.852506e-01 1.920499e+00 3.326913e+00 128 92 42
9.732244e-01 1.829696e+00 3.539897e+00 110 93 69
6.255047e-01 1.930510e+00 3.512419e+00 38 49 13
6.267990e-01 2.007643e+00 3.535430e+00 89 109 132
6.019801e-01 2.053928e+00 3.468607e+00 141 111 72
6.292682e-01 1.991801e+00 3.616992e+00 34 37 74
6.353755e-01 2.005397e+00 3.625858e+00 23 24 66
6.067075e-01 2.094576e+00 3.547927e+00 155 137 117
6.301291e-01 2.057247e+00 3.621137e+00 74 43 8
6.095760e-01 2.150368e+00 3.562277e+00 149 123 92
5.995254e-01 2.148258e+00 3.584581e+00 75 50 21
3.214326e-01 2.250412e+00 3.721640e+00 120 123 74
4.926403e-01 2.344097e+00 3.627177e+00 164 165 109
9.787167e-01 1.970738e+00 3.615841e+00 128 122 125
5.964415e-01 2.202342e+00 3.538046e+00 64 36 1
5.964415e-01 2.202342e+00 3.538046e+00 64 36 1
6.235161e-01 1.914949e+00 3.490486e+00 47 51 90
1.028294e+00 1.881259e+00 3.716855e+00 15 28 72
9.552567e-01 1.845668e+00 3.470434e+00 11 3 12
6.386585e-01 2.036774e+00 3.637592e+00 12 24 75
5.778904e-01 1.883963e+00 3.382987e+00 120 86 35
6.075487e-01 2.128336e+00 3.570118e+00 143 130 110
8.881634e-01 2.064498e+00 3.493343e+00 162 139 121
5.718000e-01 1.840857e+00 3.392910e+00 170 123 42
9.800367e-01 2.101968e+00 3.702870e+00 3 26 103
1.000675e+00 1.913473e+00 3.655784e+00 154 128 102
8.454164e-01 2.360126e+00 2.844060e+00 252 247 228
9.597495e-01 2.000612e+00 3.564644e+00 6 22 60
1.064475e+00 1.997260e+00 3.820578e+00 59 61 60
9.432307e-01 1.714002e+00 3.613566e+00 145 102 35
6.574944e-01 1.863542e+00 3.517202e+00 179 165 153
6.461125e-01 1.889137e+00 3.519674e+00 26 36 82
6.168711e-01 1.918748e+00 3.467750e+00 123 102 96
2.437193e+00 2.117847e+00 3.308206e+00 255 254 239
6.370720e-01 2.095033e+00 3.607937e+00 25 9 45
5.670697e-01 1.941766e+00 3.325176e+00 12 14 41
6.367532e-01 1.928018e+00 3.526300e+00 167 154 117
6.332446e-01 2.018489e+00 3.529118e+00 80 96 123
6.563299e-01 2.118341e+00 3.660718e+00 7 17 46
3.956699e-01 1.455589e+00 3.871834e+00 153 106 24
1.001938e+00 1.820297e+00 3.671487e+00 164 146 128
1.071966e+00 1.849174e+00 3.709933e+00 178 157 133
6.538843e-01 1.954043e+00 3.595343e+00 105 82 77
2.196089e+00 1.929109e+00 3.508778e+00 72 43 13
7.742544e-01 1.980784e+00 3.576213e+00 192 171 158
9.460408e-01 2.002300e+00 3.543515e+00 183 153 113
7.834818e-01 2.119787e+00 3.660498e+00 12 19 31
5.865647e-01 2.264629e+00 3.491704e+00 194 176 125
6.416366e-01 2.169527e+00 3.818678e+00 178 178 129
5.820939e-01 1.971483e+00 3.321392e+00 164 152 153
5.702245e-01 2.003331e+00 3.335491e+00 78 54 30
8.401548e-01 1.912968e+00 3.517875e+00 23 22 16
7.779151e-01 1.943595e+00 3.550197e+00 73 63 53
6.226750e-01 1.966960e+00 3.521693e+00 39 2 0
6.350829e-01 1.975079e+00 3.554431e+00 17 22 51
9.489759e-01 1.970141e+00 3.538378e+00 12 3 27
6.240612e-01 2.003174e+00 3.525817e+00 28 28 59
8.699148e-01 2.373089e+00 2.854277e+00 158 133 72
6.565181e-01 2.001230e+00 3.609993e+00 149 144 154
5.960009e-01 2.238246e+00 3.486525e+00 63 44 4
4.680540e-01 2.297293e+00 3.630109e+00 100 103 47
4.404484e-01 2.348985e+00 3.632164e+00 106 98 73
1.206974e+00 3.659954e+00 -1.577550e+01 0 255 0
1.207763e+00 3.664143e+00 -1.582532e+01 255 255 0
1.230849e+00 3.962975e+00 -2.075085e+01 255 0 0
1.231538e+00 3.966760e+00 -2.080070e+01 255 255 0
-7.585480e+01 -2.545284e+02 3.434646e+03 0 255 0
-7.585369e+01 -2.545246e+02 3.434596e+03 255 255 0
-2.443010e+02 -6.368637e+02 5.833833e+03 255 0 0
-2.442990e+02 -6.368582e+02 5.833784e+03 255 255 0
-9.169018e+01 -1.568780e+02 9.464818e+02 0 255 0
-9.168537e+01 -1.568697e+02 9.464328e+02 255 255 0
5.140514e+02 1.293280e+03 -5.146554e+03 255 0 0
5.140562e+02 1.293292e+03 -5.146602e+03 255 255 0
-4.975232e-01 -3.887152e+00 2.014373e+01 0 255 0
-4.937920e-01 -3.870048e+00 2.009690e+01 255 255 0
5.753881e-02 -2.915997e+00 1.503279e+01 255 0 0
6.103856e-02 -2.895642e+00 1.498726e+01 255 255 0
3.278476e-01 -2.218595e+00 1.206558e+01 0 255 0
3.309069e-01 -2.196008e+00 1.202108e+01 255 255 0
3.129448e+00 3.929729e+00 1.920845e+01 255 0 0
3.122318e+00 3.924057e+00 1.915929e+01 255 255 0
5.588107e+01 6.486493e+01 8.207623e+02 0 255 0
5.587773e+01 6.486111e+01 8.207126e+02 255 255 0
-3.454421e+00 -7.607098e+00 -1.210002e+02 255 0 0
-3.456283e+00 -7.610975e+00 -1.210500e+02 255 255 0
1.947065e-01 -1.563037e+00 8.840549e+00 0 255 0
2.008512e-01 -1.535250e+00 8.799438e+00 255 255 0
-2.984869e-01 -5.410679e-01 7.000677e+00 255 0 0
-2.854810e-01 -5.123535e-01 6.961866e+00 255 255 0
2.997169e+00 3.277360e+00 1.014701e+01 0 255 0
2.982136e+00 3.269510e+00 1.009998e+01 255 255 0
-3.058862e-01 6.277585e-01 5.837999e+00 255 0 0
-2.856611e-01 6.523797e-01 5.799467e+00 255 255 0
-7.322941e-01 8.238031e-01 5.650784e+00 0 255 0
-7.053630e-01 8.449088e-01 5.614325e+00 255 255 0
-8.508381e-01 1.075082e+00 5.293628e+00 255 0 0
-8.191251e-01 1.092452e+00 5.259094e+00 255 255 0
-8.020320e-01 1.393995e+00 4.917428e+00 0 255 0
-7.645214e-01 1.406896e+00 4.886989e+00 255 255 0
-1.271770e+00 1.525020e+00 4.856694e+00 255 0 0
-1.229205e+00 1.533933e+00 4.832021e+00 255 255 0
