ply
format ascii 1.0
element vertex 221
property float x
property float y
property float z
property uchar diffuse_red
property uchar diffuse_green
property uchar diffuse_blue
end_header
-2.587583e-01 5.850864e-02 3.362055e+00 62 32 36
-4.568022e-01 5.694763e-01 3.607331e+00 65 85 84
-1.104503e-01 8.542436e-02 3.000461e+00 49 40 45
4.243573e-01 -9.721367e-02 2.917202e+00 204 195 182
2.573340e-01 -1.099335e-01 3.102085e+00 159 144 138
-5.802235e-01 1.373561e-01 2.933328e+00 214 208 207
-7.979122e-02 4.375153e-01 2.864177e+00 72 87 83
3.120088e-01 -2.703203e-01 3.002653e+00 36 33 41
3.120088e-01 -2.703203e-01 3.002653e+00 36 33 41
1.973551e-01 -2.996400e-01 3.029456e+00 49 53 59
1.031541e-01 1.161258e-01 3.048208e+00 62 86 138
2.096650e-01 1.432281e-01 3.052474e+00 213 215 227
-5.673007e-01 2.344537e-01 2.965570e+00 177 120 38
1.037204e-01 2.771337e-01 3.093413e+00 175 123 29
-7.045780e-01 5.969501e-01 2.887040e+00 70 28 17
1.708784e-01 -2.436340e-01 3.071653e+00 151 119 88
3.646009e-01 -1.581517e-01 3.035649e+00 13 29 82
3.477087e-01 -1.174895e-01 2.995901e+00 2 31 102
4.646742e-01 -1.034934e-01 2.956926e+00 209 198 196
2.860348e-02 1.689349e-02 3.111891e+00 88 23 19
-5.835927e-02 3.723607e-02 2.975719e+00 20 13 31
-5.835927e-02 3.723607e-02 2.975719e+00 20 13 31
-3.509511e-01 8.632618e-02 2.959370e+00 233 231 216
-3.509511e-01 8.632618e-02 2.959370e+00 233 231 216
9.783321e-02 -1.767294e-01 3.056690e+00 138 110 95
1.393508e-01 -1.029591e-01 3.075075e+00 6 27 89
9.660425e-02 -1.022267e-01 3.028852e+00 130 111 95
5.098470e-02 -7.918698e-02 3.001674e+00 59 27 11
-3.075484e-01 1.160286e-02 2.928453e+00 155 117 77
5.209044e-01 3.588024e-02 2.864966e+00 23 19 18
3.712257e-01 3.770434e-02 3.128595e+00 185 162 121
2.280711e-01 7.243521e-02 3.069198e+00 18 71 167
-7.181557e-01 9.002874e-02 2.844220e+00 238 234 226
-7.181557e-01 9.002874e-02 2.844220e+00 238 234 226
-6.411595e-02 1.171882e-01 3.039278e+00 30 18 24
-6.411595e-02 1.171882e-01 3.039278e+00 30 18 24
-6.991729e-01 1.256556e-01 2.881624e+00 97 102 132
3.517169e-01 -2.465320e-01 3.073357e+00 23 20 58
3.293891e-01 -2.015409e-01 3.043561e+00 185 144 116
4.851241e-02 -1.633455e-01 2.755406e+00 80 47 19
-2.552942e-01 -1.821897e-01 2.978787e+00 150 135 129
-1.613385e-01 -1.675823e-01 2.977737e+00 167 134 21
-2.812250e-01 -1.525121e-01 2.946751e+00 94 69 45
-5.746541e-02 -1.405908e-01 3.056616e+00 35 20 22
-2.479094e-01 -1.326086e-01 2.947216e+00 146 129 109
-9.468659e-02 -1.049571e-01 3.050187e+00 157 136 115
3.676725e-01 -5.621158e-02 3.051445e+00 5 24 81
2.706498e-01 -2.724197e-03 3.043496e+00 52 58 23
1.708838e-01 5.553421e-02 3.020954e+00 228 214 203
4.725012e-01 6.372241e-02 2.931689e+00 12 8 13
-3.022946e-02 7.342821e-02 2.961859e+00 237 215 112
-1.455941e-01 1.022872e-01 2.989561e+00 24 27 29
9.168512e-02 1.348475e-01 3.027371e+00 29 63 141
2.071995e-01 1.425909e-01 3.012565e+00 214 217 228
-7.135948e-01 1.587426e-01 2.862927e+00 238 233 221
-7.135948e-01 1.587426e-01 2.862927e+00 238 233 221
-5.490122e-01 1.815332e-01 2.967520e+00 249 236 227
1.347090e-01 1.968272e-01 2.930815e+00 244 232 98
1.347090e-01 1.968272e-01 2.930815e+00 244 232 98
8.534515e-02 2.915605e-01 3.054475e+00 165 116 42
5.604449e-02 3.051514e-01 3.118102e+00 218 218 193
-6.515097e-01 3.812431e-01 2.826530e+00 43 6 0
9.936808e-02 -3.085382e-01 3.020861e+00 54 35 38
4.326486e-01 -1.608439e-01 2.995258e+00 240 232 224
1.599109e-01 -1.659503e-01 3.031158e+00 25 26 16
-2.184308e-01 -1.333289e-01 3.009411e+00 23 12 28
4.698461e-01 -1.232366e-01 2.981664e+00 228 215 203
3.998298e-01 -1.249683e-01 3.008790e+00 218 212 196
4.961017e-01 -9.444970e-02 2.963241e+00 224 207 197
4.961017e-01 -9.444970e-02 2.963241e+00 224 207 197
3.942293e-01 -8.052247e-02 3.034397e+00 200 202 220
4.725229e-01 -6.304065e-02 2.868920e+00 111 104 88
4.725229e-01 -6.304065e-02 2.868920e+00 111 104 88
-1.362224e-01 -7.128682e-02 3.043659e+00 63 51 37
4.693567e-01 -3.384120e-02 2.859355e+00 229 208 189
5.339214e-01 -3.796282e-02 2.984694e+00 119 103 99
1.336154e-01 -3.822328e-02 3.025962e+00 8 16 69
1.336154e-01 -3.822328e-02 3.025962e+00 8 16 69
2.845662e-01 -4.297449e-02 3.306703e+00 140 141 71
2.181087e-01 -3.372300e-02 3.180679e+00 158 144 95
-7.798814e-02 -2.725270e-03 2.996886e+00 167 151 150
1.989286e-01 -1.581614e-04 3.030506e+00 3 17 39
1.386419e-01 2.294853e-02 3.037449e+00 158 144 119
4.940959e-01 3.239143e-02 2.945399e+00 219 217 223
4.367021e-01 5.596991e-02 2.907783e+00 204 194 191
5.253964e-01 6.893904e-02 2.860409e+00 166 134 130
2.572332e-01 8.072019e-02 3.020524e+00 9 57 151
-1.612134e-02 1.304013e-01 2.832283e+00 174 71 37
1.391232e-01 1.376537e-01 2.915868e+00 192 194 229
-4.937941e-01 1.421911e-01 2.976373e+00 245 235 219
-4.937941e-01 1.421911e-01 2.976373e+00 245 235 219
-5.192493e-01 1.539704e-01 2.984128e+00 152 127 90
-5.192493e-01 1.539704e-01 2.984128e+00 152 127 90
9.818429e-02 2.089619e-01 2.967623e+00 241 223 109
-4.855144e-01 3.943894e-01 2.914277e+00 73 70 50
2.511880e-01 -2.467070e-01 3.030310e+00 43 10 3
4.127815e-01 -2.778741e-01 3.274114e+00 138 106 77
8.452483e-02 -2.537389e-01 3.144779e+00 78 48 14
3.073059e-01 -2.187829e-01 3.079374e+00 182 156 137
-7.348996e-02 -2.088859e-01 2.980104e+00 149 104 40
3.781068e-01 -1.930971e-01 3.013728e+00 142 101 54
1.588882e-01 -1.935658e-01 3.051474e+00 165 140 121
-2.172933e-01 -1.855360e-01 3.020781e+00 22 34 46
-2.172933e-01 -1.855360e-01 3.020781e+00 22 34 46
-1.159402e-01 -1.760480e-01 3.123049e+00 153 130 31
4.415545e-01 -1.360546e-01 2.939861e+00 71 60 47
1.259311e-01 -1.408359e-01 3.032988e+00 15 22 58
-1.935149e-01 -1.433390e-01 3.056425e+00 157 137 57
4.206141e-01 -1.308405e-01 2.970491e+00 56 46 44
4.206141e-01 -1.308405e-01 2.970491e+00 56 46 44
4.590746e-01 -1.103222e-01 2.782384e+00 123 94 44
3.429837e-01 -1.080123e-01 3.062818e+00 5 8 53
-2.618981e-01 -9.603767e-02 2.954168e+00 146 126 120
3.458904e-01 -7.826168e-02 3.073050e+00 179 170 177
2.140203e-01 -6.096920e-02 3.007539e+00 45 46 60
-1.291780e-01 -4.476823e-02 3.037758e+00 169 152 141
-1.842480e-01 -3.475821e-02 3.017274e+00 74 42 41
-1.842480e-01 -3.475821e-02 3.017274e+00 74 42 41
3.487523e-01 -2.540954e-02 2.983246e+00 180 169 171
-2.424145e-01 -1.677232e-02 3.000775e+00 100 95 86
-2.745175e-01 -1.098752e-02 2.969985e+00 28 11 21
-1.954735e-01 -1.144392e-02 3.065127e+00 143 123 127
5.973342e-01 1.980003e-02 2.887645e+00 206 188 163
4.221606e-01 2.262422e-02 3.159879e+00 117 83 82
7.854513e-03 3.511539e-02 2.983677e+00 56 7 0
2.102567e-01 4.921066e-02 2.960973e+00 33 58 92
7.549456e-02 5.190703e-02 3.029418e+00 70 41 35
4.766403e-01 7.901670e-02 2.811447e+00 192 161 146
3.502788e-01 8.247905e-02 3.019330e+00 19 21 66
4.756027e-01 1.079409e-01 2.933189e+00 74 50 32
4.756027e-01 1.079409e-01 2.933189e+00 74 50 32
8.527313e-02 1.471121e-01 3.104759e+00 37 51 99
-4.139564e-02 1.514876e-01 3.071676e+00 180 144 115
-6.404746e-01 1.585190e-01 2.864820e+00 48 49 71
2.378871e-01 1.822481e-01 2.958147e+00 38 38 6
1.766211e-01 2.058284e-01 2.970125e+00 131 100 33
5.380279e-02 2.396774e-01 3.024840e+00 192 182 143
-5.335003e-01 2.633405e-01 2.907474e+00 153 117 51
-4.923377e-01 2.973604e-01 2.749652e+00 156 120 58
2.995827e-02 3.836048e-01 3.021442e+00 141 113 57
-1.222036e-02 3.928475e-01 3.079957e+00 227 222 214
-4.759532e-01 3.695091e-01 2.891034e+00 166 129 54
-7.911266e-01 6.279871e-01 2.880222e+00 37 6 1
3.217683e-01 -2.971554e-01 2.986201e+00 34 9 1
3.353436e-01 -2.603376e-01 2.956067e+00 30 25 39
1.531283e-01 -2.656045e-01 3.056779e+00 174 137 113
1.746422e-01 -2.484226e-01 2.983048e+00 167 143 116
2.987520e-01 -2.428140e-01 2.971965e+00 123 111 113
2.916275e-01 -2.313725e-01 3.006358e+00 37 8 5
3.493862e-01 -2.049685e-01 2.902942e+00 141 110 78
1.762898e-01 -1.993973e-01 3.008168e+00 89 72 64
1.203507e-01 -1.980642e-01 3.023590e+00 31 11 12
-2.730146e-01 -1.818236e-01 2.924946e+00 90 56 28
3.484770e-01 -1.841166e-01 2.982404e+00 32 25 40
4.035033e-01 -1.557019e-01 2.761103e+00 116 92 46
1.375792e-01 -1.763065e-01 3.042868e+00 20 9 10
-2.600265e-01 -1.675239e-01 2.954760e+00 160 143 133
-6.719758e-02 -1.633727e-01 2.970847e+00 129 118 74
-1.923349e-01 -1.566398e-01 2.966599e+00 54 42 8
-1.923349e-01 -1.566398e-01 2.966599e+00 54 42 8
1.615796e-01 -1.546297e-01 3.077634e+00 34 23 33
-1.262732e-01 -1.447335e-01 2.953982e+00 129 73 0
1.558671e-01 -1.339856e-01 3.048109e+00 139 121 128
-1.796884e-01 -1.116842e-01 2.909369e+00 27 12 1
-1.586286e-01 -1.121051e-01 2.983764e+00 167 141 132
-1.586286e-01 -1.121051e-01 2.983764e+00 167 141 132
-2.827707e-01 -9.403621e-02 2.944999e+00 95 72 51
1.675221e-01 -9.783936e-02 3.039675e+00 179 177 188
3.214805e-01 -9.104210e-02 3.000842e+00 160 148 160
2.026922e-01 -9.997024e-02 3.144807e+00 79 57 61
2.026922e-01 -9.997024e-02 3.144807e+00 79 57 61
2.700423e-01 -7.161214e-02 3.059186e+00 185 172 163
2.431265e-01 -7.711488e-02 3.106223e+00 170 167 167
-2.896260e-01 -6.845905e-02 2.981850e+00 95 69 42
-2.576458e-01 -5.803907e-02 2.929297e+00 157 133 119
1.465249e-01 -6.234097e-02 3.101265e+00 135 108 138
6.561198e-02 -3.625654e-02 2.982894e+00 55 38 40
-2.712587e-01 -4.663007e-02 3.174736e+00 26 28 4
5.563997e-01 -2.407137e-02 2.889889e+00 218 201 177
5.563997e-01 -2.407137e-02 2.889889e+00 218 201 177
-1.968259e-01 -2.239480e-03 2.771005e+00 118 101 107
4.815740e-01 -6.988948e-03 3.037350e+00 218 217 219
1.465844e-01 -9.801596e-03 3.041652e+00 12 17 33
-2.039649e-01 8.125523e-03 3.041991e+00 35 8 24
-2.272533e-01 5.439275e-03 3.069012e+00 21 2 14
-1.861278e-01 7.656890e-03 3.180374e+00 35 16 20
3.877728e-02 5.306255e-02 3.029442e+00 144 63 33
3.661057e-01 5.785639e-02 2.961694e+00 63 28 55
4.282487e-01 5.943760e-02 2.967548e+00 128 87 110
5.462323e-02 6.560452e-02 3.009800e+00 220 191 148
5.462323e-02 6.560452e-02 3.009800e+00 220 191 148
-2.384382e-01 7.010945e-02 3.005109e+00 28 16 24
-2.233128e-01 8.071026e-02 3.013927e+00 105 85 88
-5.464562e-01 8.168461e-02 2.944532e+00 138 109 77
4.398645e-01 8.428415e-02 2.923773e+00 70 38 56
1.846809e-02 8.310012e-02 3.051960e+00 150 81 34
4.347941e-01 8.551858e-02 2.756323e+00 201 174 171
-1.195988e-01 9.944967e-02 3.067256e+00 98 89 97
3.837674e-01 1.057175e-01 3.155538e+00 140 116 155
1.524867e-01 1.014663e-01 3.091434e+00 217 215 245
1.524867e-01 1.014663e-01 3.091434e+00 217 215 245
-2.533962e-01 9.921065e-02 3.093010e+00 11 3 10
-1.123513e-01 1.164118e-01 2.988100e+00 17 9 17
2.466916e-02 1.276778e-01 2.856513e+00 241 163 113
3.694856e-01 1.352541e-01 2.872573e+00 73 67 19
-6.372163e-01 1.313427e-01 2.823950e+00 219 219 221
-7.856292e-02 1.418185e-01 3.015902e+00 157 150 129
5.560813e-02 1.471179e-01 2.980751e+00 213 152 119
5.560813e-02 1.471179e-01 2.980751e+00 213 152 119
-9.878230e-02 1.557172e-01 2.765492e+00 173 171 132
-9.878230e-02 1.557172e-01 2.765492e+00 173 171 132
-2.993847e-01 1.674294e-01 3.112695e+00 107 104 66
-2.993847e-01 1.674294e-01 3.112695e+00 107 104 66
4.739954e-02 2.674551e-01 3.103692e+00 167 164 131
-5.789769e-02 3.958252e-01 2.989518e+00 218 225 213
-7.092641e-01 6.405787e-01 2.941180e+00 69 29 9
-6.735086e-01 6.260749e-01 2.803136e+00 149 125 83
-3.430230e-02 7.317387e-02 6.486412e-01 0 255 0
-3.491544e-02 7.473626e-02 5.986694e-01 255 255 0
-9.794197e-02 3.790412e-02 5.318725e-01 255 0 0
-9.974007e-02 3.697103e-02 4.819136e-01 255 255 0
