ply
format ascii 1.0
element vertex 252
property float x
property float y
property float z
property uchar diffuse_red
property uchar diffuse_green
property uchar diffuse_blue
end_header
-2.587568e-01 5.850731e-02 3.362055e+00 62 32 36
-4.568022e-01 5.694763e-01 3.607331e+00 65 85 84
-1.104493e-01 8.542459e-02 3.000461e+00 49 40 45
4.243577e-01 -9.721404e-02 2.917202e+00 204 195 182
2.573331e-01 -1.099328e-01 3.102085e+00 159 144 138
-5.802239e-01 1.373554e-01 2.933327e+00 214 208 207
-7.979147e-02 4.375157e-01 2.864177e+00 72 87 83
3.120084e-01 -2.703200e-01 3.002653e+00 36 33 41
3.120084e-01 -2.703200e-01 3.002653e+00 36 33 41
1.973549e-01 -2.996395e-01 3.029456e+00 49 53 59
1.031540e-01 1.161259e-01 3.048208e+00 62 86 138
2.096647e-01 1.432279e-01 3.052474e+00 213 215 227
-5.673005e-01 2.344536e-01 2.965570e+00 177 120 38
1.037205e-01 2.771325e-01 3.093413e+00 175 123 29
-7.045780e-01 5.969501e-01 2.887040e+00 70 28 17
1.708779e-01 -2.436336e-01 3.071653e+00 151 119 88
3.646009e-01 -1.581517e-01 3.035649e+00 13 29 82
3.477089e-01 -1.174892e-01 2.995901e+00 2 31 102
4.646738e-01 -1.034942e-01 2.956926e+00 209 198 196
2.860351e-02 1.689300e-02 3.111891e+00 88 23 19
-5.835894e-02 3.723591e-02 2.975719e+00 20 13 31
-5.835894e-02 3.723591e-02 2.975719e+00 20 13 31
-3.509510e-01 8.632627e-02 2.959370e+00 233 231 216
-3.509509e-01 8.632613e-02 2.959370e+00 233 231 216
9.783307e-02 -1.767291e-01 3.056690e+00 138 110 95
1.393508e-01 -1.029585e-01 3.075075e+00 6 27 89
9.660454e-02 -1.022262e-01 3.028852e+00 130 111 95
5.098512e-02 -7.918748e-02 3.001674e+00 59 27 11
-3.075483e-01 1.160281e-02 2.928453e+00 155 117 77
5.209052e-01 3.587955e-02 2.864966e+00 23 19 18
3.712244e-01 3.770425e-02 3.128595e+00 185 162 121
2.280710e-01 7.243511e-02 3.069198e+00 18 71 167
-7.181584e-01 9.002951e-02 2.844220e+00 238 234 226
-7.181584e-01 9.002951e-02 2.844220e+00 238 234 226
-6.411534e-02 1.171881e-01 3.039278e+00 30 18 24
-6.411554e-02 1.171881e-01 3.039278e+00 30 18 24
-6.991748e-01 1.256555e-01 2.881624e+00 97 102 132
3.517153e-01 -2.465316e-01 3.073357e+00 23 20 58
3.293883e-01 -2.015405e-01 3.043561e+00 185 144 116
4.851455e-02 -1.633455e-01 2.755406e+00 80 47 19
-2.552939e-01 -1.821895e-01 2.978787e+00 150 135 129
-1.613383e-01 -1.675822e-01 2.977737e+00 167 134 21
-2.812250e-01 -1.525121e-01 2.946751e+00 94 69 45
-5.746552e-02 -1.405911e-01 3.056616e+00 35 20 22
-2.479090e-01 -1.326082e-01 2.947217e+00 146 129 109
-9.468634e-02 -1.049573e-01 3.050187e+00 157 136 115
3.676720e-01 -5.621141e-02 3.051445e+00 5 24 81
2.706501e-01 -2.723616e-03 3.043496e+00 52 58 23
1.708849e-01 5.553463e-02 3.020954e+00 228 214 203
4.725010e-01 6.372202e-02 2.931689e+00 12 8 13
-3.022930e-02 7.342812e-02 2.961859e+00 237 215 112
-1.455941e-01 1.022872e-01 2.989561e+00 24 27 29
9.168517e-02 1.348474e-01 3.027371e+00 29 63 141
2.071994e-01 1.425907e-01 3.012565e+00 214 217 228
-7.135968e-01 1.587429e-01 2.862926e+00 238 233 221
-7.135968e-01 1.587429e-01 2.862926e+00 238 233 221
-5.490120e-01 1.815332e-01 2.967520e+00 249 236 227
1.347090e-01 1.968267e-01 2.930815e+00 244 232 98
1.347090e-01 1.968267e-01 2.930815e+00 244 232 98
8.534500e-02 2.915601e-01 3.054475e+00 165 116 42
5.604449e-02 3.051514e-01 3.118102e+00 218 218 193
-6.515124e-01 3.812430e-01 2.826529e+00 43 6 0
9.936809e-02 -3.085382e-01 3.020861e+00 54 35 38
4.326478e-01 -1.608440e-01 2.995258e+00 240 232 224
1.599111e-01 -1.659497e-01 3.031158e+00 25 26 16
-2.184305e-01 -1.333288e-01 3.009411e+00 23 12 28
4.698454e-01 -1.232369e-01 2.981664e+00 228 215 203
3.998292e-01 -1.249683e-01 3.008790e+00 218 212 196
4.961015e-01 -9.444984e-02 2.963241e+00 224 207 197
4.961012e-01 -9.445006e-02 2.963241e+00 224 207 197
3.942287e-01 -8.052241e-02 3.034397e+00 200 202 220
4.725240e-01 -6.304112e-02 2.868920e+00 111 104 88
4.725240e-01 -6.304112e-02 2.868920e+00 111 104 88
-1.362218e-01 -7.128692e-02 3.043659e+00 63 51 37
4.693579e-01 -3.384159e-02 2.859355e+00 229 208 189
5.339211e-01 -3.796284e-02 2.984694e+00 119 103 99
1.336163e-01 -3.822246e-02 3.025962e+00 8 16 69
1.336163e-01 -3.822246e-02 3.025962e+00 8 16 69
2.181087e-01 -3.372300e-02 3.180679e+00 158 144 95
-7.798777e-02 -2.725217e-03 2.996886e+00 167 151 150
1.989295e-01 -1.574482e-04 3.030506e+00 3 17 39
1.386424e-01 2.294887e-02 3.037449e+00 158 144 119
4.940946e-01 3.239001e-02 2.945399e+00 219 217 223
4.367021e-01 5.596991e-02 2.907783e+00 204 194 191
5.253968e-01 6.893869e-02 2.860409e+00 166 134 130
2.572337e-01 8.072048e-02 3.020524e+00 9 57 151
-1.612103e-02 1.304012e-01 2.832283e+00 174 71 37
1.391236e-01 1.376536e-01 2.915868e+00 192 194 229
-4.937933e-01 1.421912e-01 2.976373e+00 245 235 219
-4.937933e-01 1.421912e-01 2.976373e+00 245 235 219
-5.192491e-01 1.539701e-01 2.984128e+00 152 127 90
-5.192493e-01 1.539704e-01 2.984128e+00 152 127 90
9.818416e-02 2.089612e-01 2.967623e+00 241 223 109
-4.855146e-01 3.943889e-01 2.914277e+00 73 70 50
2.511877e-01 -2.467065e-01 3.030310e+00 43 10 3
8.452481e-02 -2.537386e-01 3.144779e+00 78 48 14
3.073046e-01 -2.187826e-01 3.079374e+00 182 156 137
-7.349013e-02 -2.088861e-01 2.980104e+00 149 104 40
3.781065e-01 -1.930971e-01 3.013728e+00 142 101 54
1.588882e-01 -1.935652e-01 3.051474e+00 165 140 121
-2.172931e-01 -1.855359e-01 3.020781e+00 22 34 46
-2.172931e-01 -1.855359e-01 3.020781e+00 22 34 46
-1.159403e-01 -1.760483e-01 3.123049e+00 153 130 31
4.415548e-01 -1.360549e-01 2.939861e+00 71 60 47
1.259315e-01 -1.408354e-01 3.032989e+00 15 22 58
-1.935143e-01 -1.433390e-01 3.056425e+00 157 137 57
4.206134e-01 -1.308410e-01 2.970490e+00 56 46 44
4.206133e-01 -1.308411e-01 2.970490e+00 56 46 44
4.590779e-01 -1.103227e-01 2.782384e+00 123 94 44
3.429830e-01 -1.080119e-01 3.062818e+00 5 8 53
-2.618975e-01 -9.603709e-02 2.954168e+00 146 126 120
3.458893e-01 -7.826113e-02 3.073050e+00 179 170 177
2.140203e-01 -6.096912e-02 3.007539e+00 45 46 60
-1.291774e-01 -4.476829e-02 3.037758e+00 169 152 141
-1.842473e-01 -3.475803e-02 3.017274e+00 74 42 41
-1.842471e-01 -3.475795e-02 3.017274e+00 74 42 41
3.487528e-01 -2.540924e-02 2.983246e+00 180 169 171
-2.424143e-01 -1.677235e-02 3.000775e+00 100 95 86
-2.745166e-01 -1.098681e-02 2.969985e+00 28 11 21
-1.954729e-01 -1.144393e-02 3.065127e+00 143 123 127
5.973341e-01 1.979892e-02 2.887645e+00 206 188 163
4.221587e-01 2.262415e-02 3.159879e+00 117 83 82
7.854631e-03 3.511517e-02 2.983677e+00 56 7 0
2.102577e-01 4.921109e-02 2.960973e+00 33 58 92
7.549456e-02 5.190697e-02 3.029418e+00 70 41 35
4.766421e-01 7.901645e-02 2.811447e+00 192 161 146
3.502786e-01 8.247895e-02 3.019330e+00 19 21 66
4.756025e-01 1.079404e-01 2.933189e+00 74 50 32
4.756025e-01 1.079404e-01 2.933189e+00 74 50 32
8.527313e-02 1.471121e-01 3.104759e+00 37 51 99
-4.139545e-02 1.514875e-01 3.071676e+00 180 144 115
-6.404762e-01 1.585191e-01 2.864820e+00 48 49 71
2.378871e-01 1.822480e-01 2.958147e+00 38 38 6
1.766211e-01 2.058282e-01 2.970125e+00 131 100 33
5.380289e-02 2.396772e-01 3.024840e+00 192 182 143
-5.335003e-01 2.633405e-01 2.907474e+00 153 117 51
2.995834e-02 3.836045e-01 3.021442e+00 141 113 57
-1.222036e-02 3.928475e-01 3.079957e+00 227 222 214
-4.759532e-01 3.695091e-01 2.891034e+00 166 129 54
3.217682e-01 -2.971553e-01 2.986201e+00 34 9 1
3.353440e-01 -2.603374e-01 2.956067e+00 30 25 39
1.531280e-01 -2.656041e-01 3.056779e+00 174 137 113
1.746422e-01 -2.484226e-01 2.983048e+00 167 143 116
2.987522e-01 -2.428138e-01 2.971965e+00 123 111 113
2.916274e-01 -2.313723e-01 3.006358e+00 37 8 5
3.493862e-01 -2.049685e-01 2.902942e+00 141 110 78
1.762901e-01 -1.993968e-01 3.008168e+00 89 72 64
1.203510e-01 -1.980637e-01 3.023590e+00 31 11 12
-2.730145e-01 -1.818236e-01 2.924946e+00 90 56 28
3.484770e-01 -1.841166e-01 2.982404e+00 32 25 40
4.035033e-01 -1.557019e-01 2.761103e+00 116 92 46
1.375794e-01 -1.763059e-01 3.042868e+00 20 9 10
-2.600262e-01 -1.675237e-01 2.954760e+00 160 143 133
-6.719737e-02 -1.633728e-01 2.970847e+00 129 118 74
-1.923344e-01 -1.566395e-01 2.966599e+00 54 42 8
-1.923349e-01 -1.566398e-01 2.966599e+00 54 42 8
1.615796e-01 -1.546295e-01 3.077634e+00 34 23 33
-1.262727e-01 -1.447335e-01 2.953982e+00 129 73 0
1.558674e-01 -1.339849e-01 3.048109e+00 139 121 128
-1.796879e-01 -1.116842e-01 2.909369e+00 27 12 1
-1.586280e-01 -1.121051e-01 2.983764e+00 167 141 132
-1.586280e-01 -1.121051e-01 2.983764e+00 167 141 132
-2.827707e-01 -9.403621e-02 2.944999e+00 95 72 51
1.675225e-01 -9.783868e-02 3.039676e+00 179 177 188
3.214808e-01 -9.104155e-02 3.000842e+00 160 148 160
2.026910e-01 -9.997000e-02 3.144807e+00 79 57 61
2.026910e-01 -9.997000e-02 3.144807e+00 79 57 61
2.700423e-01 -7.161214e-02 3.059186e+00 185 172 163
2.431256e-01 -7.711464e-02 3.106223e+00 170 167 167
-2.896256e-01 -6.845900e-02 2.981850e+00 95 69 42
-2.576452e-01 -5.803829e-02 2.929297e+00 157 133 119
1.465248e-01 -6.234049e-02 3.101265e+00 135 108 138
6.561209e-02 -3.625656e-02 2.982894e+00 55 38 40
-2.712572e-01 -4.663060e-02 3.174736e+00 26 28 4
5.563994e-01 -2.407185e-02 2.889889e+00 218 201 177
5.563994e-01 -2.407185e-02 2.889889e+00 218 201 177
-1.968259e-01 -2.239480e-03 2.771005e+00 118 101 107
4.815740e-01 -6.988948e-03 3.037350e+00 218 217 219
1.465847e-01 -9.801426e-03 3.041652e+00 12 17 33
-2.039643e-01 8.125575e-03 3.041992e+00 35 8 24
-2.272524e-01 5.439230e-03 3.069012e+00 21 2 14
-1.861274e-01 7.656392e-03 3.180373e+00 35 16 20
3.877723e-02 5.306252e-02 3.029442e+00 144 63 33
3.661058e-01 5.785624e-02 2.961694e+00 63 28 55
4.282483e-01 5.943718e-02 2.967548e+00 128 87 110
5.462339e-02 6.560420e-02 3.009800e+00 220 191 148
5.462323e-02 6.560452e-02 3.009800e+00 220 191 148
-2.384378e-01 7.010985e-02 3.005109e+00 28 16 24
-2.233119e-01 8.071082e-02 3.013927e+00 105 85 88
-5.464565e-01 8.168445e-02 2.944532e+00 138 109 77
4.398646e-01 8.428403e-02 2.923773e+00 70 38 56
1.846799e-02 8.309966e-02 3.051960e+00 150 81 34
4.347941e-01 8.551858e-02 2.756323e+00 201 174 171
-1.195982e-01 9.944949e-02 3.067256e+00 98 89 97
3.837674e-01 1.057175e-01 3.155538e+00 140 116 155
1.524865e-01 1.014660e-01 3.091434e+00 217 215 245
1.524865e-01 1.014660e-01 3.091434e+00 217 215 245
-2.533948e-01 9.921060e-02 3.093010e+00 11 3 10
-1.123509e-01 1.164121e-01 2.988100e+00 17 9 17
2.466916e-02 1.276778e-01 2.856513e+00 241 163 113
3.694856e-01 1.352541e-01 2.872573e+00 73 67 19
-6.372186e-01 1.313434e-01 2.823950e+00 219 219 221
-7.856264e-02 1.418186e-01 3.015902e+00 157 150 129
5.560831e-02 1.471179e-01 2.980751e+00 213 152 119
5.560813e-02 1.471179e-01 2.980751e+00 213 152 119
-9.878230e-02 1.557172e-01 2.765492e+00 173 171 132
-9.878230e-02 1.557172e-01 2.765492e+00 173 171 132
4.739969e-02 2.674546e-01 3.103692e+00 167 164 131
-5.789769e-02 3.958252e-01 2.989518e+00 218 225 213
-7.092637e-01 6.405775e-01 2.941180e+00 69 29 9
-6.735097e-01 6.260743e-01 2.803135e+00 149 125 83
-1.189050e-01 -1.913284e-01 2.954944e+00 23 44 60
-1.189049e-01 -1.913285e-01 2.954944e+00 23 44 60
2.513591e-01 -2.812996e-01 3.003854e+00 29 11 19
-6.031093e-02 -5.480453e-02 2.984396e+00 119 106 94
-1.336788e-01 1.575343e-02 3.044477e+00 26 2 6
4.005276e-01 -1.953319e-01 2.952561e+00 172 120 52
2.184381e-01 -3.361313e-02 3.087211e+00 158 162 69
-1.905402e-02 1.731117e-01 3.109088e+00 135 128 93
-7.920101e-02 3.922089e-01 2.958005e+00 211 216 198
-1.113065e-01 3.978960e-01 2.957629e+00 214 217 204
-2.135275e-01 -1.103141e-01 3.030751e+00 150 129 135
4.386128e-01 6.099332e-03 2.873550e+00 214 203 196
-4.058868e-01 1.664557e-01 3.155589e+00 161 154 121
-4.058868e-01 1.664557e-01 3.155589e+00 161 154 121
-4.936111e-02 6.757539e-02 3.003679e+00 22 23 33
-6.073854e-01 1.741982e-01 2.848371e+00 223 204 195
-2.398029e-01 -2.090467e-01 2.984956e+00 28 40 81
-2.398029e-01 -2.090467e-01 2.984956e+00 28 40 81
8.272401e-02 3.538618e-02 2.947970e+00 74 43 31
-4.513373e-02 1.294579e-01 3.047240e+00 26 1 2
-2.898751e-01 2.008511e-01 3.152102e+00 224 212 187
1.348766e-01 -3.239442e-01 2.969477e+00 141 95 57
-1.372342e-01 -1.596778e-01 2.974866e+00 175 130 38
1.073394e-01 -1.648353e-01 3.035334e+00 142 119 101
-5.707782e-02 -1.437878e-01 2.953186e+00 19 6 0
-2.068525e-01 -9.325784e-02 3.028058e+00 81 56 53
-2.821980e-01 -7.123276e-02 3.051071e+00 87 53 34
5.603267e-01 -4.233523e-02 2.844146e+00 158 121 74
3.092280e-01 1.048717e-01 3.041296e+00 197 208 238
-3.430231e-02 7.317384e-02 6.486412e-01 0 255 0
-3.491544e-02 7.473624e-02 5.986694e-01 255 255 0
-9.794197e-02 3.790414e-02 5.318725e-01 255 0 0
-9.974007e-02 3.697105e-02 4.819136e-01 255 255 0
-1.753196e+01 8.914358e+01 3.444089e+03 0 255 0
-1.753170e+01 8.914229e+01 3.444039e+03 255 255 0
-9.837947e+01 -4.105533e+02 5.859839e+03 255 0 0
-9.837863e+01 -4.105498e+02 5.859790e+03 255 255 0
-1.173574e+02 -1.871982e+02 9.403563e+02 0 255 0
-1.173513e+02 -1.871884e+02 9.403076e+02 255 255 0
7.146838e+02 1.754052e+03 -4.981537e+03 255 0 0
7.146905e+02 1.754068e+03 -4.981583e+03 255 255 0
