ply
format ascii 1.0
element vertex 579
property float x
property float y
property float z
property uchar diffuse_red
property uchar diffuse_green
property uchar diffuse_blue
end_header
5.326710e-01 1.706618e+00 3.711432e+00 62 32 36
3.206236e-01 2.015987e+00 5.569076e+00 65 85 84
6.592316e-01 1.744376e+00 3.646006e+00 49 40 45
1.204197e+00 1.599645e+00 3.362670e+00 204 195 182
1.012729e+00 1.563564e+00 3.685732e+00 159 144 138
1.968124e-01 1.816187e+00 3.115229e+00 214 208 207
6.761143e-01 2.138164e+00 3.238504e+00 72 87 83
1.087260e+00 1.425377e+00 3.491434e+00 36 33 41
1.086173e+00 1.426752e+00 3.489397e+00 36 33 41
9.704202e-01 1.394298e+00 3.514369e+00 49 53 59
8.663002e-01 1.802836e+00 3.357529e+00 62 86 138
9.653073e-01 1.828462e+00 3.370031e+00 213 215 227
2.072810e-01 1.904719e+00 3.228908e+00 177 120 38
8.603228e-01 1.940266e+00 3.476807e+00 175 123 29
5.597777e-02 2.292108e+00 2.854572e+00 70 28 17
9.430250e-01 1.444849e+00 3.552554e+00 151 119 88
1.126967e+00 1.528116e+00 3.604489e+00 13 29 82
1.114106e+00 1.565641e+00 3.606870e+00 2 31 102
1.234482e+00 1.606883e+00 3.287878e+00 209 198 196
7.986310e-01 1.703776e+00 3.333941e+00 88 23 19
7.151636e-01 1.714837e+00 3.409702e+00 20 13 31
7.151636e-01 1.714837e+00 3.409702e+00 20 13 31
4.225931e-01 1.758516e+00 3.353951e+00 233 231 216
4.292331e-01 1.770728e+00 3.158853e+00 233 231 216
8.693425e-01 1.508825e+00 3.523846e+00 138 110 95
9.040135e-01 1.572292e+00 3.655002e+00 6 27 89
8.661116e-01 1.575984e+00 3.583653e+00 130 111 95
8.292556e-01 1.602984e+00 3.398477e+00 59 27 11
4.723862e-01 1.701773e+00 3.112784e+00 155 117 77
1.306008e+00 1.757353e+00 3.151292e+00 23 19 18
1.109958e+00 1.717502e+00 3.621146e+00 185 162 121
9.830752e-01 1.742869e+00 3.652238e+00 18 71 167
3.354940e-02 1.765345e+00 3.126659e+00 238 234 226
2.961915e-02 1.766086e+00 3.132723e+00 238 234 226
7.029922e-01 1.781759e+00 3.585381e+00 30 18 24
7.033782e-01 1.779565e+00 3.606004e+00 30 18 24
6.060196e-02 1.804550e+00 3.081199e+00 97 102 132
1.111397e+00 1.455075e+00 3.512448e+00 23 20 58
1.091851e+00 1.490263e+00 3.550335e+00 185 144 116
8.412514e-01 1.504276e+00 3.369488e+00 80 47 19
5.235615e-01 1.490239e+00 3.432732e+00 150 135 129
6.161909e-01 1.508150e+00 3.413206e+00 167 134 21
4.959691e-01 1.521430e+00 3.367949e+00 94 69 45
7.194721e-01 1.546520e+00 3.402951e+00 35 20 22
5.272789e-01 1.535604e+00 3.461814e+00 146 129 109
6.837056e-01 1.576444e+00 3.451822e+00 157 136 115
1.122367e+00 1.629744e+00 3.588253e+00 5 24 81
1.030676e+00 1.670171e+00 3.690158e+00 52 58 23
9.345656e-01 1.722030e+00 3.683548e+00 228 214 203
1.239352e+00 1.781711e+00 3.105139e+00 12 8 13
7.390522e-01 1.740408e+00 3.583864e+00 237 215 112
6.275813e-01 1.780682e+00 3.351416e+00 24 27 29
8.533366e-01 1.797603e+00 3.676885e+00 29 63 141
9.672195e-01 1.830635e+00 3.340370e+00 214 217 228
4.227962e-02 1.838484e+00 3.083704e+00 238 233 221
4.337784e-02 1.842603e+00 3.040913e+00 238 233 221
2.303549e-01 1.855564e+00 3.195079e+00 249 236 227
9.054150e-01 1.905394e+00 3.026947e+00 244 232 98
9.054150e-01 1.905394e+00 3.026947e+00 244 232 98
8.448044e-01 1.983156e+00 3.070098e+00 165 116 42
7.974130e-01 1.877380e+00 4.996331e+00 218 218 193
1.011336e-01 2.091636e+00 2.774577e+00 43 6 0
8.799270e-01 1.375805e+00 3.509507e+00 54 35 38
1.196246e+00 1.547437e+00 3.347553e+00 240 232 224
9.300643e-01 1.511875e+00 3.613499e+00 25 26 16
5.620704e-01 1.539515e+00 3.468154e+00 23 12 28
1.235393e+00 1.585638e+00 3.310583e+00 228 215 203
1.161742e+00 1.581452e+00 3.326387e+00 218 212 196
1.263237e+00 1.613578e+00 3.307419e+00 224 207 197
1.262972e+00 1.614590e+00 3.298326e+00 224 207 197
1.152026e+00 1.617806e+00 3.431366e+00 200 202 220
1.258962e+00 1.645803e+00 3.246379e+00 111 104 88
1.258141e+00 1.645406e+00 3.248778e+00 111 104 88
6.419433e-01 1.602869e+00 3.480993e+00 63 51 37
1.257792e+00 1.676408e+00 3.207941e+00 229 208 189
1.291483e+00 1.677848e+00 3.189085e+00 119 103 99
8.991034e-01 1.628176e+00 3.706117e+00 8 16 69
8.998390e-01 1.628128e+00 3.702671e+00 8 16 69
9.660146e-01 1.650019e+00 3.572549e+00 158 144 95
6.947763e-01 1.666652e+00 3.542146e+00 167 151 150
9.638853e-01 1.667876e+00 3.709898e+00 3 17 39
9.016740e-01 1.686523e+00 3.739840e+00 158 144 119
1.259899e+00 1.752463e+00 3.134926e+00 219 217 223
1.208070e+00 1.781372e+00 2.996191e+00 204 194 191
1.309717e+00 1.793848e+00 3.081588e+00 166 134 130
1.017115e+00 1.754061e+00 3.639499e+00 9 57 151
7.554905e-01 1.807802e+00 3.507796e+00 174 71 37
9.086234e-01 1.797504e+00 3.811538e+00 192 194 229
2.806436e-01 1.796495e+00 3.523010e+00 245 235 219
2.806436e-01 1.796495e+00 3.523010e+00 245 235 219
2.563989e-01 1.811779e+00 3.402832e+00 152 127 90
2.566945e-01 1.816335e+00 3.382753e+00 152 127 90
8.665729e-01 1.915046e+00 3.009319e+00 241 223 109
2.929636e-01 2.100454e+00 2.707348e+00 73 70 50
1.021718e+00 1.442199e+00 3.544508e+00 43 10 3
8.499662e-01 1.393802e+00 4.122151e+00 78 48 14
1.067962e+00 1.475443e+00 3.551440e+00 182 156 137
7.088260e-01 1.477148e+00 3.360066e+00 149 104 40
1.143821e+00 1.501634e+00 3.481522e+00 142 101 54
9.298320e-01 1.487476e+00 3.600121e+00 165 140 121
5.629754e-01 1.493288e+00 3.421630e+00 22 34 46
5.641332e-01 1.494598e+00 3.416863e+00 22 34 46
6.656005e-01 1.516327e+00 3.401304e+00 153 130 31
1.217903e+00 1.568999e+00 3.306253e+00 71 60 47
8.962982e-01 1.531582e+00 3.636175e+00 15 22 58
5.892711e-01 1.535901e+00 3.445903e+00 157 137 57
1.189894e+00 1.576353e+00 3.309746e+00 56 46 44
1.189522e+00 1.575921e+00 3.314671e+00 56 46 44
1.263347e+00 1.582505e+00 3.319011e+00 123 94 44
1.097991e+00 1.578268e+00 3.614977e+00 5 8 53
5.131443e-01 1.568710e+00 3.500673e+00 146 126 120
1.098523e+00 1.608545e+00 3.630530e+00 179 170 177
9.827107e-01 1.611778e+00 3.663700e+00 45 46 60
6.477555e-01 1.628630e+00 3.491638e+00 169 152 141
5.930504e-01 1.634280e+00 3.515822e+00 74 42 41
5.930692e-01 1.634161e+00 3.515298e+00 74 42 41
1.114529e+00 1.652831e+00 3.655746e+00 180 169 171
5.372918e-01 1.656252e+00 3.407303e+00 100 95 86
5.011874e-01 1.646494e+00 3.562850e+00 28 11 21
5.859009e-01 1.655245e+00 3.542441e+00 143 123 127
1.372438e+00 1.741544e+00 3.144654e+00 206 188 163
1.151605e+00 1.711764e+00 3.536500e+00 117 83 82
7.814957e-01 1.725998e+00 3.263900e+00 56 7 0
9.786270e-01 1.716754e+00 3.696377e+00 33 58 92
8.414394e-01 1.727653e+00 3.510303e+00 70 41 35
1.268788e+00 1.801574e+00 3.093989e+00 192 161 146
1.106271e+00 1.771483e+00 3.442016e+00 19 21 66
1.241184e+00 1.827173e+00 3.063737e+00 74 50 32
1.240744e+00 1.826988e+00 3.067775e+00 74 50 32
8.406266e-01 1.789946e+00 3.933211e+00 37 51 99
7.179796e-01 1.782162e+00 4.069036e+00 180 144 115
1.255525e-01 1.845600e+00 3.034478e+00 48 49 71
1.002094e+00 1.881690e+00 3.214589e+00 38 38 6
9.402389e-01 1.901839e+00 3.217845e+00 131 100 33
8.128647e-01 1.896501e+00 3.713691e+00 192 182 143
2.385163e-01 1.953693e+00 2.992017e+00 153 117 51
7.894379e-01 2.060560e+00 3.283871e+00 141 113 57
7.358213e-01 2.010868e+00 4.213679e+00 227 222 214
2.977994e-01 2.076431e+00 2.761513e+00 166 129 54
1.098760e+00 1.396220e+00 3.467927e+00 34 9 1
1.118082e+00 1.428778e+00 3.485190e+00 30 25 39
9.262863e-01 1.421301e+00 3.545385e+00 174 137 113
9.525592e-01 1.440257e+00 3.450399e+00 167 143 116
1.075539e+00 1.442797e+00 3.527012e+00 123 111 113
1.064059e+00 1.456761e+00 3.541205e+00 37 8 5
1.134532e+00 1.498168e+00 3.249820e+00 141 110 78
9.504726e-01 1.479174e+00 3.591804e+00 89 72 64
8.946527e-01 1.478297e+00 3.595054e+00 31 11 12
5.036071e-01 1.482629e+00 3.437914e+00 90 56 28
1.118456e+00 1.531012e+00 3.195817e+00 32 25 40
1.213814e+00 1.563269e+00 2.928522e+00 116 92 46
9.081195e-01 1.501957e+00 3.606390e+00 20 9 10
5.168077e-01 1.501127e+00 3.453640e+00 160 143 133
7.121323e-01 1.520419e+00 3.384541e+00 129 118 74
5.876491e-01 1.517070e+00 3.438794e+00 54 42 8
5.872440e-01 1.516307e+00 3.437088e+00 54 42 8
9.298750e-01 1.524984e+00 3.617780e+00 34 23 33
6.531843e-01 1.530030e+00 3.434671e+00 129 73 0
9.244291e-01 1.541343e+00 3.641913e+00 139 121 128
5.961925e-01 1.555953e+00 3.453660e+00 27 12 1
6.198824e-01 1.560921e+00 3.450139e+00 167 141 132
6.196531e-01 1.560964e+00 3.450192e+00 167 141 132
4.988637e-01 1.588917e+00 3.241798e+00 95 72 51
9.342015e-01 1.576086e+00 3.663094e+00 179 177 188
1.087847e+00 1.589142e+00 3.621086e+00 160 148 160
9.563902e-01 1.579974e+00 3.664277e+00 79 57 61
9.566440e-01 1.580222e+00 3.663570e+00 79 57 61
1.031464e+00 1.604959e+00 3.659699e+00 185 172 163
9.980141e-01 1.600084e+00 3.668669e+00 170 167 167
4.901380e-01 1.599942e+00 3.453168e+00 95 69 42
5.130783e-01 1.602995e+00 3.527392e+00 157 133 119
9.068371e-01 1.609477e+00 3.690789e+00 135 108 138
8.386224e-01 1.645038e+00 3.453155e+00 55 38 40
5.194138e-01 1.623053e+00 3.540990e+00 26 28 4
1.338140e+00 1.696680e+00 3.171511e+00 218 201 177
1.335007e+00 1.694002e+00 3.190876e+00 218 201 177
5.880788e-01 1.738713e+00 2.427404e+00 118 101 107
1.229905e+00 1.700020e+00 3.311951e+00 218 217 219
9.098457e-01 1.656226e+00 3.715554e+00 12 17 33
5.768356e-01 1.672568e+00 3.550668e+00 35 8 24
5.530017e-01 1.667743e+00 3.558844e+00 21 2 14
5.992329e-01 1.676149e+00 3.547079e+00 35 16 20
8.075008e-01 1.741598e+00 3.306582e+00 144 63 33
1.132628e+00 1.746173e+00 3.472953e+00 63 28 55
1.189899e+00 1.767018e+00 3.219386e+00 128 87 110
8.249687e-01 1.751778e+00 3.334255e+00 220 191 148
8.229298e-01 1.748501e+00 3.398208e+00 220 191 148
5.320380e-01 1.729465e+00 3.592523e+00 28 16 24
5.553449e-01 1.735897e+00 3.628217e+00 105 85 88
2.319513e-01 1.764782e+00 3.104226e+00 138 109 77
1.209970e+00 1.789920e+00 3.270412e+00 70 38 56
7.885174e-01 1.775647e+00 3.212209e+00 150 81 34
1.254715e+00 1.737814e+00 4.115339e+00 201 174 171
6.522784e-01 1.762783e+00 3.563399e+00 98 89 97
1.104252e+00 1.896149e+00 1.903552e+00 140 116 155
9.081157e-01 1.769850e+00 3.618075e+00 217 215 245
9.081157e-01 1.769850e+00 3.618075e+00 217 215 245
5.245480e-01 1.754528e+00 3.631377e+00 11 3 10
6.546125e-01 1.778729e+00 3.611205e+00 17 9 17
8.056400e-01 1.870269e+00 2.533330e+00 241 163 113
1.146771e+00 1.851458e+00 3.109387e+00 73 67 19
1.167316e-01 1.814906e+00 3.079920e+00 219 219 221
6.878888e-01 1.803596e+00 3.612750e+00 157 150 129
8.202904e-01 1.809623e+00 3.700350e+00 213 152 119
8.239830e-01 1.841373e+00 3.207757e+00 213 152 119
6.887961e-01 1.929302e+00 2.049717e+00 173 171 132
6.887961e-01 1.929302e+00 2.049717e+00 173 171 132
8.022128e-01 1.931994e+00 3.522943e+00 167 164 131
7.058103e-01 2.081277e+00 3.157486e+00 218 225 213
7.717241e-02 2.336455e+00 2.555341e+00 69 29 9
8.986660e-02 2.356340e+00 2.450767e+00 149 125 83
6.528158e-01 1.489027e+00 3.381707e+00 23 44 60
6.526067e-01 1.488726e+00 3.381270e+00 23 44 60
1.033331e+00 1.405452e+00 3.488059e+00 29 11 19
7.115702e-01 1.624660e+00 3.417995e+00 119 106 94
6.361184e-01 1.683220e+00 3.502768e+00 26 2 6
1.175241e+00 1.509574e+00 3.364599e+00 172 120 52
9.799757e-01 1.636013e+00 3.690343e+00 158 162 69
7.373185e-01 1.831705e+00 3.708424e+00 135 128 93
6.773680e-01 2.069580e+00 3.384043e+00 211 216 198
6.454479e-01 2.074005e+00 3.383060e+00 214 217 204
5.595211e-01 1.560162e+00 3.477557e+00 150 129 135
1.204161e+00 1.708546e+00 3.315229e+00 214 203 196
3.515287e-01 1.820586e+00 3.647107e+00 161 154 121
3.515287e-01 1.820586e+00 3.647107e+00 161 154 121
7.106745e-01 1.746314e+00 3.462351e+00 22 23 33
1.703698e-01 1.853655e+00 3.068187e+00 223 204 195
5.407290e-01 1.461502e+00 3.414017e+00 28 40 81
5.425733e-01 1.465602e+00 3.396553e+00 28 40 81
8.454670e-01 1.722558e+00 3.389917e+00 74 43 31
7.126992e-01 1.803845e+00 3.524574e+00 26 1 2
4.641814e-01 1.858946e+00 3.656103e+00 224 212 187
9.095057e-01 1.356385e+00 3.516210e+00 141 95 57
6.383187e-01 1.513907e+00 3.410925e+00 175 130 38
8.765647e-01 1.510426e+00 3.568677e+00 142 119 101
7.207144e-01 1.534820e+00 3.387958e+00 19 6 0
5.654490e-01 1.575536e+00 3.489427e+00 81 56 53
4.881585e-01 1.593602e+00 3.518625e+00 87 53 34
1.337940e+00 1.677667e+00 3.179991e+00 158 121 74
1.062979e+00 1.788805e+00 3.576133e+00 197 208 238
9.838185e-01 1.612714e+00 3.671738e+00 46 60 82
5.937116e-01 1.634790e+00 3.529573e+00 55 33 12
1.075879e+00 1.444447e+00 3.540647e+00 126 110 121
1.085257e+00 1.659121e+00 3.665726e+00 148 143 116
1.085276e+00 1.656624e+00 3.654794e+00 148 143 116
1.024440e+00 1.424946e+00 3.540141e+00 96 80 94
1.024440e+00 1.424946e+00 3.540141e+00 96 80 94
6.582885e-01 1.739406e+00 3.539738e+00 73 28 29
1.119238e+00 1.464599e+00 3.527751e+00 21 20 50
9.249918e-01 1.544166e+00 3.631164e+00 135 124 121
-2.579057e-02 2.382810e+00 2.444992e+00 80 31 25
8.431806e-01 1.766193e+00 3.215544e+00 220 198 87
5.693486e-01 1.637178e+00 3.528675e+00 56 40 1
1.085966e+00 1.391241e+00 3.473823e+00 39 6 1
9.076773e-01 1.395369e+00 3.529813e+00 125 98 90
6.796886e-01 1.568890e+00 3.423603e+00 176 143 127
8.809147e-01 1.601383e+00 3.660372e+00 151 136 130
8.259192e-01 1.710454e+00 3.265087e+00 85 3 2
1.079138e+00 1.656882e+00 3.679221e+00 160 144 125
5.338269e-01 1.703410e+00 3.589497e+00 43 2 5
1.212414e-02 2.388034e+00 2.387430e+00 147 112 73
4.131452e-01 1.869522e+00 3.013439e+00 253 238 219
6.532759e-01 1.645839e+00 3.515650e+00 127 110 93
2.314403e-01 1.836987e+00 3.024507e+00 201 192 185
2.291724e-01 1.842516e+00 3.015893e+00 201 192 185
9.347003e-01 1.759517e+00 3.636092e+00 127 118 117
8.584653e-01 1.781427e+00 3.565105e+00 33 32 90
7.044279e-01 1.788652e+00 3.557840e+00 25 23 36
4.880572e-01 1.534472e+00 3.332373e+00 93 59 48
1.115131e+00 1.582366e+00 3.567898e+00 6 27 106
8.052107e-01 1.882606e+00 3.066218e+00 197 85 45
1.240653e+00 1.590195e+00 3.310067e+00 221 201 196
4.570891e-01 1.782047e+00 3.074125e+00 242 230 206
8.428973e-01 1.750741e+00 3.248939e+00 236 198 110
4.613981e-01 1.955785e+00 2.937150e+00 254 239 221
1.156683e+00 1.509779e+00 3.337786e+00 144 109 66
1.065341e+00 1.622253e+00 3.706040e+00 141 137 55
9.946633e-01 1.783043e+00 3.609751e+00 178 173 203
8.781264e-01 1.489049e+00 3.555472e+00 144 123 111
1.016918e+00 1.606165e+00 3.668178e+00 185 168 159
5.025070e-01 1.675846e+00 3.570233e+00 23 19 29
4.356400e-01 1.819754e+00 3.725616e+00 97 81 35
1.089422e+00 1.374240e+00 3.479663e+00 136 92 38
1.044810e+00 1.421889e+00 3.526459e+00 5 2 29
4.999638e-01 1.495622e+00 3.447798e+00 83 57 44
1.073007e+00 1.496886e+00 3.588401e+00 79 58 37
1.311697e+00 1.644595e+00 3.262847e+00 214 189 160
1.311697e+00 1.644595e+00 3.262847e+00 214 189 160
5.067604e-01 1.553329e+00 3.478795e+00 50 18 18
5.566674e-01 1.586221e+00 3.499702e+00 157 140 114
5.566674e-01 1.586221e+00 3.499702e+00 157 140 114
1.260281e+00 1.739675e+00 3.184069e+00 209 209 208
5.922858e-01 1.602546e+00 3.501615e+00 83 64 67
5.750739e-01 1.605561e+00 3.493094e+00 76 58 53
1.209434e+00 1.772028e+00 3.180546e+00 206 196 186
7.492486e-01 1.729371e+00 3.256364e+00 36 16 4
9.258531e-01 1.592316e+00 3.667903e+00 53 57 87
5.080038e-01 1.638814e+00 3.524633e+00 152 141 133
1.056583e+00 1.619664e+00 3.667792e+00 85 70 61
1.026473e+00 1.618249e+00 3.674813e+00 45 41 14
8.926744e-01 1.618053e+00 3.691179e+00 25 17 66
1.060624e+00 1.635080e+00 3.668608e+00 160 153 60
1.078470e+00 1.654893e+00 3.682031e+00 159 148 137
3.727507e-01 1.986432e+00 2.914300e+00 163 121 49
8.758230e-01 1.786182e+00 3.591516e+00 113 132 183
5.263954e-01 1.503014e+00 3.389286e+00 158 128 123
7.091777e-01 1.776684e+00 3.579410e+00 20 18 31
7.078285e-01 1.687513e+00 3.529900e+00 18 20 39
7.078285e-01 1.687513e+00 3.529900e+00 18 20 39
8.089714e-01 1.719671e+00 3.651228e+00 173 144 82
6.968072e-01 1.666165e+00 3.507697e+00 176 151 138
7.405359e-01 1.801328e+00 3.635008e+00 72 47 12
6.788583e-01 1.558842e+00 3.445965e+00 170 148 134
3.688327e-01 1.755455e+00 3.746405e+00 161 155 126
5.373645e-01 1.475005e+00 3.438928e+00 143 116 120
5.457257e-01 1.513430e+00 3.414063e+00 141 127 126
4.652618e-01 1.513458e+00 3.419848e+00 93 57 46
4.652618e-01 1.513458e+00 3.419848e+00 93 57 46
6.673892e-01 1.581910e+00 3.448815e+00 163 139 130
5.446271e-01 1.723586e+00 3.603324e+00 15 12 20
6.386100e-01 1.742239e+00 3.580345e+00 1 3 15
8.683774e-01 1.713466e+00 3.705152e+00 19 26 71
5.622285e-01 1.774962e+00 3.626138e+00 109 88 46
5.423932e-01 1.974877e+00 3.658414e+00 217 213 167
1.211413e+00 1.689260e+00 3.412446e+00 207 193 187
1.081826e+00 1.832448e+00 3.262871e+00 131 71 86
5.191571e-01 1.687777e+00 3.504657e+00 62 21 13
9.393080e-01 1.452957e+00 3.599061e+00 142 109 66
6.408376e-01 1.648663e+00 3.498043e+00 120 92 77
1.104008e+00 1.694777e+00 3.596808e+00 146 142 94
1.266707e+00 1.622216e+00 3.276916e+00 204 191 182
2.298608e-01 1.830214e+00 3.477555e+00 150 146 113
2.298608e-01 1.830214e+00 3.477555e+00 150 146 113
1.258472e+00 1.609080e+00 3.330843e+00 205 189 174
9.732020e-01 1.863620e+00 3.102901e+00 245 222 114
9.824753e-01 1.871721e+00 3.190017e+00 245 222 114
8.150015e-01 1.927083e+00 3.540731e+00 190 155 117
2.497692e-01 1.846908e+00 3.472471e+00 204 200 168
1.116395e+00 1.433941e+00 3.527288e+00 25 25 49
1.071965e+00 1.555419e+00 3.590066e+00 143 119 112
1.139402e+00 1.553223e+00 3.420268e+00 24 1 1
1.099783e+00 1.578181e+00 3.625817e+00 6 1 22
4.898457e-01 1.636535e+00 3.501521e+00 31 13 3
4.707706e-01 1.645544e+00 3.500289e+00 144 106 49
1.326728e+00 1.799496e+00 2.961978e+00 90 59 27
1.296168e+00 1.801032e+00 2.922591e+00 67 33 11
1.133131e-01 1.786704e+00 3.135738e+00 225 215 213
1.206600e+00 1.327990e+00 3.577165e+00 105 51 0
7.184921e-01 1.483113e+00 3.361513e+00 136 97 41
1.103044e+00 1.627453e+00 3.655042e+00 34 20 9
5.559579e-01 1.518332e+00 3.463164e+00 23 17 27
1.169850e+00 1.655934e+00 3.288058e+00 71 55 56
1.198419e+00 1.671837e+00 3.156834e+00 204 201 198
1.240708e+00 1.721235e+00 3.231391e+00 204 195 194
5.082407e-01 1.581253e+00 3.478140e+00 84 64 42
1.260757e+00 1.799060e+00 2.958878e+00 177 150 136
6.179251e-01 1.749966e+00 3.506872e+00 18 5 2
6.502229e-01 1.776995e+00 3.530972e+00 149 146 120
8.653488e-01 1.858653e+00 3.250062e+00 231 168 95
8.123929e-01 1.878806e+00 3.579474e+00 133 59 23
8.856692e-01 1.871710e+00 3.134424e+00 238 162 103
2.057787e-01 1.791522e+00 3.403644e+00 237 227 206
2.888009e-01 1.969884e+00 3.542261e+00 180 175 134
2.819529e-01 2.003818e+00 3.398192e+00 214 211 172
7.728484e-01 2.108488e+00 2.825449e+00 160 132 67
7.992415e-01 2.132103e+00 2.934149e+00 40 39 11
1.712243e+00 2.363923e+00 2.378207e+00 52 10 0
6.549046e-01 1.532358e+00 3.409138e+00 135 70 0
5.177532e-01 1.588789e+00 3.514998e+00 99 65 64
1.092400e+00 1.611595e+00 3.646086e+00 169 161 169
3.417491e-01 2.673613e+00 2.514091e+00 126 98 55
1.157429e+00 2.795894e+00 2.602722e+00 199 180 173
1.943082e-01 2.758156e+00 2.678535e+00 175 170 150
8.337182e-01 1.619438e+00 3.247205e+00 55 21 1
3.127167e-01 2.780080e+00 2.664747e+00 14 11 14
9.966073e-01 1.370299e+00 3.492891e+00 33 10 0
9.891943e-01 1.406064e+00 3.523723e+00 5 4 16
9.891943e-01 1.406064e+00 3.523723e+00 5 4 16
9.524040e-01 1.423875e+00 3.549673e+00 172 137 117
5.291909e-01 1.603310e+00 3.516213e+00 146 139 119
9.634156e-01 1.590036e+00 3.679638e+00 184 173 170
6.902838e-01 1.732544e+00 3.557907e+00 26 9 18
6.836771e-01 1.768363e+00 3.598663e+00 53 51 62
1.418702e+00 2.870765e+00 2.607446e+00 131 120 106
1.090940e+00 1.430124e+00 3.494557e+00 43 37 47
1.218687e+00 1.690825e+00 3.193308e+00 130 118 107
1.218687e+00 1.690825e+00 3.193308e+00 130 118 107
7.920801e-01 1.869797e+00 3.330086e+00 176 142 83
8.344204e-02 2.215499e+00 2.584162e+00 79 32 14
8.344204e-02 2.215499e+00 2.584162e+00 79 32 14
8.725544e-01 1.382467e+00 3.486189e+00 78 44 28
1.197236e+00 1.719985e+00 3.209806e+00 208 195 176
3.461816e-02 2.352731e+00 2.473036e+00 146 118 63
8.875725e-01 1.694338e+00 3.298681e+00 152 126 109
4.476443e-01 2.769852e+00 2.672091e+00 191 180 156
3.868224e-01 2.757796e+00 2.698174e+00 7 12 44
1.114625e+00 1.627061e+00 3.646650e+00 5 24 95
1.099094e+00 1.705761e+00 3.679605e+00 179 160 111
2.446601e-01 2.763469e+00 2.685390e+00 7 8 35
3.148451e-01 2.799819e+00 2.704515e+00 180 167 171
1.155660e+00 1.508050e+00 3.341408e+00 142 108 61
1.167471e+00 1.584864e+00 3.323017e+00 208 187 170
1.233810e+00 1.779032e+00 3.146281e+00 11 4 0
9.323526e-01 1.447626e+00 3.579566e+00 175 131 89
7.908585e-01 1.715892e+00 3.273284e+00 65 1 0
1.140770e+00 1.622956e+00 3.649588e+00 166 130 93
4.739390e-01 1.987085e+00 2.871823e+00 255 239 218
1.640703e+00 2.683760e+00 2.614894e+00 167 145 95
3.441637e-01 2.800627e+00 2.697672e+00 182 167 164
8.873183e-01 1.284610e+00 3.563230e+00 107 46 0
1.055877e+00 1.391589e+00 3.471211e+00 27 6 1
1.010958e+00 1.380488e+00 3.497351e+00 139 129 116
8.917842e-01 1.387342e+00 3.529565e+00 29 17 25
9.225734e-01 1.398702e+00 3.542877e+00 41 3 1
1.036913e+00 1.453174e+00 3.549267e+00 173 144 132
1.073120e+00 1.499445e+00 3.584582e+00 87 53 36
9.470198e-01 1.488192e+00 3.613132e+00 176 154 133
1.064552e+00 1.511000e+00 3.597144e+00 168 150 136
1.168915e+00 1.657408e+00 3.284573e+00 201 202 205
1.006905e+00 1.505596e+00 3.612578e+00 168 151 137
9.652429e-01 1.528672e+00 3.633138e+00 187 169 154
9.652429e-01 1.528672e+00 3.633138e+00 187 169 154
7.951675e-01 1.705954e+00 3.256695e+00 97 39 28
7.943035e-01 1.694639e+00 3.280211e+00 97 39 28
1.026298e+00 1.567356e+00 3.642406e+00 187 166 151
6.841117e-01 1.638488e+00 3.485469e+00 160 137 113
3.041237e-03 1.780535e+00 3.102704e+00 146 108 54
8.922054e-01 1.661014e+00 3.750126e+00 156 139 128
8.708858e-01 1.697566e+00 3.701272e+00 123 114 137
1.563201e+00 2.929626e+00 2.746834e+00 140 128 114
1.563201e+00 2.929626e+00 2.746834e+00 140 128 114
1.574118e+00 2.935120e+00 2.760196e+00 188 177 168
1.941868e-01 2.744283e+00 2.698110e+00 176 169 153
9.295884e-01 1.507182e+00 3.620712e+00 30 23 29
9.388209e-01 1.363127e+00 3.501019e+00 20 8 13
9.388209e-01 1.363127e+00 3.501019e+00 20 8 13
1.025614e+00 1.382017e+00 3.478055e+00 52 19 3
1.049930e+00 1.436232e+00 3.535602e+00 153 121 114
9.334042e-01 1.473200e+00 3.599192e+00 167 137 108
8.802877e-01 1.512180e+00 3.575222e+00 150 133 118
1.045473e+00 1.544752e+00 3.617688e+00 189 157 160
1.045473e+00 1.544752e+00 3.617688e+00 189 157 160
9.538693e-01 1.544698e+00 3.646688e+00 184 168 158
9.538693e-01 1.544698e+00 3.646688e+00 184 168 158
1.057037e+00 1.586418e+00 3.641052e+00 184 163 159
1.057037e+00 1.586418e+00 3.641052e+00 184 163 159
1.023163e+00 1.584704e+00 3.656216e+00 130 106 88
9.808892e-01 1.615267e+00 3.693716e+00 64 63 60
1.091341e+00 1.641935e+00 3.655266e+00 117 124 95
1.089883e+00 1.648440e+00 3.671290e+00 61 52 40
5.913062e-01 1.696985e+00 3.558006e+00 79 1 0
6.232639e-01 1.713539e+00 3.568648e+00 54 12 0
1.090726e+00 1.681285e+00 3.690324e+00 186 173 129
5.651419e-01 1.755688e+00 3.632855e+00 15 4 3
5.651419e-01 1.755688e+00 3.632855e+00 15 4 3
6.546465e-01 1.774297e+00 3.609239e+00 10 6 3
1.414929e+00 2.845754e+00 2.648478e+00 137 124 108
1.390537e+00 2.880375e+00 2.678713e+00 140 126 112
1.213033e+00 1.680886e+00 3.395689e+00 207 193 187
8.646786e-01 1.887795e+00 3.071682e+00 194 66 27
8.978620e-01 1.682855e+00 3.711694e+00 133 140 71
6.997230e-01 1.852302e+00 3.630802e+00 122 118 67
9.851055e-01 1.613869e+00 3.674443e+00 47 34 57
9.662717e-01 1.710368e+00 3.711606e+00 99 40 50
1.039386e+00 1.744234e+00 3.654811e+00 12 39 103
1.082234e+00 1.762109e+00 3.593310e+00 179 177 142
4.903722e-01 1.637458e+00 3.503700e+00 31 13 3
8.754070e-01 1.816468e+00 3.524913e+00 8 32 99
9.696318e-01 1.862620e+00 3.088559e+00 240 215 123
1.134364e+00 1.487693e+00 3.534113e+00 130 83 54
1.075682e+00 1.505511e+00 3.583526e+00 57 31 19
1.223608e+00 1.536680e+00 3.324375e+00 109 69 37
1.202915e+00 1.558738e+00 3.328134e+00 210 201 191
1.220365e+00 1.582806e+00 3.318466e+00 206 190 173
1.067294e+00 1.593590e+00 3.654305e+00 157 140 124
1.010255e+00 1.592327e+00 3.650160e+00 84 70 58
1.172757e+00 1.623140e+00 3.253972e+00 39 30 35
1.172757e+00 1.623140e+00 3.253972e+00 39 30 35
1.113310e+00 1.679005e+00 3.714820e+00 61 52 37
1.243536e+00 1.655387e+00 3.198903e+00 215 193 164
1.005976e+00 1.744843e+00 3.680002e+00 12 51 141
9.368653e-01 1.814459e+00 3.571807e+00 70 70 74
1.032713e+00 1.846657e+00 3.511016e+00 17 53 144
1.004993e+00 1.844909e+00 3.529984e+00 213 218 244
9.644858e-01 1.840720e+00 3.085192e+00 102 66 59
7.258783e-01 1.829712e+00 3.633084e+00 110 109 68
8.222097e-01 1.830726e+00 3.177932e+00 220 174 117
5.675181e-01 1.843158e+00 3.676906e+00 225 226 188
8.793240e-01 1.928674e+00 2.973286e+00 220 214 134
7.259429e-01 2.281574e+00 5.396771e+00 218 210 177
7.687799e-01 2.302379e+00 4.649480e+00 37 41 17
5.461620e-01 1.626796e+00 3.502208e+00 41 29 5
1.068348e+00 1.659390e+00 3.675213e+00 51 31 34
9.021531e-01 1.374595e+00 3.535139e+00 38 12 14
1.328134e+00 1.685294e+00 3.092312e+00 212 194 170
1.086482e+00 1.764994e+00 3.637760e+00 171 193 122
1.354672e+00 1.754458e+00 2.993129e+00 102 83 69
9.024825e-01 1.818876e+00 3.567039e+00 216 210 238
1.072199e+00 1.863658e+00 3.080776e+00 22 11 11
8.704570e-01 1.862551e+00 3.181784e+00 233 166 96
8.704570e-01 1.862551e+00 3.181784e+00 233 166 96
3.155600e-01 1.989427e+00 2.744937e+00 218 202 172
4.265396e-01 1.888344e+00 3.326562e+00 172 142 83
4.818079e-01 1.524749e+00 3.338439e+00 63 46 47
6.943332e-01 1.580844e+00 3.433461e+00 161 133 104
7.105057e-01 1.696064e+00 3.515426e+00 21 23 39
7.108000e-01 1.726199e+00 3.551239e+00 18 16 29
8.696764e-01 1.410384e+00 3.515802e+00 139 114 86
3.894619e-01 2.020587e+00 2.837479e+00 251 237 211
1.025760e+00 1.666106e+00 3.702035e+00 88 103 71
7.187208e-01 1.680893e+00 3.512682e+00 23 14 17
9.293012e-01 1.361935e+00 3.534699e+00 105 105 114
4.684540e-01 1.583504e+00 3.269631e+00 71 43 36
7.483244e-01 1.545696e+00 3.383189e+00 85 76 76
7.214510e-01 1.681341e+00 3.505764e+00 22 8 8
8.800724e-01 1.679388e+00 3.740701e+00 27 24 47
1.104798e+00 1.402058e+00 3.464726e+00 14 5 3
8.772490e-01 1.392836e+00 3.513529e+00 138 126 130
9.938275e-01 1.500089e+00 3.600402e+00 177 154 140
5.070217e-01 1.637167e+00 3.536788e+00 156 138 133
4.684235e-01 1.776100e+00 3.489706e+00 148 117 71
4.668702e-01 1.817599e+00 3.516144e+00 115 87 50
6.835735e-01 1.741469e+00 3.781275e+00 87 69 43
1.020841e+00 1.375383e+00 3.489323e+00 45 10 4
5.639401e-01 1.460670e+00 3.387706e+00 39 32 7
6.272089e-01 1.475182e+00 3.377370e+00 17 31 17
6.898782e-01 1.491610e+00 3.362369e+00 27 19 30
9.563353e-01 1.402483e+00 3.532249e+00 157 127 130
9.563353e-01 1.402483e+00 3.532249e+00 157 127 130
9.870556e-01 1.428470e+00 3.512053e+00 147 118 118
5.369057e-01 1.489504e+00 3.410907e+00 156 125 126
8.789868e-01 1.432932e+00 3.548136e+00 133 121 117
1.074859e+00 1.474530e+00 3.545157e+00 183 149 125
1.085319e+00 1.573275e+00 3.631631e+00 18 15 44
1.033174e+00 1.579374e+00 3.651475e+00 181 168 156
5.757274e-01 1.643111e+00 3.540020e+00 50 46 16
1.006674e+00 1.589369e+00 3.663092e+00 85 75 62
5.375099e-01 1.665956e+00 3.528667e+00 112 111 97
4.903285e-01 1.676580e+00 3.544600e+00 137 113 117
9.346597e-01 1.605119e+00 3.705186e+00 153 130 137
1.007256e+00 1.620434e+00 3.696339e+00 184 142 72
9.831454e-01 1.613803e+00 3.711664e+00 175 158 56
8.794884e-01 1.617048e+00 3.698622e+00 157 154 171
6.200575e-01 1.742721e+00 3.603173e+00 6 7 19
4.605153e-01 1.849171e+00 3.445023e+00 100 71 26
8.942160e-01 1.662439e+00 3.745314e+00 158 153 137
6.843640e-01 1.764021e+00 3.603014e+00 56 51 64
6.813612e-01 1.785001e+00 3.593978e+00 19 6 12
1.711050e+00 2.916505e+00 2.768430e+00 193 180 158
9.799937e-01 3.004876e+00 -1.404441e+01 0 255 0
9.806024e-01 3.008657e+00 -1.409427e+01 255 255 0
9.797668e-01 3.221027e+00 -1.834373e+01 255 0 0
9.802689e-01 3.224370e+00 -1.839361e+01 255 255 0
-6.085553e+01 -2.169807e+02 3.437187e+03 0 255 0
-6.085463e+01 -2.169776e+02 3.437137e+03 255 255 0
-2.172824e+02 -5.741016e+02 5.841401e+03 255 0 0
-2.172805e+02 -5.740967e+02 5.841351e+03 255 255 0
-9.478313e+01 -1.565866e+02 9.482422e+02 0 255 0
-9.477817e+01 -1.565784e+02 9.481931e+02 255 255 0
5.528777e+02 1.385808e+03 -5.118338e+03 255 0 0
5.528829e+02 1.385821e+03 -5.118386e+03 255 255 0
-6.398848e-01 -4.474202e+00 2.008238e+01 0 255 0
-6.361536e-01 -4.456549e+00 2.003574e+01 255 255 0
-1.236332e-01 -3.714689e+00 1.552074e+01 255 0 0
-1.201447e-01 -3.693748e+00 1.547547e+01 255 255 0
1.655579e-01 -2.913403e+00 1.236922e+01 0 255 0
1.686023e-01 -2.890256e+00 1.232501e+01 255 255 0
3.075919e+00 3.791978e+00 1.841834e+01 255 0 0
3.068219e+00 3.785340e+00 1.836938e+01 255 255 0
6.371728e+01 7.988151e+01 8.250311e+02 0 255 0
6.371348e+01 7.987679e+01 8.249814e+02 255 255 0
-2.105055e+00 -4.934813e+00 -6.756717e+01 255 0 0
-2.107275e+00 -4.939480e+00 -6.761691e+01 255 255 0
3.230515e-02 -2.162265e+00 8.958593e+00 0 255 0
3.837859e-02 -2.133936e+00 8.917843e+00 255 255 0
-4.737884e-01 -1.067433e+00 7.036212e+00 255 0 0
-4.609065e-01 -1.038137e+00 6.997796e+00 255 255 0
2.891209e+00 3.013683e+00 9.754656e+00 0 255 0
2.875379e+00 3.004823e+00 9.708063e+00 255 255 0
