ply
format ascii 1.0
element vertex 875
property float x
property float y
property float z
property uchar diffuse_red
property uchar diffuse_green
property uchar diffuse_blue
end_header
6.785126e-01 2.086166e+00 3.862262e+00 62 32 36
4.580864e-01 2.365141e+00 5.863625e+00 65 85 84
8.055505e-01 2.124751e+00 3.791850e+00 49 40 45
1.352402e+00 1.985373e+00 3.466950e+00 204 195 182
1.158481e+00 1.942946e+00 3.834106e+00 159 144 138
3.480352e-01 2.210203e+00 3.187631e+00 214 208 207
8.271337e-01 2.528381e+00 3.317848e+00 72 87 83
1.234018e+00 1.807633e+00 3.622639e+00 36 33 41
1.232838e+00 1.808934e+00 3.623346e+00 36 33 41
1.116820e+00 1.776501e+00 3.644507e+00 49 53 59
1.013649e+00 2.182464e+00 3.550705e+00 62 86 138
1.114047e+00 2.214990e+00 3.468461e+00 213 215 227
3.573298e-01 2.295030e+00 3.328390e+00 177 120 38
1.008634e+00 2.324330e+00 3.596902e+00 175 123 29
2.091813e-01 2.689360e+00 2.925136e+00 70 28 17
1.089031e+00 1.826119e+00 3.691820e+00 151 119 88
1.272886e+00 1.908275e+00 3.744571e+00 13 29 82
1.260052e+00 1.945424e+00 3.749830e+00 2 31 102
1.382362e+00 1.991369e+00 3.400597e+00 209 198 196
9.469687e-01 2.089690e+00 3.451604e+00 88 23 19
8.631704e-01 2.100032e+00 3.528488e+00 20 13 31
8.631704e-01 2.100032e+00 3.528488e+00 20 13 31
5.711883e-01 2.145551e+00 3.467521e+00 233 231 216
5.804004e-01 2.164973e+00 3.208666e+00 233 231 216
1.015746e+00 1.890795e+00 3.658725e+00 138 110 95
1.049630e+00 1.951386e+00 3.806847e+00 6 27 89
1.011995e+00 1.955970e+00 3.732887e+00 130 111 95
9.769026e-01 1.987787e+00 3.518860e+00 59 27 11
6.237487e-01 2.097405e+00 3.150984e+00 155 117 77
1.455041e+00 2.143542e+00 3.253940e+00 23 19 18
1.256419e+00 2.097931e+00 3.755770e+00 185 162 121
1.129167e+00 2.121705e+00 3.804973e+00 18 71 167
1.828248e-01 2.156528e+00 3.224088e+00 238 234 226
1.791836e-01 2.157758e+00 3.228259e+00 238 234 226
8.498898e-01 2.163361e+00 3.723962e+00 30 18 24
8.507059e-01 2.162651e+00 3.723899e+00 30 18 24
2.105521e-01 2.197125e+00 3.170884e+00 97 102 132
1.257614e+00 1.836452e+00 3.647866e+00 23 20 58
1.237981e+00 1.871313e+00 3.687725e+00 185 144 116
9.887286e-01 1.889440e+00 3.487739e+00 80 47 19
6.709774e-01 1.875196e+00 3.561300e+00 150 135 129
7.636288e-01 1.892730e+00 3.538287e+00 167 134 21
6.434523e-01 1.907251e+00 3.489010e+00 94 69 45
8.668283e-01 1.931062e+00 3.527484e+00 35 20 22
6.744460e-01 1.919816e+00 3.592632e+00 146 129 109
8.308792e-01 1.960370e+00 3.579893e+00 157 136 115
1.268704e+00 2.010316e+00 3.724614e+00 5 24 81
1.176599e+00 2.049415e+00 3.835765e+00 52 58 23
1.080750e+00 2.101721e+00 3.831472e+00 228 214 203
1.389305e+00 2.170012e+00 3.215840e+00 12 8 13
8.859750e-01 2.122253e+00 3.719523e+00 237 215 112
7.760912e-01 2.166932e+00 3.468206e+00 24 27 29
1.000432e+00 2.180502e+00 3.781122e+00 29 63 141
1.116273e+00 2.218426e+00 3.426669e+00 214 217 228
1.937789e-01 2.233403e+00 3.153916e+00 238 233 221
1.936541e-01 2.236023e+00 3.125937e+00 238 233 221
3.805325e-01 2.246669e+00 3.287086e+00 249 236 227
1.055823e+00 2.294316e+00 3.150127e+00 244 232 98
1.055823e+00 2.294316e+00 3.150127e+00 244 232 98
9.954074e-01 2.372392e+00 3.184728e+00 165 116 42
9.361671e-01 2.233156e+00 5.273500e+00 218 218 193
2.544587e-01 2.491361e+00 2.819805e+00 43 6 0
1.026012e+00 1.757957e+00 3.643796e+00 54 35 38
1.344053e+00 1.931462e+00 3.468901e+00 240 232 224
1.076544e+00 1.892263e+00 3.754251e+00 25 26 16
7.087503e-01 1.924664e+00 3.596320e+00 23 12 28
1.383486e+00 1.970162e+00 3.429757e+00 228 215 203
1.309555e+00 1.965618e+00 3.453482e+00 218 212 196
1.411275e+00 1.997761e+00 3.434184e+00 224 207 197
1.411259e+00 2.000223e+00 3.409118e+00 224 207 197
1.299302e+00 2.000572e+00 3.561800e+00 200 202 220
1.407303e+00 2.031293e+00 3.353817e+00 111 104 88
1.406712e+00 2.031620e+00 3.353759e+00 111 104 88
7.893544e-01 1.986097e+00 3.612141e+00 63 51 37
1.406527e+00 2.062548e+00 3.321219e+00 229 208 189
1.440628e+00 2.064224e+00 3.302349e+00 119 103 99
1.045013e+00 2.009500e+00 3.845824e+00 8 16 69
1.045752e+00 2.007537e+00 3.850670e+00 8 16 69
1.112672e+00 2.031840e+00 3.702913e+00 158 144 95
8.419757e-01 2.050209e+00 3.662894e+00 167 151 150
1.110136e+00 2.045849e+00 3.852729e+00 3 17 39
1.047073e+00 2.064298e+00 3.896101e+00 158 144 119
1.408701e+00 2.139146e+00 3.232640e+00 219 217 223
1.358707e+00 2.171259e+00 3.091377e+00 204 194 191
1.459210e+00 2.182009e+00 3.185916e+00 166 134 130
1.163409e+00 2.134023e+00 3.783002e+00 9 57 151
9.019303e-01 2.186117e+00 3.700359e+00 174 71 37
1.054637e+00 2.177135e+00 3.936139e+00 192 194 229
4.281515e-01 2.180471e+00 3.653904e+00 245 235 219
4.281515e-01 2.180471e+00 3.653904e+00 245 235 219
4.064102e-01 2.201885e+00 3.476047e+00 152 127 90
4.053512e-01 2.203467e+00 3.498706e+00 152 127 90
1.017045e+00 2.304196e+00 3.133559e+00 241 223 109
4.447690e-01 2.496004e+00 2.817645e+00 73 70 50
1.168192e+00 1.823932e+00 3.682893e+00 43 10 3
9.914225e-01 1.761130e+00 4.355250e+00 78 48 14
1.214210e+00 1.857242e+00 3.687475e+00 182 156 137
8.561957e-01 1.862804e+00 3.477162e+00 149 104 40
1.290486e+00 1.883962e+00 3.610078e+00 142 101 54
1.075804e+00 1.868788e+00 3.741109e+00 165 140 121
7.101115e-01 1.878525e+00 3.545908e+00 22 34 46
7.112233e-01 1.879869e+00 3.543354e+00 22 34 46
8.133645e-01 1.900246e+00 3.526530e+00 153 130 31
1.365946e+00 1.953820e+00 3.426951e+00 71 60 47
1.042077e+00 1.911778e+00 3.782860e+00 15 22 58
7.363806e-01 1.920531e+00 3.572750e+00 157 137 57
1.337737e+00 1.961245e+00 3.423288e+00 56 46 44
1.337234e+00 1.960165e+00 3.429977e+00 56 46 44
1.411193e+00 1.967016e+00 3.429784e+00 123 94 44
1.243940e+00 1.958159e+00 3.756569e+00 5 8 53
6.593860e-01 1.954395e+00 3.629373e+00 146 126 120
1.243943e+00 1.989778e+00 3.771138e+00 179 170 177
1.128551e+00 1.991401e+00 3.807155e+00 45 46 60
7.950557e-01 2.011756e+00 3.622832e+00 169 152 141
7.399723e-01 2.017440e+00 3.648046e+00 74 42 41
7.400860e-01 2.017417e+00 3.648166e+00 74 42 41
1.260266e+00 2.032954e+00 3.790470e+00 180 169 171
6.847446e-01 2.040652e+00 3.541782e+00 100 95 86
6.477186e-01 2.030667e+00 3.697341e+00 28 11 21
7.329391e-01 2.038413e+00 3.676272e+00 143 123 127
1.521926e+00 2.129381e+00 3.229625e+00 206 188 163
1.298505e+00 2.093031e+00 3.671307e+00 117 83 82
9.301166e-01 2.112308e+00 3.386898e+00 56 7 0
1.124557e+00 2.095771e+00 3.843668e+00 33 58 92
9.890727e-01 2.112113e+00 3.619631e+00 70 41 35
1.418767e+00 2.190157e+00 3.193606e+00 192 161 146
1.254118e+00 2.155285e+00 3.559932e+00 19 21 66
1.391561e+00 2.215889e+00 3.173657e+00 74 50 32
1.390988e+00 2.214963e+00 3.185374e+00 74 50 32
9.856721e-01 2.165698e+00 4.097227e+00 37 51 99
8.634384e-01 2.161032e+00 4.171927e+00 180 144 115
2.759240e-01 2.238687e+00 3.117421e+00 48 49 71
1.151784e+00 2.269563e+00 3.317553e+00 38 38 6
1.089990e+00 2.289838e+00 3.321106e+00 131 100 33
9.607392e-01 2.281458e+00 3.784542e+00 192 182 143
3.897944e-01 2.347727e+00 3.074380e+00 153 117 51
9.390926e-01 2.446911e+00 3.406634e+00 141 113 57
8.799622e-01 2.381510e+00 4.408934e+00 227 222 214
4.507884e-01 2.474404e+00 2.823895e+00 166 129 54
1.245435e+00 1.778912e+00 3.599347e+00 34 9 1
1.264317e+00 1.810576e+00 3.618654e+00 30 25 39
1.072927e+00 1.802602e+00 3.685517e+00 174 137 113
1.099183e+00 1.823513e+00 3.577355e+00 167 143 116
1.221990e+00 1.824500e+00 3.661223e+00 123 111 113
1.210229e+00 1.838819e+00 3.678952e+00 37 8 5
1.282563e+00 1.883958e+00 3.363399e+00 141 110 78
1.096569e+00 1.860459e+00 3.731620e+00 89 72 64
1.040688e+00 1.859440e+00 3.735732e+00 31 11 12
6.506897e-01 1.867450e+00 3.562071e+00 90 56 28
1.266936e+00 1.917955e+00 3.303006e+00 32 25 40
1.364132e+00 1.953900e+00 3.019286e+00 116 92 46
1.054157e+00 1.882803e+00 3.749257e+00 20 9 10
6.637170e-01 1.884765e+00 3.586261e+00 160 143 133
8.596434e-01 1.904898e+00 3.510867e+00 129 118 74
7.349167e-01 1.901651e+00 3.565861e+00 54 42 8
7.343732e-01 1.900679e+00 3.565308e+00 54 42 8
1.076450e+00 1.902471e+00 3.761665e+00 34 23 33
8.003291e-01 1.914414e+00 3.559796e+00 129 73 0
1.070566e+00 1.921359e+00 3.783457e+00 139 121 128
7.429654e-01 1.940928e+00 3.579995e+00 27 12 1
7.672828e-01 1.944776e+00 3.578341e+00 167 141 132
7.670572e-01 1.944765e+00 3.578541e+00 167 141 132
6.473891e-01 1.977496e+00 3.347257e+00 95 72 51
1.080177e+00 1.956146e+00 3.805734e+00 179 177 188
1.233733e+00 1.969892e+00 3.756623e+00 160 148 160
1.102350e+00 1.960869e+00 3.804763e+00 79 57 61
1.102429e+00 1.960491e+00 3.805338e+00 79 57 61
1.177326e+00 1.984751e+00 3.801625e+00 185 172 163
1.143766e+00 1.980145e+00 3.810264e+00 170 167 167
6.376444e-01 1.985119e+00 3.572235e+00 95 69 42
6.600850e-01 1.986136e+00 3.662118e+00 157 133 119
1.052770e+00 1.989336e+00 3.835333e+00 135 108 138
9.857627e-01 2.027593e+00 3.593635e+00 55 38 40
6.663725e-01 2.006103e+00 3.676350e+00 26 28 4
1.486574e+00 2.082157e+00 3.272044e+00 218 201 177
1.483975e+00 2.077496e+00 3.303049e+00 218 201 177
7.416982e-01 2.140749e+00 2.466731e+00 118 101 107
1.378231e+00 2.084821e+00 3.428425e+00 218 217 219
1.055785e+00 2.035478e+00 3.863033e+00 12 17 33
7.240031e-01 2.055192e+00 3.684400e+00 35 8 24
6.998211e-01 2.050351e+00 3.693627e+00 21 2 14
7.465873e-01 2.058502e+00 3.682619e+00 35 16 20
9.568610e-01 2.131439e+00 3.377913e+00 144 63 33
1.280193e+00 2.129541e+00 3.590989e+00 63 28 55
1.338978e+00 2.152891e+00 3.341998e+00 128 87 110
9.733616e-01 2.137310e+00 3.456123e+00 220 191 148
9.709878e-01 2.133235e+00 3.520237e+00 220 191 148
6.786543e-01 2.110615e+00 3.744917e+00 28 16 24
7.024235e-01 2.121081e+00 3.761082e+00 105 85 88
3.817367e-01 2.156606e+00 3.198376e+00 138 109 77
1.358918e+00 2.175957e+00 3.380750e+00 70 38 56
9.375499e-01 2.162600e+00 3.334940e+00 150 81 34
1.398079e+00 2.108571e+00 4.302494e+00 201 174 171
7.997829e-01 2.146487e+00 3.681242e+00 98 89 97
1.262056e+00 2.305939e+00 1.896735e+00 140 116 155
1.054429e+00 2.150473e+00 3.760172e+00 217 215 245
1.054429e+00 2.150473e+00 3.760172e+00 217 215 245
6.709933e-01 2.135468e+00 3.776403e+00 11 3 10
8.015449e-01 2.160359e+00 3.751344e+00 17 9 17
9.592261e-01 2.269821e+00 2.584193e+00 241 163 113
1.296925e+00 2.239463e+00 3.216869e+00 73 67 19
2.669094e-01 2.207342e+00 3.165340e+00 219 219 221
8.354271e-01 2.187104e+00 3.726601e+00 157 150 129
9.665435e-01 2.188591e+00 3.853533e+00 213 152 119
9.735010e-01 2.229427e+00 3.313639e+00 213 152 119
8.453804e-01 2.337885e+00 2.055792e+00 173 171 132
8.453804e-01 2.337885e+00 2.055792e+00 173 171 132
9.495782e-01 2.314308e+00 3.661302e+00 167 164 131
8.566092e-01 2.471189e+00 3.251966e+00 218 225 213
2.318348e-01 2.738080e+00 2.625244e+00 69 29 9
2.466281e-01 2.762552e+00 2.470314e+00 149 125 83
8.006336e-01 1.872259e+00 3.509841e+00 23 44 60
8.005854e-01 1.871889e+00 3.509760e+00 23 44 60
1.179383e+00 1.787036e+00 3.624284e+00 29 11 19
8.592402e-01 2.009462e+00 3.539142e+00 119 106 94
7.829632e-01 2.066469e+00 3.635182e+00 26 2 6
1.322656e+00 1.893018e+00 3.483872e+00 172 120 52
1.125553e+00 2.016331e+00 3.830482e+00 158 162 69
8.838595e-01 2.212316e+00 3.837460e+00 135 128 93
8.264223e-01 2.455202e+00 3.505638e+00 211 216 198
7.945441e-01 2.459769e+00 3.503982e+00 214 217 204
7.063732e-01 1.944338e+00 3.605242e+00 150 129 135
1.353638e+00 2.096127e+00 3.414409e+00 214 203 196
4.967385e-01 2.199172e+00 3.808860e+00 161 154 121
4.967385e-01 2.199172e+00 3.808860e+00 161 154 121
8.579944e-01 2.129676e+00 3.592630e+00 22 23 33
3.226341e-01 2.249605e+00 3.135438e+00 223 204 195
6.880442e-01 1.846690e+00 3.540008e+00 28 40 81
6.895956e-01 1.847682e+00 3.526668e+00 28 40 81
9.937025e-01 2.107949e+00 3.506856e+00 74 43 31
8.595590e-01 2.185727e+00 3.662830e+00 26 1 2
6.094800e-01 2.237288e+00 3.817653e+00 224 212 187
1.056206e+00 1.738501e+00 3.645205e+00 141 95 57
7.864800e-01 1.897533e+00 3.539708e+00 175 130 38
1.022072e+00 1.890245e+00 3.715681e+00 142 119 101
8.684822e-01 1.920285e+00 3.505398e+00 19 6 0
7.124131e-01 1.958560e+00 3.622245e+00 81 56 53
6.342589e-01 1.975289e+00 3.660914e+00 87 53 34
1.487424e+00 2.065851e+00 3.279998e+00 158 121 74
1.209422e+00 2.168962e+00 3.718930e+00 197 208 238
1.129475e+00 1.992059e+00 3.814378e+00 46 60 82
7.403600e-01 2.017785e+00 3.662070e+00 55 33 12
1.222145e+00 1.825816e+00 3.672873e+00 126 110 121
1.231024e+00 2.038280e+00 3.808094e+00 148 143 116
1.231185e+00 2.035980e+00 3.796898e+00 148 143 116
1.170778e+00 1.806308e+00 3.671682e+00 96 80 94
1.170778e+00 1.806308e+00 3.671682e+00 96 80 94
8.055839e-01 2.121743e+00 3.671757e+00 73 28 29
1.265766e+00 1.845954e+00 3.659757e+00 21 20 50
1.070333e+00 1.922860e+00 3.780526e+00 135 124 121
1.308719e-01 2.790085e+00 2.452779e+00 80 31 25
9.925194e-01 2.154504e+00 3.315937e+00 220 198 87
7.166596e-01 2.020354e+00 3.661489e+00 56 40 1
1.231859e+00 1.772132e+00 3.611016e+00 39 6 1
1.053013e+00 1.775014e+00 3.675866e+00 125 98 90
8.270044e-01 1.951873e+00 3.553418e+00 176 143 127
1.027322e+00 1.983898e+00 3.797636e+00 151 136 130
9.749113e-01 2.098033e+00 3.369644e+00 85 3 2
1.225763e+00 2.036473e+00 3.813800e+00 160 144 125
6.797366e-01 2.086224e+00 3.731208e+00 43 2 5
1.691566e-01 2.796264e+00 2.389330e+00 147 112 73
5.623756e-01 2.252526e+00 3.119561e+00 253 238 219
8.009381e-01 2.034311e+00 3.641692e+00 127 110 93
3.801388e-01 2.216435e+00 3.142888e+00 201 192 185
3.779223e-01 2.223220e+00 3.130866e+00 201 192 185
1.082198e+00 2.144023e+00 3.764815e+00 127 118 117
1.006472e+00 2.166815e+00 3.688435e+00 33 32 90
8.526324e-01 2.174711e+00 3.680443e+00 25 23 36
6.354532e-01 1.917531e+00 3.459757e+00 93 59 48
1.261520e+00 1.964141e+00 3.702582e+00 6 27 106
9.549105e-01 2.268761e+00 3.162427e+00 197 85 45
1.387150e+00 1.969113e+00 3.438678e+00 221 201 196
6.058672e-01 2.165051e+00 3.184592e+00 242 230 206
9.905068e-01 2.130496e+00 3.372619e+00 236 198 110
6.109461e-01 2.338365e+00 3.039148e+00 254 239 221
1.303051e+00 1.889927e+00 3.467330e+00 144 109 66
1.211889e+00 2.005470e+00 3.842983e+00 141 137 55
1.142585e+00 2.168576e+00 3.733484e+00 178 173 203
1.024474e+00 1.871102e+00 3.693128e+00 144 123 111
1.163503e+00 1.989233e+00 3.804576e+00 185 168 159
6.502768e-01 2.061689e+00 3.698306e+00 23 19 29
5.840204e-01 2.208400e+00 3.851525e+00 97 81 35
1.235285e+00 1.754278e+00 3.618811e+00 136 92 38
1.191505e+00 1.806576e+00 3.659772e+00 5 2 29
6.470066e-01 1.879084e+00 3.580229e+00 83 57 44
1.219317e+00 1.879251e+00 3.724671e+00 79 58 37
1.459428e+00 2.027655e+00 3.376503e+00 214 189 160
1.459428e+00 2.027655e+00 3.376503e+00 214 189 160
6.539024e-01 1.936184e+00 3.612864e+00 50 18 18
7.045023e-01 1.974733e+00 3.619989e+00 157 140 114
7.045023e-01 1.974733e+00 3.619989e+00 157 140 114
1.408831e+00 2.123919e+00 3.289400e+00 209 209 208
7.394840e-01 1.985543e+00 3.634581e+00 83 64 67
7.224972e-01 1.989897e+00 3.622233e+00 76 58 53
1.358188e+00 2.156666e+00 3.284505e+00 206 196 186
8.972695e-01 2.111981e+00 3.374741e+00 36 16 4
1.072452e+00 1.975395e+00 3.805420e+00 53 57 87
6.556394e-01 2.024027e+00 3.652916e+00 152 141 133
1.203400e+00 2.003498e+00 3.801630e+00 85 70 61
1.173465e+00 2.001618e+00 3.807813e+00 45 41 14
1.039617e+00 2.002528e+00 3.825988e+00 25 17 66
1.207362e+00 2.018804e+00 3.802581e+00 160 153 60
1.225785e+00 2.038352e+00 3.813028e+00 159 148 137
5.225801e-01 2.369138e+00 3.014334e+00 163 121 49
1.023785e+00 2.171593e+00 3.715761e+00 113 132 183
6.735736e-01 1.885394e+00 3.521205e+00 158 128 123
8.569202e-01 2.160198e+00 3.709062e+00 20 18 31
8.552998e-01 2.070691e+00 3.660361e+00 18 20 39
8.565803e-01 2.077289e+00 3.643091e+00 18 20 39
9.563527e-01 2.103980e+00 3.782964e+00 173 144 82
8.441592e-01 2.048598e+00 3.639439e+00 176 151 138
8.883549e-01 2.185969e+00 3.763819e+00 72 47 12
8.259358e-01 1.940931e+00 3.578519e+00 170 148 134
5.171020e-01 2.144132e+00 3.875529e+00 161 155 126
6.844128e-01 1.857954e+00 3.572388e+00 143 116 120
6.917818e-01 1.890678e+00 3.553073e+00 141 127 126
6.125663e-01 1.896617e+00 3.551620e+00 93 57 46
6.125663e-01 1.896617e+00 3.551620e+00 93 57 46
8.145733e-01 1.964279e+00 3.580523e+00 163 139 130
6.923228e-01 2.110457e+00 3.731664e+00 15 12 20
7.864117e-01 2.125914e+00 3.710205e+00 1 3 15
1.015629e+00 2.098249e+00 3.837913e+00 19 26 71
7.102898e-01 2.160627e+00 3.754425e+00 109 88 46
6.886414e-01 2.356342e+00 3.806864e+00 217 213 167
1.359509e+00 2.072685e+00 3.543878e+00 207 193 187
1.231542e+00 2.219414e+00 3.391403e+00 131 71 86
6.659712e-01 2.071620e+00 3.636727e+00 62 21 13
1.085165e+00 1.833547e+00 3.733674e+00 142 109 66
7.877677e-01 2.032262e+00 3.630368e+00 120 92 77
1.250447e+00 2.075157e+00 3.737194e+00 146 142 94
1.415937e+00 2.007931e+00 3.400962e+00 204 191 182
3.769951e-01 2.215482e+00 3.608818e+00 150 146 113
3.769951e-01 2.215482e+00 3.608818e+00 150 146 113
1.407198e+00 1.993797e+00 3.457147e+00 205 189 174
1.124301e+00 2.254521e+00 3.225688e+00 245 222 114
1.132927e+00 2.260482e+00 3.316507e+00 245 222 114
9.623439e-01 2.309882e+00 3.684106e+00 190 155 117
3.970418e-01 2.232277e+00 3.604504e+00 204 200 168
1.263064e+00 1.814710e+00 3.657037e+00 25 25 49
1.218202e+00 1.935878e+00 3.727264e+00 143 119 112
1.287193e+00 1.936650e+00 3.549799e+00 24 1 1
1.245687e+00 1.957624e+00 3.763629e+00 6 1 22
6.366012e-01 2.020373e+00 3.631985e+00 31 13 3
6.174657e-01 2.029514e+00 3.630311e+00 144 106 49
1.478416e+00 2.190757e+00 3.067776e+00 90 59 27
1.448951e+00 2.193590e+00 3.034739e+00 67 33 11
2.631940e-01 2.178453e+00 3.247204e+00 225 215 213
1.352720e+00 1.708075e+00 3.710419e+00 105 51 0
8.662677e-01 1.868780e+00 3.483248e+00 136 97 41
1.248854e+00 2.006669e+00 3.796848e+00 34 20 9
7.027421e-01 1.902564e+00 3.588725e+00 23 17 27
1.319008e+00 2.041850e+00 3.413527e+00 71 55 56
1.348538e+00 2.059879e+00 3.273618e+00 204 201 198
1.390503e+00 2.108016e+00 3.355302e+00 204 195 194
6.549981e-01 1.965426e+00 3.605618e+00 84 64 42
1.413209e+00 2.191075e+00 3.072849e+00 177 150 136
7.649706e-01 2.133623e+00 3.641952e+00 18 5 2
7.971526e-01 2.160167e+00 3.668311e+00 149 146 120
1.015165e+00 2.246625e+00 3.378439e+00 231 168 95
9.592592e-01 2.260794e+00 3.723185e+00 133 59 23
1.036566e+00 2.262384e+00 3.259544e+00 238 162 103
3.534180e-01 2.178131e+00 3.529662e+00 237 227 206
4.360118e-01 2.354436e+00 3.683505e+00 180 175 134
4.303828e-01 2.390793e+00 3.532268e+00 214 211 172
9.271817e-01 2.505189e+00 2.942351e+00 160 132 67
9.526683e-01 2.526740e+00 3.056813e+00 40 39 11
1.872849e+00 2.772736e+00 2.379979e+00 52 10 0
8.019118e-01 1.915841e+00 3.539391e+00 135 70 0
6.647864e-01 1.971904e+00 3.649108e+00 99 65 64
1.238637e+00 1.993200e+00 3.782261e+00 169 161 169
4.959055e-01 3.075556e+00 2.547192e+00 126 98 55
1.308842e+00 3.171525e+00 2.678425e+00 199 180 173
3.467986e-01 3.131738e+00 2.771066e+00 175 170 150
9.809493e-01 1.999611e+00 3.373725e+00 55 21 1
4.657792e-01 3.159505e+00 2.742259e+00 14 11 14
1.142536e+00 1.751011e+00 3.632152e+00 33 10 0
1.135647e+00 1.789939e+00 3.660900e+00 5 4 16
1.135647e+00 1.789939e+00 3.660900e+00 5 4 16
1.098558e+00 1.805670e+00 3.688047e+00 172 137 117
6.761788e-01 1.988405e+00 3.647229e+00 146 139 119
1.110820e+00 1.975611e+00 3.809904e+00 184 173 170
8.375476e-01 2.115469e+00 3.690277e+00 26 9 18
8.313235e-01 2.153265e+00 3.727449e+00 53 51 62
1.569333e+00 3.245064e+00 2.683263e+00 131 120 106
1.236521e+00 1.809639e+00 3.635037e+00 43 37 47
1.364748e+00 2.065542e+00 3.323541e+00 130 118 107
1.364748e+00 2.065542e+00 3.323541e+00 130 118 107
9.399949e-01 2.249561e+00 3.453945e+00 176 142 83
2.342233e-01 2.588206e+00 2.687508e+00 79 32 14
2.342233e-01 2.588206e+00 2.687508e+00 79 32 14
1.018554e+00 1.763421e+00 3.625927e+00 78 44 28
1.343483e+00 2.095154e+00 3.339160e+00 208 195 176
1.860714e-01 2.722975e+00 2.573629e+00 146 118 63
1.034651e+00 2.072992e+00 3.427312e+00 152 126 109
5.991427e-01 3.137551e+00 2.771434e+00 191 180 156
5.384318e-01 3.126127e+00 2.798127e+00 7 12 44
1.261255e+00 2.010161e+00 3.780565e+00 5 24 95
1.245753e+00 2.088595e+00 3.813826e+00 179 160 111
3.963347e-01 3.134825e+00 2.780629e+00 7 8 35
4.665304e-01 3.170934e+00 2.799425e+00 180 167 171
1.301306e+00 1.885095e+00 3.478179e+00 142 108 61
1.313349e+00 1.961658e+00 3.457469e+00 208 187 170
1.380100e+00 2.152972e+00 3.273745e+00 11 4 0
1.078704e+00 1.831214e+00 3.718056e+00 175 131 89
9.382335e-01 2.094612e+00 3.400854e+00 65 1 0
1.286977e+00 2.004794e+00 3.786442e+00 166 130 93
6.226504e-01 2.360850e+00 2.988620e+00 255 239 218
1.790205e+00 3.046535e+00 2.710408e+00 167 145 95
4.958086e-01 3.171488e+00 2.792539e+00 182 167 164
1.032922e+00 1.666317e+00 3.707010e+00 107 46 0
1.201416e+00 1.770973e+00 3.612195e+00 27 6 1
1.157283e+00 1.762925e+00 3.636367e+00 139 129 116
1.038614e+00 1.772291e+00 3.667603e+00 29 17 25
1.069266e+00 1.783464e+00 3.680446e+00 41 3 1
1.182959e+00 1.835817e+00 3.687226e+00 173 144 132
1.219437e+00 1.881850e+00 3.720616e+00 87 53 36
1.094327e+00 1.874459e+00 3.744620e+00 176 154 133
1.210930e+00 1.893651e+00 3.732989e+00 168 150 136
1.315024e+00 2.033672e+00 3.416628e+00 201 202 205
1.154258e+00 1.893877e+00 3.740572e+00 168 151 137
1.111782e+00 1.912157e+00 3.769295e+00 187 169 154
1.112013e+00 1.913260e+00 3.768596e+00 187 169 154
9.425088e-01 2.084454e+00 3.384242e+00 97 39 28
9.416114e-01 2.073682e+00 3.407896e+00 97 39 28
1.173587e+00 1.952563e+00 3.773204e+00 187 166 151
8.313779e-01 2.020675e+00 3.617628e+00 160 137 113
1.520602e-01 2.162142e+00 3.220948e+00 146 108 54
1.039218e+00 2.046199e+00 3.885112e+00 156 139 128
1.018065e+00 2.082202e+00 3.834557e+00 123 114 137
1.710918e+00 3.287308e+00 2.851660e+00 140 128 114
1.710918e+00 3.287308e+00 2.851660e+00 140 128 114
1.722039e+00 3.293232e+00 2.864011e+00 188 177 168
3.459139e-01 3.111351e+00 2.801438e+00 176 169 153
1.076164e+00 1.890724e+00 3.757075e+00 30 23 29
1.084934e+00 1.744698e+00 3.642337e+00 20 8 13
1.086179e+00 1.748106e+00 3.639186e+00 20 8 13
1.170364e+00 1.759898e+00 3.627303e+00 52 19 3
1.197568e+00 1.822446e+00 3.666465e+00 153 121 114
1.080888e+00 1.858944e+00 3.734166e+00 167 137 108
1.026953e+00 1.895328e+00 3.710791e+00 150 133 118
1.191972e+00 1.927599e+00 3.753425e+00 189 157 160
1.191972e+00 1.927599e+00 3.753425e+00 189 157 160
1.100357e+00 1.927836e+00 3.783102e+00 184 168 158
1.100523e+00 1.928605e+00 3.782359e+00 184 168 158
1.203582e+00 1.969656e+00 3.776077e+00 184 163 159
1.203582e+00 1.969656e+00 3.776077e+00 184 163 159
1.169755e+00 1.968402e+00 3.791301e+00 130 106 88
1.127599e+00 1.999878e+00 3.828235e+00 64 63 60
1.237985e+00 2.025324e+00 3.789020e+00 117 124 95
1.236643e+00 2.032168e+00 3.804732e+00 61 52 40
7.388583e-01 2.080087e+00 3.690362e+00 79 1 0
7.708405e-01 2.096767e+00 3.700539e+00 54 12 0
1.236301e+00 2.058622e+00 3.825740e+00 186 173 129
7.137287e-01 2.147653e+00 3.757347e+00 15 4 3
7.129229e-01 2.142091e+00 3.761493e+00 15 4 3
8.024067e-01 2.158099e+00 3.739872e+00 10 6 3
1.562576e+00 3.206203e+00 2.753817e+00 137 124 108
1.538019e+00 3.240600e+00 2.784195e+00 140 126 112
1.361088e+00 2.064475e+00 3.524467e+00 207 193 187
1.016248e+00 2.280157e+00 3.195222e+00 194 66 27
1.043003e+00 2.061794e+00 3.855923e+00 133 140 71
8.460397e-01 2.234185e+00 3.776599e+00 122 118 67
1.130495e+00 1.992868e+00 3.815043e+00 47 34 57
1.111560e+00 2.089187e+00 3.857111e+00 99 40 50
1.185285e+00 2.124127e+00 3.799105e+00 12 39 103
1.228808e+00 2.142714e+00 3.734874e+00 179 177 142
6.371694e-01 2.021259e+00 3.634449e+00 31 13 3
1.022636e+00 2.199164e+00 3.664549e+00 8 32 99
1.120799e+00 2.254086e+00 3.210841e+00 240 215 123
1.280904e+00 1.868024e+00 3.664262e+00 130 83 54
1.221799e+00 1.885326e+00 3.716810e+00 57 31 19
1.372085e+00 1.920690e+00 3.445193e+00 109 69 37
1.351365e+00 1.942907e+00 3.449917e+00 210 201 191
1.368917e+00 1.967176e+00 3.440191e+00 206 190 173
1.212882e+00 1.972542e+00 3.793433e+00 157 140 124
1.155843e+00 1.971583e+00 3.789038e+00 84 70 58
1.321845e+00 2.009138e+00 3.373877e+00 39 30 35
1.321845e+00 2.009138e+00 3.373877e+00 39 30 35
1.258538e+00 2.057087e+00 3.859422e+00 61 52 37
1.393053e+00 2.042106e+00 3.315518e+00 215 193 164
1.151712e+00 2.124067e+00 3.825187e+00 12 51 141
1.083701e+00 2.196687e+00 3.714991e+00 70 70 74
1.180187e+00 2.229124e+00 3.650914e+00 17 53 144
1.152286e+00 2.227116e+00 3.670740e+00 213 218 244
1.115616e+00 2.232136e+00 3.206496e+00 102 66 59
8.721154e-01 2.211387e+00 3.778354e+00 110 109 68
9.727073e-01 2.220920e+00 3.304326e+00 220 174 117
7.132288e-01 2.224314e+00 3.822638e+00 225 226 188
1.031867e+00 2.323064e+00 3.093735e+00 220 214 134
8.578711e-01 2.631170e+00 5.641116e+00 218 210 177
9.063232e-01 2.666145e+00 4.851766e+00 37 41 17
6.929399e-01 2.010410e+00 3.633019e+00 41 29 5
1.213906e+00 2.038366e+00 3.817603e+00 51 31 34
1.048605e+00 1.755708e+00 3.663009e+00 38 12 14
1.478869e+00 2.073947e+00 3.203870e+00 212 194 170
1.232520e+00 2.145076e+00 3.781524e+00 171 193 122
1.506193e+00 2.145028e+00 3.099582e+00 102 83 69
1.049260e+00 2.201172e+00 3.709576e+00 216 210 238
1.223338e+00 2.254693e+00 3.201144e+00 22 11 11
1.020812e+00 2.252462e+00 3.308613e+00 233 166 96
1.020812e+00 2.252462e+00 3.308613e+00 233 166 96
4.701500e-01 2.389549e+00 2.855281e+00 218 202 172
5.753622e-01 2.273435e+00 3.444680e+00 172 142 83
6.237820e-01 1.887376e+00 3.497136e+00 63 46 47
8.401710e-01 1.958789e+00 3.569896e+00 161 133 104
8.578112e-01 2.079228e+00 3.643157e+00 21 23 39
8.605968e-01 2.117821e+00 3.671999e+00 18 16 29
1.018411e+00 1.798770e+00 3.650219e+00 139 114 86
5.385945e-01 2.397119e+00 2.947612e+00 251 237 211
1.172818e+00 2.051026e+00 3.834744e+00 88 103 71
8.677336e-01 2.069648e+00 3.634285e+00 23 14 17
1.075206e+00 1.743110e+00 3.674981e+00 105 105 114
6.160273e-01 1.965358e+00 3.396745e+00 71 43 36
8.952269e-01 1.925932e+00 3.516150e+00 85 76 76
8.700913e-01 2.068641e+00 3.630092e+00 22 8 8
1.025238e+00 2.057125e+00 3.877815e+00 27 24 47
1.250285e+00 1.780453e+00 3.604795e+00 14 5 3
1.024551e+00 1.776609e+00 3.652190e+00 138 126 130
1.141379e+00 1.885073e+00 3.733773e+00 177 154 140
6.545410e-01 2.022317e+00 3.668395e+00 156 138 133
6.192071e-01 2.176096e+00 3.590423e+00 148 117 71
6.154688e-01 2.205542e+00 3.638244e+00 115 87 50
8.316483e-01 2.131458e+00 3.909989e+00 87 69 43
1.167464e+00 1.757310e+00 3.629763e+00 45 10 4
7.109388e-01 1.843014e+00 3.520619e+00 39 32 7
7.726126e-01 1.851647e+00 3.516911e+00 17 31 17
8.345929e-01 1.866382e+00 3.501203e+00 27 19 30
1.102328e+00 1.783492e+00 3.671568e+00 157 127 130
1.103649e+00 1.786918e+00 3.669040e+00 157 127 130
1.133039e+00 1.808844e+00 3.650812e+00 147 118 118
6.840938e-01 1.872869e+00 3.542648e+00 156 125 126
1.025306e+00 1.815025e+00 3.686108e+00 133 121 117
1.221816e+00 1.857399e+00 3.679583e+00 183 149 125
1.231794e+00 1.955964e+00 3.767035e+00 18 15 44
1.179831e+00 1.962913e+00 3.786500e+00 181 168 156
7.235732e-01 2.029460e+00 3.668421e+00 50 46 16
1.152359e+00 1.970099e+00 3.799657e+00 85 75 62
6.854893e-01 2.052669e+00 3.655866e+00 112 111 97
6.384185e-01 2.064313e+00 3.670962e+00 137 113 117
1.081711e+00 1.990710e+00 3.839095e+00 153 130 137
1.155937e+00 2.009269e+00 3.821027e+00 184 142 72
1.134749e+00 2.008942e+00 3.828476e+00 175 158 56
1.026262e+00 2.000272e+00 3.833092e+00 157 154 171
7.686568e-01 2.131970e+00 3.728919e+00 6 7 19
6.092078e-01 2.235929e+00 3.565629e+00 100 71 26
1.041606e+00 2.049409e+00 3.877521e+00 158 153 137
8.324919e-01 2.150660e+00 3.729792e+00 56 51 64
8.295518e-01 2.171514e+00 3.720156e+00 19 6 12
1.859178e+00 3.277235e+00 2.867852e+00 193 180 158
8.665382e-01 2.067619e+00 3.634964e+00 23 5 12
6.733093e-01 2.147473e+00 3.912303e+00 100 100 49
1.099362e+00 1.806042e+00 3.691239e+00 188 151 121
8.623828e-01 1.885318e+00 3.503252e+00 105 104 54
1.500349e+00 2.141897e+00 3.157040e+00 127 112 96
1.406438e+00 2.162971e+00 3.141090e+00 27 2 1
1.460656e+00 2.180032e+00 3.096316e+00 186 168 149
7.342120e-01 2.203656e+00 3.608377e+00 85 75 81
1.128052e+00 2.063389e+00 3.885043e+00 169 158 96
1.130331e+00 1.811416e+00 3.679457e+00 20 0 0
4.057667e-01 2.391268e+00 3.572879e+00 45 26 0
1.050270e+00 1.761672e+00 3.663239e+00 153 131 139
7.541049e-01 1.852167e+00 3.512515e+00 19 29 0
8.550892e-01 1.872348e+00 3.496242e+00 41 21 28
6.937083e-01 1.912406e+00 3.575099e+00 28 28 48
1.202501e+00 2.002729e+00 3.800204e+00 63 48 46
9.905719e-01 2.182328e+00 3.696334e+00 49 19 19
7.705082e-01 2.152363e+00 3.738779e+00 8 5 7
4.710378e-01 2.312473e+00 3.559134e+00 181 151 96
1.890869e+00 3.233287e+00 2.900548e+00 132 121 102
1.829657e+00 3.285426e+00 2.898475e+00 157 146 125
1.736576e+00 3.307365e+00 2.887990e+00 155 139 124
6.685550e-01 2.063887e+00 3.688297e+00 19 19 34
6.645189e-01 1.875985e+00 3.560890e+00 171 147 127
9.249664e-01 2.029883e+00 3.537591e+00 177 136 83
8.608614e-01 2.080854e+00 3.638638e+00 27 28 48
1.043464e+00 2.011954e+00 3.843649e+00 5 36 126
1.008465e+00 1.781789e+00 3.617439e+00 28 25 44
9.715313e-01 1.907178e+00 3.469722e+00 110 68 26
7.357409e-01 1.921334e+00 3.570900e+00 164 150 11
1.024169e+00 1.855934e+00 3.715178e+00 170 143 121
1.239510e+00 1.887972e+00 3.700719e+00 190 160 118
1.023819e+00 1.880586e+00 3.735280e+00 167 144 121
1.018160e+00 1.921637e+00 3.790869e+00 172 147 116
6.427439e-01 1.885027e+00 3.552973e+00 65 50 59
6.397944e-01 1.983799e+00 3.619792e+00 53 35 66
6.355410e-01 2.047914e+00 3.548039e+00 61 55 62
6.595945e-01 1.994248e+00 3.648947e+00 167 141 133
6.377358e-01 2.121067e+00 3.586035e+00 55 26 35
8.004859e-01 2.085523e+00 3.672507e+00 141 63 18
9.853074e-01 2.121979e+00 3.667656e+00 40 33 34
6.439337e-01 1.839423e+00 3.528790e+00 22 27 45
7.803309e-01 1.882975e+00 3.559852e+00 189 150 21
1.083277e+00 1.879193e+00 3.750092e+00 24 16 11
8.715532e-01 2.044056e+00 3.614303e+00 110 95 76
8.715532e-01 2.044056e+00 3.614303e+00 110 95 76
1.025038e+00 1.948031e+00 3.797624e+00 164 145 135
6.972534e-01 2.073882e+00 3.702932e+00 144 84 54
6.322784e-01 2.114500e+00 3.666342e+00 55 27 24
1.022014e+00 2.019114e+00 3.832412e+00 0 5 62
1.100735e+00 2.022797e+00 3.862750e+00 21 23 50
1.160905e+00 1.768242e+00 3.630472e+00 160 144 134
1.004270e+00 1.795207e+00 3.592439e+00 25 12 12
1.200441e+00 1.785062e+00 3.627567e+00 118 106 107
1.200441e+00 1.785062e+00 3.627567e+00 118 106 107
1.142255e+00 1.778481e+00 3.653244e+00 163 150 167
6.663170e-01 1.855009e+00 3.545240e+00 45 47 55
1.172542e+00 1.794252e+00 3.653879e+00 30 23 25
6.552760e-01 1.905201e+00 3.575959e+00 47 29 30
6.552760e-01 1.905201e+00 3.575959e+00 47 29 30
1.123835e+00 1.834895e+00 3.701848e+00 194 157 116
6.374677e-01 1.950794e+00 3.534886e+00 64 56 54
8.154743e-01 1.941990e+00 3.563471e+00 180 159 144
6.483768e-01 1.924737e+00 3.584414e+00 81 72 64
8.026951e-01 1.979152e+00 3.599215e+00 131 115 106
8.147117e-01 1.985580e+00 3.599237e+00 142 125 115
6.344754e-01 2.018105e+00 3.563223e+00 126 91 86
1.026469e+00 1.917880e+00 3.772303e+00 161 140 124
8.180425e-01 2.087543e+00 3.676394e+00 73 10 0
6.315166e-01 2.115016e+00 3.630623e+00 149 90 61
6.315166e-01 2.115016e+00 3.630623e+00 149 90 61
1.095209e+00 1.987551e+00 3.832975e+00 151 135 146
1.095209e+00 1.987551e+00 3.832975e+00 151 135 146
7.741894e-01 2.101811e+00 3.698157e+00 88 13 2
1.038667e+00 2.025865e+00 3.870227e+00 141 155 174
1.132893e+00 2.039414e+00 3.864299e+00 72 59 10
6.326462e-01 2.280236e+00 3.530656e+00 134 106 63
6.393301e-01 2.167968e+00 3.750480e+00 119 93 41
7.794973e-01 2.097038e+00 3.918528e+00 88 66 19
1.835045e+00 3.228036e+00 2.900250e+00 152 137 118
6.706677e-01 2.148084e+00 3.912249e+00 100 100 49
6.865309e-01 2.148606e+00 3.757753e+00 11 2 3
1.560178e+00 3.205613e+00 2.757861e+00 137 124 108
1.650429e+00 3.234860e+00 2.804421e+00 157 142 123
4.934480e-01 2.317056e+00 3.546879e+00 121 86 22
6.122716e-01 2.290714e+00 3.547016e+00 38 12 0
1.044527e+00 2.047719e+00 3.896364e+00 178 157 59
1.158087e+00 1.877855e+00 3.726996e+00 73 61 54
1.096248e+00 2.012505e+00 3.846614e+00 199 168 106
1.022116e+00 1.907664e+00 3.724215e+00 102 77 69
7.064712e-01 2.015551e+00 3.657484e+00 9 16 0
9.992186e-01 2.080299e+00 3.722282e+00 148 128 134
6.989302e-01 2.116343e+00 3.720438e+00 28 13 15
1.829788e+00 3.220235e+00 2.913100e+00 152 137 118
9.389471e-01 1.924107e+00 3.555850e+00 27 22 19
1.217028e+00 1.806150e+00 3.630487e+00 58 49 55
1.016211e+00 1.874177e+00 3.642987e+00 152 128 112
5.520921e-01 2.085008e+00 3.386923e+00 252 246 224
1.021761e+00 2.007735e+00 3.745718e+00 166 145 117
6.187054e-01 1.881649e+00 3.506548e+00 25 36 63
6.347390e-01 1.991726e+00 3.576903e+00 94 57 34
1.058996e+00 1.901805e+00 3.761458e+00 130 128 154
1.058996e+00 1.901805e+00 3.761458e+00 130 128 154
5.250666e-01 2.325802e+00 3.563681e+00 129 92 17
1.250919e+00 1.850751e+00 3.655389e+00 107 99 116
9.839062e-01 1.963795e+00 3.593903e+00 19 17 18
1.052836e+00 1.946912e+00 3.798568e+00 0 36 118
6.322762e-01 2.079316e+00 3.602200e+00 49 16 3
1.052313e+00 1.965507e+00 3.810410e+00 0 34 116
8.246079e-01 2.103664e+00 3.663285e+00 167 84 43
1.170599e+00 2.041228e+00 3.835715e+00 80 96 36
2.071942e+00 2.923676e+00 2.947523e+00 199 187 163
1.173484e+00 1.847562e+00 3.692065e+00 196 170 130
6.682745e-01 1.916527e+00 3.589883e+00 197 174 144
1.017189e+00 2.105421e+00 3.759110e+00 100 83 86
9.985422e-01 2.133816e+00 3.753042e+00 4 26 92
9.006663e-01 2.215546e+00 3.740765e+00 109 81 40
9.006663e-01 2.215546e+00 3.740765e+00 109 81 40
2.103309e+00 2.906725e+00 2.898429e+00 50 36 5
1.102082e+00 1.770963e+00 3.637027e+00 97 84 78
1.257468e+00 1.837641e+00 3.651565e+00 23 39 112
6.147769e-01 1.942804e+00 3.461759e+00 181 165 139
7.724938e-01 1.959590e+00 3.597166e+00 167 152 125
1.229476e+00 1.905217e+00 3.716558e+00 206 176 140
6.597255e-01 1.994373e+00 3.648825e+00 172 147 146
1.028592e+00 1.976012e+00 3.805729e+00 174 168 143
1.010428e+00 2.104316e+00 3.802627e+00 0 7 86
2.131655e+00 2.843758e+00 2.876131e+00 159 143 83
1.247127e+00 1.781227e+00 3.610668e+00 20 3 3
9.910305e-01 1.891314e+00 3.482157e+00 31 26 19
6.506082e-01 1.941001e+00 3.602057e+00 35 26 42
7.549866e-01 2.013209e+00 3.584841e+00 122 92 92
1.142918e+00 1.943589e+00 3.781145e+00 209 186 161
6.368118e-01 2.064405e+00 3.674720e+00 175 148 142
1.054560e+00 1.984795e+00 3.834294e+00 155 124 143
1.000295e+00 2.077359e+00 3.749796e+00 2 12 54
1.032581e+00 2.094477e+00 3.801476e+00 136 125 129
2.215023e+00 2.805806e+00 2.874376e+00 54 22 0
4.874915e-01 2.341436e+00 3.608971e+00 160 157 129
1.231990e+00 1.786500e+00 3.628620e+00 101 89 91
6.080924e-01 1.991411e+00 3.341712e+00 40 26 30
1.144870e+00 1.827778e+00 3.683531e+00 202 170 156
6.390241e-01 1.934713e+00 3.570211e+00 151 147 128
8.853200e-01 1.960455e+00 3.556072e+00 55 1 1
6.393048e-01 1.950923e+00 3.581432e+00 157 136 125
1.039430e+00 1.902650e+00 3.765762e+00 13 34 69
6.375041e-01 2.006254e+00 3.619991e+00 167 151 142
6.375041e-01 2.006254e+00 3.619991e+00 167 151 142
6.286248e-01 2.038241e+00 3.590618e+00 87 104 130
6.349267e-01 2.050172e+00 3.644881e+00 109 91 77
6.349267e-01 2.050172e+00 3.644881e+00 109 91 77
1.139971e+00 1.972926e+00 3.819293e+00 208 189 173
6.193261e-01 2.105154e+00 3.577412e+00 146 125 89
1.054930e+00 2.026051e+00 3.869174e+00 16 24 40
7.553926e-01 2.122594e+00 3.723957e+00 90 86 102
7.553926e-01 2.122594e+00 3.723957e+00 90 86 102
9.859554e-01 2.158932e+00 3.689115e+00 24 16 3
1.025402e+00 2.069459e+00 3.839520e+00 133 127 146
2.132184e+00 2.880944e+00 2.914852e+00 191 170 102
6.325833e-01 1.833103e+00 3.515448e+00 134 99 46
1.000037e+00 1.861787e+00 3.554041e+00 157 137 125
1.024811e+00 1.827761e+00 3.655968e+00 134 102 86
7.052259e-01 1.890559e+00 3.564705e+00 124 126 83
9.904260e-01 1.881662e+00 3.586616e+00 157 135 119
9.983409e-01 1.928152e+00 3.603400e+00 167 142 117
6.354701e-01 1.974461e+00 3.602373e+00 121 90 68
9.925403e-01 1.995195e+00 3.638421e+00 18 21 57
6.431372e-01 1.993321e+00 3.639572e+00 60 57 71
8.015459e-01 2.021714e+00 3.629916e+00 190 173 146
6.353203e-01 2.021300e+00 3.634282e+00 173 163 152
6.414556e-01 2.064086e+00 3.649662e+00 47 36 33
1.017855e+00 1.996853e+00 3.788743e+00 122 102 84
7.418781e-01 2.081202e+00 3.689558e+00 59 5 0
6.055292e-01 2.175533e+00 3.547674e+00 116 96 65
6.055292e-01 2.175533e+00 3.547674e+00 116 96 65
6.385114e-01 2.100528e+00 3.689595e+00 142 125 121
6.385114e-01 2.100528e+00 3.689595e+00 142 125 121
6.374991e-01 2.114468e+00 3.690657e+00 48 12 4
6.210732e-01 2.198211e+00 3.598181e+00 69 43 10
1.007408e+00 2.107655e+00 3.775394e+00 113 111 136
1.095314e+00 2.054159e+00 3.868688e+00 28 29 36
6.142658e-01 2.249545e+00 3.574976e+00 139 123 89
6.387274e-01 2.147380e+00 3.739662e+00 78 78 83
2.098680e+00 2.855697e+00 2.852238e+00 162 139 88
4.745420e-01 2.259579e+00 3.809109e+00 103 109 85
4.379752e-01 2.329169e+00 3.729918e+00 177 174 140
4.358597e-01 2.153042e+00 3.981323e+00 193 185 141
1.017204e+00 1.746505e+00 3.654199e+00 36 24 24
7.735169e-01 1.961173e+00 3.595500e+00 167 152 125
8.217492e-01 1.962777e+00 3.576917e+00 188 164 141
6.375046e-01 2.151353e+00 3.685458e+00 39 25 40
6.291219e-01 2.148481e+00 3.886585e+00 156 160 131
1.042491e+00 1.769962e+00 3.656342e+00 28 36 72
9.181475e-01 2.788151e+00 2.312368e+00 124 112 80
6.455758e-01 2.088665e+00 3.697235e+00 35 28 33
9.497319e-01 2.203468e+00 3.778879e+00 83 53 0
6.199707e-01 1.907611e+00 3.421261e+00 117 85 47
9.724903e-01 1.903181e+00 3.489216e+00 116 79 35
4.607733e-01 2.606222e+00 3.260423e+00 145 119 63
9.399045e-01 1.923672e+00 3.553455e+00 36 25 28
9.399045e-01 1.923672e+00 3.553455e+00 36 25 28
1.154104e+00 1.958945e+00 3.783791e+00 132 114 94
6.155790e-01 2.163625e+00 3.585861e+00 156 125 74
6.161964e-01 2.079741e+00 3.537091e+00 168 137 97
5.888801e-01 2.284787e+00 3.519576e+00 196 169 102
1.053729e+00 1.944507e+00 3.794589e+00 7 37 121
1.232289e+00 2.056319e+00 3.842383e+00 199 172 130
7.418785e-01 1.869209e+00 3.541620e+00 153 133 6
9.878808e-01 1.907810e+00 3.555419e+00 11 28 61
7.005223e-01 1.907514e+00 3.577710e+00 32 32 62
6.373306e-01 1.978313e+00 3.628648e+00 44 53 92
6.520255e-01 2.047676e+00 3.677909e+00 26 23 41
1.047905e+00 2.067259e+00 3.812163e+00 96 88 92
9.901662e-01 2.129319e+00 3.705514e+00 106 92 92
6.411710e-01 1.943296e+00 3.531359e+00 56 51 78
1.210977e+00 1.858486e+00 3.690205e+00 198 168 126
8.005182e-01 1.950398e+00 3.572752e+00 60 48 60
8.005182e-01 1.950398e+00 3.572752e+00 60 48 60
7.098857e-01 1.965518e+00 3.606190e+00 119 89 63
1.241942e+00 1.995994e+00 3.794197e+00 34 31 80
6.991013e-01 2.071996e+00 3.705990e+00 164 85 22
7.962015e-01 2.144142e+00 3.710615e+00 10 16 28
6.278992e-01 2.203856e+00 3.678310e+00 17 11 9
6.259123e-01 1.945750e+00 3.491176e+00 55 36 32
4.248216e-01 2.111794e+00 3.230005e+00 152 116 46
6.395802e-01 1.935177e+00 3.569354e+00 142 139 103
6.287140e-01 1.972346e+00 3.501883e+00 24 28 55
8.742475e-01 1.979168e+00 3.577843e+00 53 7 1
8.982891e-01 1.998326e+00 3.569760e+00 184 116 103
6.302409e-01 2.010565e+00 3.567448e+00 142 93 57
6.302409e-01 2.010565e+00 3.567448e+00 142 93 57
1.031983e+00 1.925023e+00 3.765149e+00 161 149 132
1.093321e+00 1.941746e+00 3.792386e+00 198 179 165
6.549463e-01 2.022397e+00 3.669662e+00 159 139 134
6.319420e-01 2.087449e+00 3.579803e+00 58 21 8
6.314688e-01 2.129764e+00 3.683874e+00 101 65 40
8.180303e-01 2.165389e+00 3.728415e+00 26 25 32
5.062389e-01 2.376425e+00 3.475534e+00 194 169 105
1.086145e+00 1.752924e+00 3.641614e+00 24 11 16
1.101954e+00 1.814396e+00 3.683090e+00 201 168 143
9.954571e-01 1.885954e+00 3.554906e+00 41 30 39
6.492681e-01 1.894244e+00 3.557889e+00 62 36 39
6.294063e-01 1.935852e+00 3.513560e+00 162 127 98
8.347070e-01 1.925860e+00 3.541461e+00 172 137 29
9.877885e-01 1.919119e+00 3.587306e+00 16 8 9
6.285860e-01 1.966865e+00 3.539290e+00 88 111 84
6.264370e-01 2.009038e+00 3.532330e+00 51 29 24
6.461474e-01 1.982890e+00 3.585439e+00 124 96 79
6.399269e-01 2.005980e+00 3.653244e+00 23 30 75
6.387707e-01 2.024101e+00 3.628748e+00 170 153 150
6.302967e-01 2.063247e+00 3.561149e+00 51 57 67
6.364065e-01 2.041367e+00 3.616421e+00 26 26 51
9.964507e-01 2.020886e+00 3.677597e+00 152 128 115
6.255506e-01 2.061040e+00 3.623542e+00 46 8 1
6.255506e-01 2.061040e+00 3.623542e+00 46 8 1
1.031032e+00 2.031596e+00 3.862722e+00 21 29 52
8.691829e-01 2.172607e+00 3.710803e+00 18 4 0
2.053663e+00 2.848642e+00 2.918226e+00 196 175 131
9.833461e-01 2.859483e+00 3.105909e+00 146 141 113
1.125670e+00 1.773000e+00 3.656722e+00 38 27 29
1.015036e+00 1.799041e+00 3.628888e+00 152 135 127
1.146705e+00 1.785941e+00 3.649170e+00 146 137 145
6.435837e-01 1.861820e+00 3.543298e+00 38 26 39
1.098939e+00 1.789981e+00 3.674832e+00 159 130 130
6.460487e-01 1.873635e+00 3.557244e+00 48 35 16
1.260817e+00 1.816054e+00 3.658244e+00 173 138 75
8.647622e-01 1.903163e+00 3.506505e+00 156 137 67
6.276089e-01 1.964293e+00 3.523033e+00 18 22 16
9.704484e-01 1.962439e+00 3.533576e+00 41 9 4
6.254823e-01 1.975761e+00 3.525083e+00 86 101 93
9.957287e-01 1.942924e+00 3.597457e+00 49 36 31
6.736750e-01 1.943653e+00 3.627346e+00 117 91 74
9.968299e-01 1.947508e+00 3.620753e+00 152 131 107
1.088139e+00 1.884914e+00 3.745349e+00 33 21 14
6.233537e-01 2.050023e+00 3.535682e+00 171 158 143
9.976047e-01 1.986604e+00 3.649091e+00 141 129 132
6.257347e-01 2.044357e+00 3.550741e+00 31 35 51
6.165324e-01 2.067115e+00 3.513834e+00 182 153 109
6.362526e-01 2.025214e+00 3.604565e+00 48 48 60
1.023375e+00 1.966578e+00 3.728811e+00 184 152 127
6.090691e-01 2.171498e+00 3.488183e+00 157 130 83
9.832433e-01 2.097419e+00 3.702440e+00 67 72 104
1.024835e+00 2.032703e+00 3.833677e+00 105 109 143
1.026178e+00 2.044056e+00 3.856492e+00 107 114 149
6.172421e-01 2.182466e+00 3.640316e+00 133 112 80
6.127458e-01 2.257140e+00 3.516745e+00 97 70 22
6.172607e-01 2.297904e+00 3.540709e+00 40 17 0
7.182166e-01 2.164549e+00 3.758283e+00 116 86 41
2.102624e+00 2.861820e+00 2.869145e+00 92 70 20
4.180104e-01 2.401260e+00 3.633199e+00 122 115 63
1.240322e+00 3.714041e+00 -1.570837e+01 0 255 0
1.241165e+00 3.718308e+00 -1.575818e+01 255 255 0
1.268913e+00 4.018096e+00 -2.057311e+01 255 0 0
1.269657e+00 4.021962e+00 -2.062295e+01 255 255 0
-7.892316e+01 -2.599723e+02 3.434080e+03 0 255 0
-7.892200e+01 -2.599685e+02 3.434030e+03 255 255 0
-2.460722e+02 -6.426354e+02 5.833094e+03 255 0 0
-2.460701e+02 -6.426299e+02 5.833045e+03 255 255 0
-9.150499e+01 -1.568404e+02 9.470830e+02 0 255 0
-9.150019e+01 -1.568322e+02 9.470339e+02 255 255 0
5.099457e+02 1.283196e+03 -5.149421e+03 255 0 0
5.099505e+02 1.283208e+03 -5.149469e+03 255 255 0
-5.861546e-01 -4.233370e+00 2.152653e+01 0 255 0
-5.824290e-01 -4.216536e+00 2.147959e+01 255 255 0
-5.693369e-03 -3.231867e+00 1.611547e+01 255 0 0
-2.194158e-03 -3.211886e+00 1.606977e+01 255 255 0
2.947395e-01 -2.427414e+00 1.277937e+01 0 255 0
2.978126e-01 -2.405235e+00 1.273466e+01 255 255 0
3.122053e+00 3.914482e+00 1.950849e+01 255 0 0
3.115090e+00 3.909020e+00 1.945928e+01 255 255 0
5.395653e+01 6.166501e+01 8.226972e+02 0 255 0
5.395332e+01 6.166139e+01 8.226475e+02 255 255 0
-2.927633e+00 -6.374292e+00 -1.122488e+02 255 0 0
-2.929415e+00 -6.377943e+00 -1.122987e+02 255 255 0
1.695628e-01 -1.685745e+00 9.232392e+00 0 255 0
1.756508e-01 -1.658388e+00 9.190986e+00 255 255 0
-3.367248e-01 -6.144851e-01 7.262233e+00 255 0 0
-3.238330e-01 -5.861689e-01 7.223092e+00 255 255 0
2.981262e+00 3.278438e+00 1.020508e+01 0 255 0
2.966420e+00 3.270759e+00 1.015796e+01 255 255 0
-4.740453e-01 4.241785e-01 6.233898e+00 255 0 0
-4.538572e-01 4.488851e-01 6.195401e+00 255 255 0
-8.436933e-01 7.526802e-01 5.881786e+00 0 255 0
-8.168507e-01 7.737013e-01 5.845213e+00 255 255 0
-9.395845e-01 1.054924e+00 5.447473e+00 255 0 0
-9.077901e-01 1.072150e+00 5.412942e+00 255 255 0
