ply
format ascii 1.0
element vertex 390
property float x
property float y
property float z
property uchar diffuse_red
property uchar diffuse_green
property uchar diffuse_blue
end_header
-9.884766e-02 1.720723e-01 3.338504e+00 62 32 36
-2.746609e-01 5.862785e-01 4.524668e+00 65 85 84
2.631552e-02 2.066328e-01 3.295887e+00 49 40 45
5.669698e-01 4.830311e-02 3.111405e+00 204 195 182
3.818714e-01 3.045183e-02 3.320379e+00 159 144 138
-4.494348e-01 2.435034e-01 2.978521e+00 214 208 207
2.515216e-02 5.631404e-01 1.814686e+00 72 87 83
4.513252e-01 -1.208823e-01 3.186784e+00 36 33 41
4.514782e-01 -1.208964e-01 3.185608e+00 36 33 41
3.357014e-01 -1.498466e-01 3.216763e+00 49 53 59
2.262079e-01 2.493999e-01 3.045463e+00 62 86 138
3.275957e-01 2.757401e-01 3.166181e+00 213 215 227
-4.374180e-01 3.388307e-01 3.069130e+00 177 120 38
2.224846e-01 3.941120e-01 3.161197e+00 175 123 29
-5.995993e-01 7.050460e-01 2.805113e+00 70 28 17
3.087352e-01 -9.477006e-02 3.215995e+00 151 119 88
4.951204e-01 -9.553682e-03 3.264999e+00 13 29 82
4.822578e-01 2.822645e-02 3.264802e+00 2 31 102
5.962671e-01 5.244641e-02 3.053004e+00 209 198 196
1.592301e-01 1.493626e-01 3.073330e+00 88 23 19
7.727209e-02 1.633560e-01 3.143841e+00 20 13 31
7.727209e-02 1.633560e-01 3.143841e+00 20 13 31
-2.177241e-01 2.011456e-01 3.146615e+00 233 231 216
-2.155347e-01 2.010107e-01 3.101887e+00 233 231 216
2.354872e-01 -3.479244e-02 3.213371e+00 138 110 95
2.727784e-01 3.645734e-02 3.299254e+00 6 27 89
2.332138e-01 3.541319e-02 3.253284e+00 130 111 95
1.921240e-01 5.173407e-02 3.132845e+00 59 27 11
-1.723840e-01 1.291400e-01 3.059384e+00 155 117 77
6.651515e-01 1.966273e-01 2.975028e+00 23 19 18
4.770707e-01 1.813149e-01 3.259606e+00 185 162 121
3.512549e-01 2.068845e-01 3.304591e+00 18 71 167
-6.134980e-01 1.955302e-01 2.978563e+00 238 234 226
-6.153059e-01 1.939276e-01 2.986544e+00 238 234 226
6.856321e-02 2.404980e-01 3.259892e+00 30 18 24
6.911174e-02 2.402140e-01 3.250955e+00 30 18 24
-5.859010e-01 2.292392e-01 2.957013e+00 97 102 132
4.779273e-01 -8.751185e-02 3.197646e+00 23 20 58
4.592903e-01 -4.939033e-02 3.216382e+00 185 144 116
2.036869e-01 -4.825256e-02 3.109476e+00 80 47 19
-1.122740e-01 -6.388410e-02 3.162188e+00 150 135 129
-1.965873e-02 -4.483786e-02 3.144490e+00 167 134 21
-1.421684e-01 -3.325188e-02 3.113190e+00 94 69 45
8.305954e-02 -5.801857e-03 3.132521e+00 35 20 22
-1.080069e-01 -1.546381e-02 3.178919e+00 146 129 109
4.827020e-02 2.678307e-02 3.169217e+00 157 136 115
4.894808e-01 9.152725e-02 3.244542e+00 5 24 81
4.006725e-01 1.391888e-01 3.332091e+00 52 58 23
3.046094e-01 1.886551e-01 3.313022e+00 228 214 203
5.975037e-01 2.150775e-01 2.915293e+00 12 8 13
1.039574e-01 2.003434e-01 3.199219e+00 237 215 112
-1.207719e-02 2.252970e-01 3.105153e+00 24 27 29
2.194533e-01 2.638841e-01 3.244998e+00 29 63 141
3.295257e-01 2.759408e-01 3.176210e+00 214 217 228
-6.051840e-01 2.630324e-01 2.961133e+00 238 233 221
-6.044435e-01 2.645944e-01 2.935165e+00 238 233 221
-4.145242e-01 2.878723e-01 3.047263e+00 249 236 227
2.589333e-01 3.316031e-01 2.924117e+00 244 232 98
2.589333e-01 3.316031e-01 2.924117e+00 244 232 98
2.016301e-01 4.119638e-01 3.122074e+00 165 116 42
1.920672e-01 4.178862e-01 4.202694e+00 218 218 193
-5.550578e-01 4.974765e-01 2.785007e+00 43 6 0
2.464060e-01 -1.679763e-01 3.199074e+00 54 35 38
5.586467e-01 -4.738693e-03 3.089206e+00 240 232 224
2.972389e-01 -2.744850e-02 3.268654e+00 25 26 16
-7.371818e-02 -1.109467e-02 3.185588e+00 23 12 28
5.966979e-01 3.237803e-02 3.067892e+00 228 215 203
5.242526e-01 2.701406e-02 3.100931e+00 218 212 196
6.254013e-01 5.867335e-02 3.085013e+00 224 207 197
6.245170e-01 5.949098e-02 3.070030e+00 224 207 197
5.160772e-01 7.028198e-02 3.146522e+00 200 202 220
6.197095e-01 8.952930e-02 3.030855e+00 111 104 88
6.184248e-01 8.774454e-02 3.036366e+00 111 104 88
6.314294e-03 5.549113e-02 3.191156e+00 63 51 37
6.166717e-01 1.169464e-01 3.012396e+00 229 208 189
6.503167e-01 1.175535e-01 2.984577e+00 119 103 99
2.693081e-01 9.446828e-02 3.341422e+00 8 16 69
2.695399e-01 9.511131e-02 3.340543e+00 8 16 69
3.319817e-01 1.098311e-01 3.231776e+00 158 144 95
5.994222e-02 1.235334e-01 3.209607e+00 167 151 150
3.333226e-01 1.363621e-01 3.345164e+00 3 17 39
2.716418e-01 1.557885e-01 3.351822e+00 158 144 119
6.186844e-01 1.912246e-01 2.965606e+00 219 217 223
5.625863e-01 2.088551e-01 2.873659e+00 204 194 191
6.653327e-01 2.250982e-01 2.950239e+00 166 134 130
3.867532e-01 2.202083e-01 3.290355e+00 9 57 151
1.185888e-01 2.628800e-01 3.164905e+00 174 71 37
2.767790e-01 2.725812e-01 3.300206e+00 192 194 229
-3.559464e-01 2.497992e-01 3.200799e+00 245 235 219
-3.559464e-01 2.497992e-01 3.200799e+00 245 235 219
-3.857945e-01 2.563362e-01 3.298951e+00 152 127 90
-3.831173e-01 2.604601e-01 3.132733e+00 152 127 90
2.195436e-01 3.399144e-01 2.917208e+00 241 223 109
-3.646317e-01 5.060788e-01 2.733842e+00 73 70 50
3.880428e-01 -1.005526e-01 3.213808e+00 43 10 3
2.264157e-01 -1.093562e-01 3.462698e+00 78 48 14
4.345030e-01 -6.663523e-02 3.222900e+00 182 156 137
7.099850e-02 -7.611387e-02 3.103559e+00 149 104 40
5.098467e-01 -4.332746e-02 3.191559e+00 142 101 54
2.964075e-01 -5.238644e-02 3.260882e+00 165 140 121
-7.187360e-02 -5.755884e-02 3.141243e+00 22 34 46
-7.138796e-02 -5.858004e-02 3.142279e+00 22 34 46
3.027327e-02 -3.531432e-02 3.131625e+00 153 130 31
5.796402e-01 1.439995e-02 3.070627e+00 71 60 47
2.641591e-01 -5.595005e-03 3.283828e+00 15 22 58
-4.671507e-02 -1.572594e-02 3.168920e+00 157 137 57
5.512619e-01 2.313507e-02 3.067414e+00 56 46 44
5.513220e-01 2.285719e-02 3.072036e+00 56 46 44
6.257553e-01 2.966250e-02 3.077264e+00 123 94 44
4.662056e-01 4.098058e-02 3.275351e+00 5 8 53
-1.215610e-01 2.172087e-02 3.200654e+00 146 126 120
4.672496e-01 7.335486e-02 3.295077e+00 179 170 177
3.510672e-01 7.763936e-02 3.303066e+00 45 46 60
1.253114e-02 8.228243e-02 3.199458e+00 169 152 141
-4.127632e-02 8.886650e-02 3.219427e+00 74 42 41
-4.142507e-02 8.852729e-02 3.217940e+00 74 42 41
4.848211e-01 1.196373e-01 3.305137e+00 180 169 171
-1.006962e-01 1.031424e-01 3.174961e+00 100 95 86
-1.335140e-01 1.027175e-01 3.251216e+00 28 11 21
-4.878283e-02 1.122655e-01 3.233178e+00 143 123 127
7.311461e-01 1.797647e-01 2.968584e+00 206 188 163
5.171697e-01 1.706020e-01 3.210555e+00 117 83 82
1.406899e-01 1.656293e-01 3.069885e+00 56 7 0
3.478366e-01 1.842697e-01 3.318611e+00 33 58 92
2.055266e-01 1.832638e-01 3.191382e+00 70 41 35
6.261089e-01 2.361843e-01 2.914597e+00 192 161 146
4.701757e-01 2.241136e-01 3.177568e+00 19 21 66
5.964890e-01 2.587642e-01 2.894333e+00 74 50 32
5.967577e-01 2.575599e-01 2.941203e+00 74 50 32
2.133078e-01 2.694438e-01 3.479770e+00 37 51 99
9.009583e-02 2.731003e-01 3.265209e+00 180 144 115
-5.210384e-01 2.699475e-01 2.920333e+00 48 49 71
3.619324e-01 3.196205e-01 3.097563e+00 38 38 6
2.997737e-01 3.396995e-01 3.111716e+00 131 100 33
1.791540e-01 3.645467e-01 3.274446e+00 192 182 143
-4.107404e-01 3.751108e-01 2.885652e+00 153 117 51
1.490570e-01 5.032237e-01 3.247430e+00 141 113 57
1.125524e-01 5.058721e-01 3.657570e+00 227 222 214
-3.570678e-01 4.850280e-01 2.733521e+00 166 129 54
4.608961e-01 -1.525506e-01 3.163810e+00 34 9 1
4.835074e-01 -1.144757e-01 3.171093e+00 30 25 39
2.899312e-01 -1.226064e-01 3.220871e+00 174 137 113
3.179230e-01 -1.074267e-01 3.171613e+00 167 143 116
4.403675e-01 -9.993446e-02 3.215193e+00 123 111 113
4.288391e-01 -8.639585e-02 3.217037e+00 37 8 5
4.959143e-01 -6.023562e-02 3.042270e+00 141 110 78
3.160581e-01 -6.127671e-02 3.251630e+00 89 72 64
2.608283e-01 -6.207485e-02 3.256101e+00 31 11 12
-1.333644e-01 -6.908624e-02 3.177706e+00 90 56 28
4.782420e-01 -3.041715e-02 3.001908e+00 32 25 40
5.688604e-01 -1.360108e-02 2.841456e+00 116 92 46
2.753166e-01 -3.754961e-02 3.265998e+00 20 9 10
-1.177880e-01 -4.835042e-02 3.164464e+00 160 143 133
7.481514e-02 -3.362392e-02 3.122922e+00 129 118 74
-4.897034e-02 -3.512346e-02 3.161692e+00 54 42 8
-4.913323e-02 -3.380074e-02 3.154570e+00 54 42 8
2.958540e-01 -1.262603e-02 3.282316e+00 34 23 33
1.701155e-02 -2.059553e-02 3.162900e+00 129 73 0
2.923978e-01 5.233251e-03 3.287630e+00 139 121 128
-3.897696e-02 5.430732e-03 3.174129e+00 27 12 1
-1.648329e-02 1.071570e-02 3.171675e+00 167 141 132
-1.678756e-02 1.073913e-02 3.171461e+00 167 141 132
-1.418810e-01 2.642020e-02 3.041005e+00 95 72 51
3.025719e-01 4.063322e-02 3.306515e+00 179 177 188
4.559471e-01 5.259997e-02 3.277401e+00 160 148 160
3.250371e-01 4.498395e-02 3.308514e+00 79 57 61
3.253409e-01 4.576311e-02 3.306353e+00 79 57 61
3.999282e-01 6.995277e-02 3.298979e+00 185 172 163
3.669699e-01 6.655958e-02 3.309123e+00 170 167 167
-1.465075e-01 4.969358e-02 3.178110e+00 95 69 42
-1.215340e-01 5.726661e-02 3.224956e+00 157 133 119
2.768215e-01 7.621875e-02 3.331413e+00 135 108 138
2.022445e-01 9.700902e-02 3.162839e+00 55 38 40
-1.145613e-01 7.859511e-02 3.234118e+00 26 28 4
6.969030e-01 1.380425e-01 2.987031e+00 218 201 177
6.958303e-01 1.351758e-01 2.993816e+00 218 201 177
-7.054387e-02 1.296920e-01 2.507499e+00 118 101 107
5.908795e-01 1.461124e-01 3.067191e+00 218 217 219
2.794591e-01 1.222350e-01 3.357369e+00 12 17 33
-5.877659e-02 1.285358e-01 3.250735e+00 35 8 24
-8.131964e-02 1.257760e-01 3.251006e+00 21 2 14
-3.857955e-02 1.331559e-01 3.248231e+00 35 16 20
1.683329e-01 1.836834e-01 3.132346e+00 144 63 33
4.974160e-01 2.008307e-01 3.197953e+00 63 28 55
5.491615e-01 2.063879e-01 3.035184e+00 128 87 110
1.855024e-01 1.963412e-01 3.096879e+00 220 191 148
1.847952e-01 1.970035e-01 3.133393e+00 220 191 148
-1.019821e-01 1.871175e-01 3.271735e+00 28 16 24
-8.068931e-02 1.938053e-01 3.313834e+00 105 85 88
-4.134514e-01 1.919872e-01 2.965759e+00 138 109 77
5.715742e-01 2.323630e-01 3.087995e+00 70 38 56
1.463426e-01 2.120911e-01 3.043776e+00 150 81 34
6.331179e-01 2.301127e-01 3.608444e+00 201 174 171
1.716835e-02 2.205627e-01 3.225902e+00 98 89 97
4.333185e-01 2.605821e-01 2.121419e+00 140 116 155
2.755834e-01 2.313391e-01 3.257562e+00 217 215 245
2.755834e-01 2.313391e-01 3.257562e+00 217 215 245
-1.091103e-01 2.149854e-01 3.291095e+00 11 3 10
2.078801e-02 2.381139e-01 3.279967e+00 17 9 17
1.485135e-01 2.688668e-01 2.560042e+00 241 163 113
5.031059e-01 2.851384e-01 2.950108e+00 73 67 19
-5.289171e-01 2.414759e-01 2.943170e+00 219 219 221
5.382987e-02 2.635540e-01 3.268878e+00 157 150 129
1.859112e-01 2.774457e-01 3.191948e+00 213 152 119
1.811282e-01 2.789625e-01 3.002057e+00 213 152 119
2.102903e-02 2.993223e-01 2.240926e+00 173 171 132
2.102903e-02 2.993223e-01 2.240926e+00 173 171 132
1.688082e-01 3.849621e-01 3.182075e+00 167 164 131
5.973112e-02 5.149811e-01 2.936792e+00 218 225 213
-5.839724e-01 7.307533e-01 2.582324e+00 69 29 9
-5.749455e-01 7.466725e-01 2.547625e+00 149 125 83
1.528427e-02 -6.677143e-02 3.124106e+00 23 44 60
1.517019e-02 -6.720941e-02 3.126719e+00 23 44 60
3.985534e-01 -1.369924e-01 3.166951e+00 29 11 19
7.443549e-02 7.377217e-02 3.145447e+00 119 106 94
-5.085747e-04 1.393527e-01 3.208552e+00 26 2 6
5.382184e-01 -4.143051e-02 3.103692e+00 172 120 52
3.491886e-01 1.039086e-01 3.333669e+00 158 162 69
1.053983e-01 3.003416e-01 3.286687e+00 135 128 93
3.662790e-02 5.171763e-01 3.105428e+00 211 216 198
4.591225e-03 5.213988e-01 3.104257e+00 214 217 204
-7.636384e-02 1.010144e-02 3.191944e+00 150 129 135
5.646409e-01 1.540736e-01 3.084249e+00 214 203 196
-2.819226e-01 2.793073e-01 3.308780e+00 161 154 121
-2.819226e-01 2.793073e-01 3.308780e+00 161 154 121
7.367863e-02 1.970091e-01 3.185304e+00 22 23 33
-4.770280e-01 2.803354e-01 2.932215e+00 223 204 195
-9.783127e-02 -9.446736e-02 3.146088e+00 28 40 81
-9.374635e-02 -8.721833e-02 3.124552e+00 28 40 81
2.070940e-01 1.701583e-01 3.136300e+00 74 43 31
7.689122e-02 2.577214e-01 3.227125e+00 26 1 2
-1.691584e-01 3.184687e-01 3.315786e+00 224 212 187
2.756094e-01 -1.914347e-01 3.214757e+00 141 95 57
2.834253e-03 -3.756097e-02 3.136077e+00 175 130 38
2.437991e-01 -3.102755e-02 3.243965e+00 142 119 101
8.342323e-02 -1.705377e-02 3.126481e+00 19 6 0
-6.986129e-02 2.802097e-02 3.196124e+00 81 56 53
-1.467802e-01 4.719887e-02 3.216026e+00 87 53 34
6.965074e-01 1.170735e-01 2.990608e+00 158 121 74
4.289114e-01 2.471722e-01 3.258897e+00 197 208 238
3.529529e-01 8.060559e-02 3.313270e+00 46 60 82
-3.940280e-02 8.820546e-02 3.214887e+00 55 33 12
4.427762e-01 -9.619361e-02 3.234941e+00 126 110 121
4.536252e-01 1.296396e-01 3.318672e+00 148 143 116
4.514363e-01 1.227746e-01 3.289045e+00 148 143 116
3.885498e-01 -1.160818e-01 3.229369e+00 96 80 94
3.885498e-01 -1.160818e-01 3.229369e+00 96 80 94
2.324900e-02 1.927223e-01 3.254449e+00 73 28 29
4.831777e-01 -7.639581e-02 3.219036e+00 21 20 50
2.934898e-01 6.001259e-03 3.284996e+00 135 124 121
-6.993273e-01 7.574677e-01 2.622736e+00 80 31 25
2.003732e-01 2.019706e-01 3.035505e+00 220 198 87
-6.591989e-02 9.018919e-02 3.233507e+00 56 40 1
4.514082e-01 -1.463077e-01 3.142876e+00 39 6 1
2.737670e-01 -1.382335e-01 3.181542e+00 125 98 90
4.285873e-02 1.808487e-02 3.150648e+00 176 143 127
2.478656e-01 6.649952e-02 3.311918e+00 151 136 130
1.839190e-01 1.497858e-01 3.062055e+00 85 3 2
4.484663e-01 1.202749e-01 3.334839e+00 160 144 125
-1.002363e-01 1.587497e-01 3.278467e+00 43 2 5
-6.628703e-01 7.596130e-01 2.585179e+00 147 112 73
-2.350838e-01 2.888506e-01 2.921551e+00 253 238 219
1.880549e-02 9.301298e-02 3.232313e+00 127 110 93
-4.166024e-01 2.495735e-01 2.937908e+00 201 192 185
-4.166024e-01 2.495735e-01 2.937908e+00 201 192 185
3.008064e-01 2.040744e-01 3.344060e+00 127 118 117
2.223538e-01 2.211181e-01 3.300094e+00 33 32 90
6.779466e-02 2.243943e-01 3.301865e+00 25 23 36
-1.500242e-01 -1.468341e-02 3.073895e+00 93 59 48
4.818653e-01 4.171694e-02 3.245472e+00 6 27 106
1.596900e-01 3.152914e-01 2.939837e+00 197 85 45
6.056680e-01 5.085334e-02 3.044747e+00 221 201 196
-1.889445e-01 2.089067e-01 2.944851e+00 242 230 206
1.995872e-01 1.954515e-01 3.046730e+00 236 198 110
-1.899821e-01 3.684884e-01 2.885647e+00 254 239 221
5.198181e-01 -3.026916e-02 3.058382e+00 144 109 66
4.338549e-01 8.039261e-02 3.358158e+00 141 137 55
3.601709e-01 2.275009e-01 3.326670e+00 178 173 203
2.445591e-01 -4.766106e-02 3.218415e+00 144 123 111
3.848627e-01 6.475384e-02 3.326471e+00 185 168 159
-1.325385e-01 1.163062e-01 3.290517e+00 23 19 29
-1.976803e-01 2.457647e-01 3.449506e+00 97 81 35
4.575393e-01 -1.561751e-01 3.132783e+00 136 92 38
4.124555e-01 -1.067462e-01 3.172563e+00 5 2 29
-1.350729e-01 -4.853665e-02 3.149307e+00 83 57 44
4.395305e-01 -4.613715e-02 3.256283e+00 79 58 37
6.747912e-01 9.822354e-02 3.026698e+00 214 189 160
6.747912e-01 9.822354e-02 3.026698e+00 214 189 160
-1.280624e-01 3.607428e-03 3.189263e+00 50 18 18
-7.832085e-02 3.741777e-02 3.207218e+00 157 140 114
-7.832085e-02 3.741777e-02 3.207218e+00 157 140 114
6.210326e-01 1.856917e-01 2.990522e+00 209 209 208
-4.351182e-02 5.926361e-02 3.200912e+00 83 64 67
-6.075651e-02 5.381524e-02 3.209985e+00 76 58 53
5.694323e-01 2.154042e-01 2.996366e+00 206 196 186
1.078456e-01 1.672838e-01 3.059920e+00 36 16 4
2.934858e-01 4.825932e-02 3.329631e+00 53 57 87
-1.275441e-01 8.249855e-02 3.245889e+00 152 141 133
4.250645e-01 7.732006e-02 3.329012e+00 85 70 61
3.946845e-01 7.932333e-02 3.329975e+00 45 41 14
2.617564e-01 8.183469e-02 3.337376e+00 25 17 66
4.280224e-01 8.952898e-02 3.337108e+00 160 153 60
4.462317e-01 1.070453e-01 3.354690e+00 159 148 137
-2.789591e-01 3.941661e-01 2.879203e+00 163 121 49
2.400746e-01 2.254697e-01 3.321623e+00 113 132 183
-1.102175e-01 -3.907696e-02 3.102771e+00 158 128 123
7.395170e-02 2.265690e-01 3.296860e+00 20 18 31
7.245447e-02 1.345098e-01 3.250051e+00 18 20 39
7.245447e-02 1.345098e-01 3.250051e+00 18 20 39
1.758102e-01 1.672205e-01 3.346053e+00 173 144 82
6.015065e-02 1.133673e-01 3.230333e+00 176 151 138
1.062974e-01 2.394407e-01 3.358736e+00 72 47 12
4.267708e-02 1.438091e-02 3.156198e+00 170 148 134
-2.619362e-01 2.037531e-01 3.423291e+00 161 155 126
-9.804232e-02 -6.319178e-02 3.131224e+00 143 116 120
-9.047524e-02 -4.137143e-02 3.141826e+00 141 127 126
-1.705636e-01 -2.819611e-02 3.127019e+00 93 57 46
-1.705636e-01 -2.819611e-02 3.127019e+00 93 57 46
2.978451e-02 2.952463e-02 3.174288e+00 163 139 130
-9.040013e-02 1.636210e-01 3.322334e+00 15 12 20
3.460121e-03 1.914617e-01 3.293543e+00 1 3 15
2.366207e-01 1.649651e-01 3.380631e+00 19 26 71
-7.170540e-02 2.167045e-01 3.343443e+00 109 88 46
-1.066544e-01 4.076448e-01 3.175194e+00 217 213 167
5.976855e-01 1.812811e-01 3.276640e+00 207 193 187
4.226612e-01 2.403782e-01 2.882865e+00 131 71 86
-1.226926e-01 1.301961e-01 3.165355e+00 62 21 13
3.029606e-01 -8.807456e-02 3.259949e+00 142 109 66
8.792553e-03 1.035670e-01 3.204174e+00 120 92 77
4.873688e-01 1.834186e-01 3.350075e+00 146 142 94
6.377291e-01 8.575372e-02 3.108304e+00 204 191 182
-4.115170e-01 2.748057e-01 3.159371e+00 150 146 113
-4.115170e-01 2.748057e-01 3.159371e+00 150 146 113
6.293539e-01 7.534846e-02 3.142782e+00 205 189 174
3.311608e-01 2.883482e-01 2.883165e+00 245 222 114
3.311608e-01 2.883482e-01 2.883165e+00 245 222 114
1.670343e-01 3.579086e-01 3.107688e+00 190 155 117
-3.948605e-01 2.879075e-01 3.140244e+00 204 200 168
4.778913e-01 -1.112512e-01 3.209035e+00 25 25 49
4.411792e-01 2.474936e-02 3.278672e+00 143 119 112
5.036403e-01 8.660674e-03 3.151834e+00 24 1 1
4.659219e-01 4.265136e-02 3.278104e+00 6 1 22
-1.496495e-01 8.306616e-02 3.183358e+00 31 13 3
-1.705127e-01 8.954490e-02 3.175619e+00 144 106 49
7.601700e-01 3.562370e-01 3.338656e+00 90 59 27
8.171507e-01 5.041048e-01 3.917573e+00 67 33 11
-5.228540e-01 2.345839e-01 3.022218e+00 225 215 213
5.621651e-01 -2.168503e-01 3.228293e+00 105 51 0
7.811725e-02 -7.555559e-02 3.106702e+00 136 97 41
4.811986e-01 1.133170e-01 3.363259e+00 34 20 9
-8.141463e-02 -3.308651e-02 3.183099e+00 23 17 27
5.338755e-01 1.034421e-01 3.057756e+00 71 55 56
6.223194e-01 2.148167e-01 3.361283e+00 204 201 198
6.180033e-01 1.895635e-01 3.106169e+00 204 195 194
-1.303318e-01 2.829299e-02 3.180885e+00 84 64 42
1.268678e+00 1.317754e+00 7.235068e+00 177 150 136
-2.474633e-02 1.898253e-01 3.146850e+00 18 5 2
6.724199e-03 2.158605e-01 3.150684e+00 149 146 120
2.166657e-01 2.815785e-01 2.941987e+00 231 168 95
1.669146e-01 3.144056e-01 3.148152e+00 133 59 23
2.452852e-01 3.004838e-01 2.915087e+00 238 162 103
-4.329829e-01 2.385008e-01 3.139232e+00 237 227 206
-3.718896e-01 4.161718e-01 3.102886e+00 180 175 134
-3.660008e-01 4.383843e-01 3.061372e+00 214 211 172
1.395300e-01 5.374192e-01 2.744606e+00 160 132 67
1.632455e-01 5.597565e-01 2.789464e+00 40 39 11
-2.946998e-02 4.473913e-01 -8.253106e+00 0 255 0
-3.016663e-02 4.487833e-01 -8.303081e+00 255 255 0
-1.213019e-01 4.174927e-01 -1.117203e+01 255 0 0
-1.221543e-01 4.182094e-01 -1.122202e+01 255 255 0
5.264307e-01 3.264633e+01 3.444660e+03 0 255 0
5.264252e-01 3.264586e+01 3.444610e+03 255 255 0
-1.152613e+02 -4.098767e+02 5.858321e+03 255 0 0
-1.152603e+02 -4.098732e+02 5.858271e+03 255 255 0
-1.123519e+02 -1.638243e+02 9.453809e+02 0 255 0
-1.123461e+02 -1.638158e+02 9.453320e+02 255 255 0
7.036262e+02 1.726805e+03 -4.994317e+03 255 0 0
7.036328e+02 1.726821e+03 -4.994364e+03 255 255 0
-6.978606e-01 -4.455280e+00 1.231965e+01 0 255 0
-6.942119e-01 -4.432339e+00 1.227537e+01 255 255 0
-4.637793e-01 -4.385333e+00 1.039025e+01 255 0 0
-4.600939e-01 -4.358012e+00 1.034854e+01 255 255 0
-2.375171e-01 -3.516419e+00 8.013575e+00 0 255 0
-2.343932e-01 -3.485909e+00 7.974087e+00 255 255 0
1.275198e+00 1.328841e+00 7.280121e+00 255 0 0
1.261866e+00 1.316239e+00 7.233608e+00 255 255 0
1.181807e+02 1.974743e+02 8.001326e+02 0 255 0
1.181735e+02 1.974624e+02 8.000846e+02 255 255 0
-2.766462e+00 -7.315829e+00 -2.818859e+01 255 0 0
-2.771397e+00 -7.327407e+00 -2.823698e+01 255 255 0
