ply
format ascii 1.0
element vertex 231
property float x
property float y
property float z
property uchar diffuse_red
property uchar diffuse_green
property uchar diffuse_blue
end_header
-2.587576e-01 5.850833e-02 3.362055e+00 62 32 36
-4.568022e-01 5.694763e-01 3.607331e+00 65 85 84
-1.104500e-01 8.542437e-02 3.000461e+00 49 40 45
4.243574e-01 -9.721376e-02 2.917202e+00 204 195 182
2.573337e-01 -1.099332e-01 3.102085e+00 159 144 138
-5.802236e-01 1.373561e-01 2.933328e+00 214 208 207
-7.979135e-02 4.375155e-01 2.864177e+00 72 87 83
3.120088e-01 -2.703201e-01 3.002653e+00 36 33 41
3.120088e-01 -2.703201e-01 3.002653e+00 36 33 41
1.973550e-01 -2.996398e-01 3.029456e+00 49 53 59
1.031540e-01 1.161258e-01 3.048208e+00 62 86 138
2.096648e-01 1.432280e-01 3.052474e+00 213 215 227
-5.673006e-01 2.344537e-01 2.965570e+00 177 120 38
1.037205e-01 2.771331e-01 3.093413e+00 175 123 29
-7.045780e-01 5.969501e-01 2.887040e+00 70 28 17
1.708783e-01 -2.436337e-01 3.071653e+00 151 119 88
3.646009e-01 -1.581517e-01 3.035649e+00 13 29 82
3.477088e-01 -1.174894e-01 2.995901e+00 2 31 102
4.646742e-01 -1.034935e-01 2.956926e+00 209 198 196
2.860350e-02 1.689323e-02 3.111891e+00 88 23 19
-5.835909e-02 3.723598e-02 2.975719e+00 20 13 31
-5.835909e-02 3.723598e-02 2.975719e+00 20 13 31
-3.509510e-01 8.632622e-02 2.959370e+00 233 231 216
-3.509510e-01 8.632615e-02 2.959370e+00 233 231 216
9.783320e-02 -1.767292e-01 3.056690e+00 138 110 95
1.393508e-01 -1.029589e-01 3.075075e+00 6 27 89
9.660432e-02 -1.022266e-01 3.028852e+00 130 111 95
5.098487e-02 -7.918709e-02 3.001674e+00 59 27 11
-3.075484e-01 1.160283e-02 2.928453e+00 155 117 77
5.209049e-01 3.588010e-02 2.864966e+00 23 19 18
3.712251e-01 3.770429e-02 3.128595e+00 185 162 121
2.280710e-01 7.243514e-02 3.069198e+00 18 71 167
-7.181567e-01 9.002889e-02 2.844220e+00 238 234 226
-7.181567e-01 9.002889e-02 2.844220e+00 238 234 226
-6.411572e-02 1.171881e-01 3.039278e+00 30 18 24
-6.411572e-02 1.171881e-01 3.039278e+00 30 18 24
-6.991736e-01 1.256556e-01 2.881624e+00 97 102 132
3.517165e-01 -2.465317e-01 3.073357e+00 23 20 58
3.293888e-01 -2.015406e-01 3.043561e+00 185 144 116
4.851293e-02 -1.633459e-01 2.755406e+00 80 47 19
-2.552941e-01 -1.821897e-01 2.978787e+00 150 135 129
-1.613384e-01 -1.675822e-01 2.977737e+00 167 134 21
-2.812250e-01 -1.525122e-01 2.946751e+00 94 69 45
-5.746530e-02 -1.405906e-01 3.056616e+00 35 20 22
-2.479093e-01 -1.326086e-01 2.947216e+00 146 129 109
-9.468643e-02 -1.049570e-01 3.050187e+00 157 136 115
3.676722e-01 -5.621149e-02 3.051445e+00 5 24 81
2.706498e-01 -2.724141e-03 3.043496e+00 52 58 23
1.708840e-01 5.553417e-02 3.020954e+00 228 214 203
4.725011e-01 6.372220e-02 2.931689e+00 12 8 13
-3.022937e-02 7.342816e-02 2.961859e+00 237 215 112
-1.455941e-01 1.022872e-01 2.989561e+00 24 27 29
9.168515e-02 1.348474e-01 3.027371e+00 29 63 141
2.071994e-01 1.425908e-01 3.012565e+00 214 217 228
-7.135955e-01 1.587428e-01 2.862927e+00 238 233 221
-7.135955e-01 1.587428e-01 2.862927e+00 238 233 221
-5.490121e-01 1.815332e-01 2.967520e+00 249 236 227
1.347090e-01 1.968269e-01 2.930815e+00 244 232 98
1.347090e-01 1.968269e-01 2.930815e+00 244 232 98
8.534508e-02 2.915603e-01 3.054475e+00 165 116 42
5.604449e-02 3.051514e-01 3.118102e+00 218 218 193
-6.515104e-01 3.812434e-01 2.826530e+00 43 6 0
9.936808e-02 -3.085382e-01 3.020861e+00 54 35 38
4.326484e-01 -1.608439e-01 2.995258e+00 240 232 224
1.599109e-01 -1.659501e-01 3.031158e+00 25 26 16
-2.184307e-01 -1.333289e-01 3.009411e+00 23 12 28
4.698459e-01 -1.232367e-01 2.981664e+00 228 215 203
3.998295e-01 -1.249683e-01 3.008790e+00 218 212 196
4.961016e-01 -9.444978e-02 2.963241e+00 224 207 197
4.961016e-01 -9.444978e-02 2.963241e+00 224 207 197
3.942290e-01 -8.052244e-02 3.034397e+00 200 202 220
4.725234e-01 -6.304083e-02 2.868920e+00 111 104 88
4.725234e-01 -6.304083e-02 2.868920e+00 111 104 88
-1.362222e-01 -7.128676e-02 3.043659e+00 63 51 37
4.693573e-01 -3.384137e-02 2.859355e+00 229 208 189
5.339212e-01 -3.796283e-02 2.984694e+00 119 103 99
1.336156e-01 -3.822318e-02 3.025962e+00 8 16 69
1.336156e-01 -3.822318e-02 3.025962e+00 8 16 69
2.845657e-01 -4.297453e-02 3.306703e+00 140 141 71
2.181087e-01 -3.372300e-02 3.180679e+00 158 144 95
-7.798794e-02 -2.725244e-03 2.996886e+00 167 151 150
1.989288e-01 -1.581031e-04 3.030506e+00 3 17 39
1.386420e-01 2.294860e-02 3.037449e+00 158 144 119
4.940957e-01 3.239122e-02 2.945399e+00 219 217 223
4.367021e-01 5.596991e-02 2.907783e+00 204 194 191
5.253966e-01 6.893897e-02 2.860409e+00 166 134 130
2.572333e-01 8.072015e-02 3.020524e+00 9 57 151
-1.612117e-02 1.304012e-01 2.832283e+00 174 71 37
1.391234e-01 1.376536e-01 2.915868e+00 192 194 229
-4.937937e-01 1.421912e-01 2.976373e+00 245 235 219
-4.937937e-01 1.421912e-01 2.976373e+00 245 235 219
-5.192492e-01 1.539702e-01 2.984128e+00 152 127 90
-5.192493e-01 1.539704e-01 2.984128e+00 152 127 90
9.818423e-02 2.089615e-01 2.967623e+00 241 223 109
-4.855145e-01 3.943892e-01 2.914277e+00 73 70 50
2.511880e-01 -2.467068e-01 3.030310e+00 43 10 3
8.452482e-02 -2.537387e-01 3.144779e+00 78 48 14
3.073055e-01 -2.187826e-01 3.079374e+00 182 156 137
-7.348996e-02 -2.088859e-01 2.980104e+00 149 104 40
3.781067e-01 -1.930971e-01 3.013728e+00 142 101 54
1.588882e-01 -1.935656e-01 3.051474e+00 165 140 121
-2.172931e-01 -1.855359e-01 3.020781e+00 22 34 46
-2.172932e-01 -1.855359e-01 3.020781e+00 22 34 46
-1.159400e-01 -1.760477e-01 3.123049e+00 153 130 31
4.415547e-01 -1.360548e-01 2.939861e+00 71 60 47
1.259312e-01 -1.408359e-01 3.032988e+00 15 22 58
-1.935146e-01 -1.433388e-01 3.056425e+00 157 137 57
4.206141e-01 -1.308405e-01 2.970491e+00 56 46 44
4.206140e-01 -1.308405e-01 2.970491e+00 56 46 44
4.590757e-01 -1.103226e-01 2.782384e+00 123 94 44
3.429834e-01 -1.080121e-01 3.062818e+00 5 8 53
-2.618979e-01 -9.603766e-02 2.954168e+00 146 126 120
3.458900e-01 -7.826147e-02 3.073050e+00 179 170 177
2.140203e-01 -6.096916e-02 3.007539e+00 45 46 60
-1.291778e-01 -4.476820e-02 3.037758e+00 169 152 141
-1.842477e-01 -3.475815e-02 3.017274e+00 74 42 41
-1.842477e-01 -3.475815e-02 3.017274e+00 74 42 41
3.487524e-01 -2.540949e-02 2.983246e+00 180 169 171
-2.424144e-01 -1.677234e-02 3.000775e+00 100 95 86
-2.745174e-01 -1.098746e-02 2.969985e+00 28 11 21
-1.954734e-01 -1.144388e-02 3.065127e+00 143 123 127
5.973344e-01 1.979981e-02 2.887645e+00 206 188 163
4.221596e-01 2.262418e-02 3.159879e+00 117 83 82
7.854581e-03 3.511527e-02 2.983677e+00 56 7 0
2.102570e-01 4.921071e-02 2.960973e+00 33 58 92
7.549456e-02 5.190700e-02 3.029418e+00 70 41 35
4.766412e-01 7.901660e-02 2.811447e+00 192 161 146
3.502787e-01 8.247899e-02 3.019330e+00 19 21 66
4.756026e-01 1.079407e-01 2.933189e+00 74 50 32
4.756026e-01 1.079407e-01 2.933189e+00 74 50 32
8.527313e-02 1.471121e-01 3.104759e+00 37 51 99
-4.139554e-02 1.514876e-01 3.071676e+00 180 144 115
-6.404753e-01 1.585191e-01 2.864820e+00 48 49 71
2.378871e-01 1.822480e-01 2.958147e+00 38 38 6
1.766211e-01 2.058283e-01 2.970125e+00 131 100 33
5.380285e-02 2.396773e-01 3.024840e+00 192 182 143
-5.335003e-01 2.633405e-01 2.907474e+00 153 117 51
2.995831e-02 3.836046e-01 3.021442e+00 141 113 57
-1.222036e-02 3.928475e-01 3.079957e+00 227 222 214
-4.759532e-01 3.695091e-01 2.891034e+00 166 129 54
-7.911270e-01 6.279870e-01 2.880222e+00 37 6 1
3.217683e-01 -2.971554e-01 2.986201e+00 34 9 1
3.353437e-01 -2.603376e-01 2.956067e+00 30 25 39
1.531283e-01 -2.656042e-01 3.056779e+00 174 137 113
1.746422e-01 -2.484226e-01 2.983048e+00 167 143 116
2.987520e-01 -2.428140e-01 2.971965e+00 123 111 113
2.916274e-01 -2.313725e-01 3.006358e+00 37 8 5
3.493862e-01 -2.049685e-01 2.902942e+00 141 110 78
1.762898e-01 -1.993972e-01 3.008168e+00 89 72 64
1.203508e-01 -1.980640e-01 3.023590e+00 31 11 12
-2.730146e-01 -1.818236e-01 2.924946e+00 90 56 28
3.484770e-01 -1.841166e-01 2.982404e+00 32 25 40
4.035033e-01 -1.557019e-01 2.761103e+00 116 92 46
1.375793e-01 -1.763063e-01 3.042868e+00 20 9 10
-2.600264e-01 -1.675239e-01 2.954760e+00 160 143 133
-6.719744e-02 -1.633728e-01 2.970847e+00 129 118 74
-1.923347e-01 -1.566397e-01 2.966599e+00 54 42 8
-1.923349e-01 -1.566398e-01 2.966599e+00 54 42 8
1.615796e-01 -1.546296e-01 3.077634e+00 34 23 33
-1.262730e-01 -1.447335e-01 2.953982e+00 129 73 0
1.558672e-01 -1.339854e-01 3.048109e+00 139 121 128
-1.796883e-01 -1.116843e-01 2.909369e+00 27 12 1
-1.586284e-01 -1.121052e-01 2.983764e+00 167 141 132
-1.586284e-01 -1.121052e-01 2.983764e+00 167 141 132
-2.827707e-01 -9.403621e-02 2.944999e+00 95 72 51
1.675222e-01 -9.783923e-02 3.039675e+00 179 177 188
3.214805e-01 -9.104205e-02 3.000842e+00 160 148 160
2.026919e-01 -9.996999e-02 3.144807e+00 79 57 61
2.026919e-01 -9.996999e-02 3.144807e+00 79 57 61
2.700423e-01 -7.161214e-02 3.059186e+00 185 172 163
2.431262e-01 -7.711473e-02 3.106223e+00 170 167 167
-2.896258e-01 -6.845902e-02 2.981850e+00 95 69 42
-2.576458e-01 -5.803909e-02 2.929297e+00 157 133 119
1.465248e-01 -6.234080e-02 3.101265e+00 135 108 138
6.561204e-02 -3.625655e-02 2.982894e+00 55 38 40
-2.712581e-01 -4.662993e-02 3.174736e+00 26 28 4
5.563997e-01 -2.407137e-02 2.889889e+00 218 201 177
5.563997e-01 -2.407137e-02 2.889889e+00 218 201 177
-1.968259e-01 -2.239480e-03 2.771005e+00 118 101 107
4.815740e-01 -6.988948e-03 3.037350e+00 218 217 219
1.465844e-01 -9.801596e-03 3.041652e+00 12 17 33
-2.039646e-01 8.125548e-03 3.041991e+00 35 8 24
-2.272530e-01 5.439274e-03 3.069012e+00 21 2 14
-1.861277e-01 7.656942e-03 3.180374e+00 35 16 20
3.877726e-02 5.306253e-02 3.029442e+00 144 63 33
3.661058e-01 5.785631e-02 2.961694e+00 63 28 55
4.282485e-01 5.943738e-02 2.967548e+00 128 87 110
5.462332e-02 6.560435e-02 3.009800e+00 220 191 148
5.462323e-02 6.560452e-02 3.009800e+00 220 191 148
-2.384382e-01 7.010945e-02 3.005109e+00 28 16 24
-2.233128e-01 8.071026e-02 3.013927e+00 105 85 88
-5.464563e-01 8.168459e-02 2.944532e+00 138 109 77
4.398645e-01 8.428408e-02 2.923773e+00 70 38 56
1.846804e-02 8.309988e-02 3.051960e+00 150 81 34
4.347941e-01 8.551858e-02 2.756323e+00 201 174 171
-1.195985e-01 9.944957e-02 3.067256e+00 98 89 97
3.837674e-01 1.057175e-01 3.155538e+00 140 116 155
1.524866e-01 1.014661e-01 3.091434e+00 217 215 245
1.524866e-01 1.014661e-01 3.091434e+00 217 215 245
-2.533956e-01 9.921062e-02 3.093010e+00 11 3 10
-1.123513e-01 1.164118e-01 2.988100e+00 17 9 17
2.466916e-02 1.276778e-01 2.856513e+00 241 163 113
3.694856e-01 1.352541e-01 2.872573e+00 73 67 19
-6.372172e-01 1.313429e-01 2.823950e+00 219 219 221
-7.856277e-02 1.418185e-01 3.015902e+00 157 150 129
5.560823e-02 1.471179e-01 2.980751e+00 213 152 119
5.560813e-02 1.471179e-01 2.980751e+00 213 152 119
-9.878230e-02 1.557172e-01 2.765492e+00 173 171 132
-9.878230e-02 1.557172e-01 2.765492e+00 173 171 132
4.739962e-02 2.674549e-01 3.103692e+00 167 164 131
-5.789769e-02 3.958252e-01 2.989518e+00 218 225 213
-7.092639e-01 6.405781e-01 2.941180e+00 69 29 9
-6.735090e-01 6.260749e-01 2.803136e+00 149 125 83
-1.189047e-01 -1.913285e-01 2.954945e+00 23 44 60
-1.189047e-01 -1.913285e-01 2.954945e+00 23 44 60
2.513590e-01 -2.812994e-01 3.003854e+00 29 11 19
-6.031093e-02 -5.480453e-02 2.984396e+00 119 106 94
-1.336788e-01 1.575343e-02 3.044477e+00 26 2 6
4.005279e-01 -1.953317e-01 2.952561e+00 172 120 52
2.184381e-01 -3.361314e-02 3.087211e+00 158 162 69
-1.905403e-02 1.731117e-01 3.109088e+00 135 128 93
-7.920102e-02 3.922089e-01 2.958005e+00 211 216 198
-1.113065e-01 3.978960e-01 2.957629e+00 214 217 204
-3.430231e-02 7.317386e-02 6.486412e-01 0 255 0
-3.491544e-02 7.473626e-02 5.986694e-01 255 255 0
-9.794197e-02 3.790412e-02 5.318725e-01 255 0 0
-9.974007e-02 3.697103e-02 4.819136e-01 255 255 0
-1.753196e+01 8.914358e+01 3.444089e+03 0 255 0
-1.753170e+01 8.914229e+01 3.444039e+03 255 255 0
-9.837947e+01 -4.105533e+02 5.859839e+03 255 0 0
-9.837863e+01 -4.105498e+02 5.859790e+03 255 255 0
