ply
format ascii 1.0
element vertex 944
property float x
property float y
property float z
property uchar diffuse_red
property uchar diffuse_green
property uchar diffuse_blue
end_header
6.666037e-01 2.062414e+00 3.808595e+00 62 32 36
4.497539e-01 2.346069e+00 5.778202e+00 65 85 84
7.934953e-01 2.100637e+00 3.740378e+00 49 40 45
1.339785e+00 1.959888e+00 3.423455e+00 204 195 182
1.146247e+00 1.918743e+00 3.782598e+00 159 144 138
3.351786e-01 2.184582e+00 3.146409e+00 214 208 207
8.149009e-01 2.503734e+00 3.260911e+00 72 87 83
1.221435e+00 1.782851e+00 3.575490e+00 36 33 41
1.220219e+00 1.784201e+00 3.575507e+00 36 33 41
1.104295e+00 1.751849e+00 3.596586e+00 49 53 59
1.001319e+00 2.157724e+00 3.500870e+00 62 86 138
1.101561e+00 2.189659e+00 3.424025e+00 213 215 227
3.448578e-01 2.270011e+00 3.282008e+00 177 120 38
9.963257e-01 2.299309e+00 3.551240e+00 175 123 29
1.960931e-01 2.663304e+00 2.886589e+00 70 28 17
1.076688e+00 1.801746e+00 3.642008e+00 151 119 88
1.260522e+00 1.883787e+00 3.695158e+00 13 29 82
1.247755e+00 1.920811e+00 3.701296e+00 2 31 102
1.369692e+00 1.965827e+00 3.357230e+00 209 198 196
9.344447e-01 2.064483e+00 3.406576e+00 88 23 19
8.507765e-01 2.075179e+00 3.481035e+00 20 13 31
8.507765e-01 2.075179e+00 3.481035e+00 20 13 31
5.588502e-01 2.120891e+00 3.418338e+00 233 231 216
5.674882e-01 2.139002e+00 3.171058e+00 233 231 216
1.003395e+00 1.866189e+00 3.610197e+00 138 110 95
1.037475e+00 1.927234e+00 3.755297e+00 6 27 89
9.997636e-01 1.931598e+00 3.682827e+00 130 111 95
9.644270e-01 1.962835e+00 3.472197e+00 59 27 11
6.108140e-01 2.071500e+00 3.111131e+00 155 117 77
1.442421e+00 2.117565e+00 3.215451e+00 23 19 18
1.244176e+00 2.073250e+00 3.707790e+00 185 162 121
1.117019e+00 2.097357e+00 3.754702e+00 18 71 167
1.700529e-01 2.131340e+00 3.180893e+00 238 234 226
1.662288e-01 2.132293e+00 3.186227e+00 238 234 226
8.377383e-01 2.138997e+00 3.673976e+00 30 18 24
8.386060e-01 2.138412e+00 3.672287e+00 30 18 24
1.974167e-01 2.171376e+00 3.130688e+00 97 102 132
1.245198e+00 1.811636e+00 3.600242e+00 23 20 58
1.225478e+00 1.846804e+00 3.638832e+00 185 144 116
9.761726e-01 1.864303e+00 3.442505e+00 80 47 19
6.587902e-01 1.850595e+00 3.512647e+00 150 135 129
7.513560e-01 1.867784e+00 3.490581e+00 167 134 21
6.309994e-01 1.882425e+00 3.442158e+00 94 69 45
8.544663e-01 1.906298e+00 3.480384e+00 35 20 22
6.623396e-01 1.895273e+00 3.543560e+00 146 129 109
8.185778e-01 1.935742e+00 3.531731e+00 157 136 115
1.256392e+00 1.985561e+00 3.677148e+00 5 24 81
1.164378e+00 2.025103e+00 3.784798e+00 52 58 23
1.068735e+00 2.077448e+00 3.780484e+00 228 214 203
1.376638e+00 2.143775e+00 3.174775e+00 12 8 13
8.738620e-01 2.098007e+00 3.667740e+00 237 215 112
7.636486e-01 2.141839e+00 3.423085e+00 24 27 29
9.883220e-01 2.156043e+00 3.732262e+00 29 63 141
1.103739e+00 2.192980e+00 3.382894e+00 214 217 228
1.809017e-01 2.207811e+00 3.112686e+00 238 233 221
1.803648e-01 2.210079e+00 3.087076e+00 238 233 221
3.678423e-01 2.221201e+00 3.245732e+00 249 236 227
1.042998e+00 2.268138e+00 3.110812e+00 244 232 98
1.042998e+00 2.268138e+00 3.110812e+00 244 232 98
9.826833e-01 2.346536e+00 3.142113e+00 165 116 42
9.260488e-01 2.212855e+00 5.195367e+00 218 218 193
2.403922e-01 2.464180e+00 2.790172e+00 43 6 0
1.013625e+00 1.733449e+00 3.594852e+00 54 35 38
1.331373e+00 1.906142e+00 3.424102e+00 240 232 224
1.064174e+00 1.867678e+00 3.703933e+00 25 26 16
6.964554e-01 1.901148e+00 3.546764e+00 23 12 28
1.370796e+00 1.944682e+00 3.385707e+00 228 215 203
1.296939e+00 1.940116e+00 3.410035e+00 218 212 196
1.398650e+00 1.972135e+00 3.391246e+00 224 207 197
1.398590e+00 1.974579e+00 3.366224e+00 224 207 197
1.286815e+00 1.975377e+00 3.516604e+00 200 202 220
1.394594e+00 2.005485e+00 3.313496e+00 111 104 88
1.393903e+00 2.005547e+00 3.314391e+00 111 104 88
7.771405e-01 1.961596e+00 3.563091e+00 63 51 37
1.393841e+00 2.036736e+00 3.278692e+00 229 208 189
1.427891e+00 2.038274e+00 3.260148e+00 119 103 99
1.032770e+00 1.985417e+00 3.794375e+00 8 16 69
1.033621e+00 1.983510e+00 3.798269e+00 8 16 69
1.100383e+00 2.007326e+00 3.653339e+00 158 144 95
8.297670e-01 2.025865e+00 3.611986e+00 167 151 150
1.098136e+00 2.019645e+00 3.802449e+00 3 17 39
1.035051e+00 2.040267e+00 3.844095e+00 158 144 119
1.396094e+00 2.113130e+00 3.193801e+00 219 217 223
1.345850e+00 2.144694e+00 3.053907e+00 204 194 191
1.446506e+00 2.155756e+00 3.145696e+00 166 134 130
1.151320e+00 2.109563e+00 3.732945e+00 9 57 151
8.898405e-01 2.161900e+00 3.647306e+00 174 71 37
1.042676e+00 2.152931e+00 3.886648e+00 192 194 229
4.158625e-01 2.155768e+00 3.608935e+00 245 235 219
4.158625e-01 2.155768e+00 3.608935e+00 245 235 219
3.937543e-01 2.176354e+00 3.439241e+00 152 127 90
3.930698e-01 2.178683e+00 3.452555e+00 152 127 90
1.004201e+00 2.277992e+00 3.094492e+00 241 223 109
4.316263e-01 2.469632e+00 2.779121e+00 73 70 50
1.155578e+00 1.799283e+00 3.635120e+00 43 10 3
9.797015e-01 1.737609e+00 4.307622e+00 78 48 14
1.201705e+00 1.832619e+00 3.638494e+00 182 156 137
8.436667e-01 1.837866e+00 3.430838e+00 149 104 40
1.278007e+00 1.858941e+00 3.563987e+00 142 101 54
1.063355e+00 1.845105e+00 3.691424e+00 165 140 121
6.978495e-01 1.854051e+00 3.497045e+00 22 34 46
6.990842e-01 1.855271e+00 3.495002e+00 22 34 46
8.010361e-01 1.874931e+00 3.477179e+00 153 130 31
1.353291e+00 1.928274e+00 3.383363e+00 71 60 47
1.029787e+00 1.887687e+00 3.731827e+00 15 22 58
7.241223e-01 1.896048e+00 3.523698e+00 157 137 57
1.324995e+00 1.935491e+00 3.381739e+00 56 46 44
1.324602e+00 1.934773e+00 3.386322e+00 56 46 44
1.398523e+00 1.941452e+00 3.386756e+00 123 94 44
1.231610e+00 1.933670e+00 3.707080e+00 5 8 53
6.473312e-01 1.930804e+00 3.578954e+00 146 126 120
1.231608e+00 1.965178e+00 3.721881e+00 179 170 177
1.116402e+00 1.967114e+00 3.756577e+00 45 46 60
7.828603e-01 1.987261e+00 3.573701e+00 169 152 141
7.278321e-01 1.993005e+00 3.598552e+00 74 42 41
7.279333e-01 1.992991e+00 3.598679e+00 74 42 41
1.247918e+00 2.008442e+00 3.741165e+00 180 169 171
6.721401e-01 2.015133e+00 3.504293e+00 100 95 86
6.358483e-01 2.006103e+00 3.647645e+00 28 11 21
7.209720e-01 2.014941e+00 3.624670e+00 143 123 127
1.509126e+00 2.103142e+00 3.190708e+00 206 188 163
1.286162e+00 2.068078e+00 3.624897e+00 117 83 82
9.175263e-01 2.086950e+00 3.342616e+00 56 7 0
1.112484e+00 2.071594e+00 3.792292e+00 33 58 92
9.767542e-01 2.087332e+00 3.572171e+00 70 41 35
1.405940e+00 2.163877e+00 3.154390e+00 192 161 146
1.241689e+00 2.130071e+00 3.515005e+00 19 21 66
1.378814e+00 2.189566e+00 3.134322e+00 74 50 32
1.378213e+00 2.188760e+00 3.145047e+00 74 50 32
9.739958e-01 2.142374e+00 4.039491e+00 37 51 99
8.520099e-01 2.138273e+00 4.109291e+00 180 144 115
2.629715e-01 2.212944e+00 3.077539e+00 48 49 71
1.139165e+00 2.243953e+00 3.273398e+00 38 38 6
1.077386e+00 2.264253e+00 3.277064e+00 131 100 33
9.486509e-01 2.256837e+00 3.737789e+00 192 182 143
3.768748e-01 2.321905e+00 3.033625e+00 153 117 51
9.266311e-01 2.421437e+00 3.363618e+00 141 113 57
8.688506e-01 2.358729e+00 4.347419e+00 227 222 214
4.374987e-01 2.447948e+00 2.786783e+00 166 129 54
1.232815e+00 1.754045e+00 3.552677e+00 34 9 1
1.251791e+00 1.785657e+00 3.571875e+00 30 25 39
1.060428e+00 1.778204e+00 3.635886e+00 174 137 113
1.086662e+00 1.798665e+00 3.530611e+00 167 143 116
1.209505e+00 1.799790e+00 3.613310e+00 123 111 113
1.197675e+00 1.814169e+00 3.630803e+00 37 8 5
1.269815e+00 1.858319e+00 3.320419e+00 141 110 78
1.084197e+00 1.836064e+00 3.681566e+00 89 72 64
1.028328e+00 1.835816e+00 3.685480e+00 31 11 12
6.382836e-01 1.842898e+00 3.513552e+00 90 56 28
1.254144e+00 1.892138e+00 3.261011e+00 32 25 40
1.351104e+00 1.927178e+00 2.981911e+00 116 92 46
1.041889e+00 1.858457e+00 3.698919e+00 20 9 10
6.516780e-01 1.860302e+00 3.537003e+00 160 143 133
8.472587e-01 1.880030e+00 3.463893e+00 129 118 74
7.225964e-01 1.877064e+00 3.517563e+00 54 42 8
7.221783e-01 1.876084e+00 3.517161e+00 54 42 8
1.063970e+00 1.877410e+00 3.711790e+00 34 23 33
7.879212e-01 1.889738e+00 3.511722e+00 129 73 0
1.058284e+00 1.896986e+00 3.732427e+00 139 121 128
7.307227e-01 1.916352e+00 3.531306e+00 27 12 1
7.550406e-01 1.920248e+00 3.529560e+00 167 141 132
7.548980e-01 1.919730e+00 3.528976e+00 167 141 132
6.347236e-01 1.952224e+00 3.303524e+00 95 72 51
1.067879e+00 1.931807e+00 3.754864e+00 179 177 188
1.221387e+00 1.945247e+00 3.707471e+00 160 148 160
1.090062e+00 1.936600e+00 3.753900e+00 79 57 61
1.090165e+00 1.936239e+00 3.754417e+00 79 57 61
1.165079e+00 1.960484e+00 3.750824e+00 185 172 163
1.131476e+00 1.955873e+00 3.759532e+00 170 167 167
6.253500e-01 1.960686e+00 3.522241e+00 95 69 42
6.480226e-01 1.961817e+00 3.611945e+00 157 133 119
1.040592e+00 1.965219e+00 3.783521e+00 135 108 138
9.733676e-01 2.002714e+00 3.547243e+00 55 38 40
6.542885e-01 1.981795e+00 3.626059e+00 26 28 4
1.473938e+00 2.056241e+00 3.232833e+00 218 201 177
1.471244e+00 2.051665e+00 3.263202e+00 218 201 177
7.277816e-01 2.112880e+00 2.437361e+00 118 101 107
1.365635e+00 2.059227e+00 3.385074e+00 218 217 219
1.043692e+00 2.011503e+00 3.810393e+00 12 17 33
7.119271e-01 2.030838e+00 3.634539e+00 35 8 24
6.876712e-01 2.026628e+00 3.640635e+00 21 2 14
7.345974e-01 2.034090e+00 3.632859e+00 35 16 20
9.442664e-01 2.106079e+00 3.333315e+00 144 63 33
1.267781e+00 2.104368e+00 3.546026e+00 63 28 55
1.326324e+00 2.127072e+00 3.300048e+00 128 87 110
9.608563e-01 2.112098e+00 3.410984e+00 220 191 148
9.585652e-01 2.108205e+00 3.474114e+00 220 191 148
6.665958e-01 2.086537e+00 3.693452e+00 28 16 24
6.909551e-01 2.100392e+00 3.705504e+00 105 85 88
3.687335e-01 2.130883e+00 3.157880e+00 138 109 77
1.346310e+00 2.150360e+00 3.336492e+00 70 38 56
9.249083e-01 2.137064e+00 3.291782e+00 150 81 34
1.386242e+00 2.085509e+00 4.243033e+00 201 174 171
7.876355e-01 2.122165e+00 3.630263e+00 98 89 97
1.248047e+00 2.276121e+00 1.879048e+00 140 116 155
1.042427e+00 2.125972e+00 3.709748e+00 217 215 245
1.042427e+00 2.125972e+00 3.709748e+00 217 215 245
6.589611e-01 2.111414e+00 3.724676e+00 11 3 10
7.894801e-01 2.136140e+00 3.700509e+00 17 9 17
9.456601e-01 2.242151e+00 2.554193e+00 241 163 113
1.284202e+00 2.213238e+00 3.177999e+00 73 67 19
2.542023e-01 2.181838e+00 3.123046e+00 219 219 221
8.233456e-01 2.162871e+00 3.674986e+00 157 150 129
9.545887e-01 2.164588e+00 3.800232e+00 213 152 119
9.608609e-01 2.203812e+00 3.270836e+00 213 152 119
8.310405e-01 2.308948e+00 2.033211e+00 173 171 132
8.310405e-01 2.308948e+00 2.033211e+00 173 171 132
9.376132e-01 2.289601e+00 3.611319e+00 167 164 131
8.439660e-01 2.445372e+00 3.211481e+00 218 225 213
2.186856e-01 2.711708e+00 2.584241e+00 69 29 9
2.329301e-01 2.735428e+00 2.438133e+00 149 125 83
7.881273e-01 1.845567e+00 3.464907e+00 23 44 60
7.880370e-01 1.845108e+00 3.464889e+00 23 44 60
1.166907e+00 1.762141e+00 3.577105e+00 29 11 19
8.468078e-01 1.984609e+00 3.491798e+00 119 106 94
7.707882e-01 2.041874e+00 3.585349e+00 26 2 6
1.309980e+00 1.867816e+00 3.438941e+00 172 120 52
1.113166e+00 1.991957e+00 3.779857e+00 158 162 69
8.718735e-01 2.188368e+00 3.784252e+00 135 128 93
8.140489e-01 2.430109e+00 3.460318e+00 211 216 198
7.821717e-01 2.434692e+00 3.458602e+00 214 217 204
6.939664e-01 1.920115e+00 3.555192e+00 150 129 135
1.341032e+00 2.070642e+00 3.370703e+00 214 203 196
4.845694e-01 2.175086e+00 3.757862e+00 161 154 121
4.845694e-01 2.175086e+00 3.757862e+00 161 154 121
8.456278e-01 2.104966e+00 3.544779e+00 22 23 33
3.097998e-01 2.224075e+00 3.092946e+00 223 204 195
6.757713e-01 1.822022e+00 3.492035e+00 28 40 81
6.768775e-01 1.820714e+00 3.482379e+00 28 40 81
9.812376e-01 2.082954e+00 3.460529e+00 74 43 31
8.472406e-01 2.161115e+00 3.614537e+00 26 1 2
5.973228e-01 2.213157e+00 3.766853e+00 224 212 187
1.043549e+00 1.714005e+00 3.597178e+00 141 95 57
7.742215e-01 1.872923e+00 3.491407e+00 175 130 38
1.009750e+00 1.865647e+00 3.666970e+00 142 119 101
8.559368e-01 1.895255e+00 3.459379e+00 19 6 0
7.002658e-01 1.934077e+00 3.573050e+00 81 56 53
6.219134e-01 1.950806e+00 3.611892e+00 87 53 34
1.474405e+00 2.039322e+00 3.243204e+00 158 121 74
1.197140e+00 2.144261e+00 3.670877e+00 197 208 238
1.117363e+00 1.967782e+00 3.763724e+00 46 60 82
7.281796e-01 1.993349e+00 3.611834e+00 55 33 12
1.209671e+00 1.801130e+00 3.624967e+00 126 110 121
1.218736e+00 2.013788e+00 3.757931e+00 148 143 116
1.219099e+00 2.011492e+00 3.747377e+00 148 143 116
1.158232e+00 1.781689e+00 3.623381e+00 96 80 94
1.158232e+00 1.781689e+00 3.623381e+00 96 80 94
7.933263e-01 2.097205e+00 3.622944e+00 73 28 29
1.253220e+00 1.821216e+00 3.612021e+00 21 20 50
1.058071e+00 1.898553e+00 3.729711e+00 135 124 121
1.144568e-01 2.759345e+00 2.441160e+00 80 31 25
9.795043e-01 2.128397e+00 3.276729e+00 220 198 87
7.046662e-01 1.996016e+00 3.611704e+00 56 40 1
1.219302e+00 1.747525e+00 3.563073e+00 39 6 1
1.040894e+00 1.751946e+00 3.625510e+00 125 98 90
8.148331e-01 1.927420e+00 3.505184e+00 176 143 127
1.015053e+00 1.959519e+00 3.746936e+00 151 136 130
9.620526e-01 2.072238e+00 3.328512e+00 85 3 2
1.212963e+00 2.011285e+00 3.765189e+00 160 144 125
6.677178e-01 2.061416e+00 3.681534e+00 43 2 5
1.526029e-01 2.765237e+00 2.379440e+00 147 112 73
5.488586e-01 2.226126e+00 3.083020e+00 253 238 219
7.889245e-01 2.010139e+00 3.591948e+00 127 110 93
3.668961e-01 2.192092e+00 3.099952e+00 201 192 185
3.647111e-01 2.199364e+00 3.086781e+00 201 192 185
1.069629e+00 2.119120e+00 3.716410e+00 127 118 117
9.939480e-01 2.141839e+00 3.641249e+00 33 32 90
8.402712e-01 2.150026e+00 3.632237e+00 25 23 36
6.233763e-01 1.892972e+00 3.412593e+00 93 59 48
1.248828e+00 1.939308e+00 3.654853e+00 6 27 106
9.415900e-01 2.241589e+00 3.128601e+00 197 85 45
1.374608e+00 1.944536e+00 3.394351e+00 221 201 196
5.927233e-01 2.139092e+00 3.145617e+00 242 230 206
9.779351e-01 2.105793e+00 3.329118e+00 236 198 110
5.971626e-01 2.311426e+00 3.005799e+00 254 239 221
1.290312e+00 1.864322e+00 3.424575e+00 144 109 66
1.199299e+00 1.981111e+00 3.791980e+00 141 137 55
1.129945e+00 2.143572e+00 3.686081e+00 178 173 203
1.012264e+00 1.846768e+00 3.643363e+00 144 123 111
1.150999e+00 1.964839e+00 3.754050e+00 185 168 159
6.383943e-01 2.037937e+00 3.646429e+00 23 19 29
5.723161e-01 2.185151e+00 3.796451e+00 97 81 35
1.222938e+00 1.730597e+00 3.568879e+00 136 92 38
1.179114e+00 1.782375e+00 3.610176e+00 5 2 29
6.352141e-01 1.855077e+00 3.530067e+00 83 57 44
1.206774e+00 1.855022e+00 3.674837e+00 79 58 37
1.446456e+00 2.001038e+00 3.338502e+00 214 189 160
1.446456e+00 2.001038e+00 3.338502e+00 214 189 160
6.421334e-01 1.912061e+00 3.562729e+00 50 18 18
6.926290e-01 1.950967e+00 3.569806e+00 157 140 114
6.926290e-01 1.950967e+00 3.569806e+00 157 140 114
1.395861e+00 2.096994e+00 3.253655e+00 209 209 208
7.275125e-01 1.961252e+00 3.584966e+00 83 64 67
7.104573e-01 1.965624e+00 3.572700e+00 76 58 53
1.345205e+00 2.129752e+00 3.248844e+00 206 196 186
8.845428e-01 2.086245e+00 3.333303e+00 36 16 4
1.060163e+00 1.951232e+00 3.753991e+00 53 57 87
6.437092e-01 2.000097e+00 3.602012e+00 152 141 133
1.190720e+00 1.978896e+00 3.751867e+00 85 70 61
1.160759e+00 1.976921e+00 3.758190e+00 45 41 14
1.027252e+00 1.978012e+00 3.775102e+00 25 17 66
1.194638e+00 1.993915e+00 3.753559e+00 160 153 60
1.212903e+00 2.013189e+00 3.764424e+00 159 148 137
5.085055e-01 2.342185e+00 2.981382e+00 163 121 49
1.011268e+00 2.146691e+00 3.668044e+00 113 132 183
6.617232e-01 1.861092e+00 3.472679e+00 158 128 123
8.445293e-01 2.135237e+00 3.661030e+00 20 18 31
8.430298e-01 2.045777e+00 3.612533e+00 18 20 39
8.444313e-01 2.052989e+00 3.593597e+00 18 20 39
9.439869e-01 2.079041e+00 3.733691e+00 173 144 82
8.319731e-01 2.024115e+00 3.590858e+00 176 151 138
8.759125e-01 2.160631e+00 3.715880e+00 72 47 12
8.138614e-01 1.916370e+00 3.530493e+00 170 148 134
5.055637e-01 2.119466e+00 3.822776e+00 161 155 126
6.727015e-01 1.833882e+00 3.522593e+00 143 116 120
6.795494e-01 1.865007e+00 3.505515e+00 141 127 126
6.008267e-01 1.872479e+00 3.502148e+00 93 57 46
6.008267e-01 1.872479e+00 3.502148e+00 93 57 46
8.025828e-01 1.940194e+00 3.531405e+00 163 139 130
6.809424e-01 2.087559e+00 3.679484e+00 15 12 20
7.742473e-01 2.101284e+00 3.660675e+00 1 3 15
1.003223e+00 2.073481e+00 3.787526e+00 19 26 71
6.981549e-01 2.135593e+00 3.705274e+00 109 88 46
6.770884e-01 2.331912e+00 3.752362e+00 217 213 167
1.347016e+00 2.047348e+00 3.497456e+00 207 193 187
1.218920e+00 2.193346e+00 3.343902e+00 131 71 86
6.538446e-01 2.047004e+00 3.585927e+00 62 21 13
1.072753e+00 1.809235e+00 3.684587e+00 142 109 66
7.755813e-01 2.007619e+00 3.580613e+00 120 92 77
1.238336e+00 2.050533e+00 3.688269e+00 146 142 94
1.403068e+00 1.982133e+00 3.356297e+00 204 191 182
3.651177e-01 2.190893e+00 3.557084e+00 150 146 113
3.651177e-01 2.190893e+00 3.557084e+00 150 146 113
1.394415e+00 1.968217e+00 3.411993e+00 205 189 174
1.111509e+00 2.227799e+00 3.179003e+00 245 222 114
1.120213e+00 2.234132e+00 3.268521e+00 245 222 114
9.504209e-01 2.284866e+00 3.631913e+00 190 155 117
3.851429e-01 2.207616e+00 3.552537e+00 204 200 168
1.250388e+00 1.790193e+00 3.609920e+00 25 25 49
1.205876e+00 1.911371e+00 3.678578e+00 143 119 112
1.274515e+00 1.911479e+00 3.502991e+00 24 1 1
1.233514e+00 1.933262e+00 3.715322e+00 6 1 22
6.244477e-01 1.995888e+00 3.581840e+00 31 13 3
6.053055e-01 2.004973e+00 3.579784e+00 144 106 49
1.465308e+00 2.163666e+00 3.027214e+00 90 59 27
1.435615e+00 2.166236e+00 2.992193e+00 67 33 11
2.506928e-01 2.152813e+00 3.199195e+00 225 215 213
1.339938e+00 1.683628e+00 3.662845e+00 105 51 0
8.535392e-01 1.843703e+00 3.435490e+00 136 97 41
1.236757e+00 1.982331e+00 3.747631e+00 34 20 9
6.903367e-01 1.877966e+00 3.539618e+00 23 17 27
1.306219e+00 2.016073e+00 3.367727e+00 71 55 56
1.335513e+00 2.033635e+00 3.229383e+00 204 201 198
1.377693e+00 2.081952e+00 3.310441e+00 204 195 194
6.427150e-01 1.940853e+00 3.555872e+00 84 64 42
1.399938e+00 2.163860e+00 3.029601e+00 177 150 136
7.528741e-01 2.108860e+00 3.590867e+00 18 5 2
7.851164e-01 2.135432e+00 3.616864e+00 149 146 120
1.002584e+00 2.220586e+00 3.329453e+00 231 168 95
9.473679e-01 2.235989e+00 3.671082e+00 133 59 23
1.023844e+00 2.235800e+00 3.211838e+00 238 162 103
3.413819e-01 2.153352e+00 3.479013e+00 237 227 206
4.244347e-01 2.329800e+00 3.630658e+00 180 175 134
4.184640e-01 2.365640e+00 3.479590e+00 214 211 172
9.139660e-01 2.477291e+00 2.893635e+00 160 132 67
9.396818e-01 2.499191e+00 3.007093e+00 40 39 11
1.859979e+00 2.741449e+00 2.374320e+00 52 10 0
7.897490e-01 1.891138e+00 3.491511e+00 135 70 0
6.528930e-01 1.947625e+00 3.598895e+00 99 65 64
1.226081e+00 1.968762e+00 3.732821e+00 169 161 169
4.792519e-01 3.044395e+00 2.538448e+00 126 98 55
1.294155e+00 3.140926e+00 2.671160e+00 199 180 173
3.297897e-01 3.107405e+00 2.745059e+00 175 170 150
9.685348e-01 1.974913e+00 3.329038e+00 55 21 1
4.488179e-01 3.128976e+00 2.730865e+00 14 11 14
1.130297e+00 1.727382e+00 3.581756e+00 33 10 0
1.123342e+00 1.765857e+00 3.610887e+00 5 4 16
1.123504e+00 1.766563e+00 3.610780e+00 5 4 16
1.086301e+00 1.781792e+00 3.637402e+00 172 137 117
6.642841e-01 1.963604e+00 3.598382e+00 146 139 119
1.098294e+00 1.951523e+00 3.759136e+00 184 173 170
8.253678e-01 2.091098e+00 3.640816e+00 26 9 18
8.190052e-01 2.128415e+00 3.678835e+00 53 51 62
1.555152e+00 3.213687e+00 2.679058e+00 131 120 106
1.224002e+00 1.785222e+00 3.586882e+00 43 37 47
1.351952e+00 2.039454e+00 3.284867e+00 130 118 107
1.351952e+00 2.039454e+00 3.284867e+00 130 118 107
9.271007e-01 2.223624e+00 3.412885e+00 176 142 83
2.178941e-01 2.561941e+00 2.658905e+00 79 32 14
2.178941e-01 2.561941e+00 2.658905e+00 79 32 14
1.006488e+00 1.739280e+00 3.576462e+00 78 44 28
1.330670e+00 2.069091e+00 3.300334e+00 208 195 176
1.687614e-01 2.696918e+00 2.547823e+00 146 118 63
1.022003e+00 2.047440e+00 3.384961e+00 152 126 109
5.829638e-01 3.117017e+00 2.740646e+00 191 180 156
5.220545e-01 3.105419e+00 2.766858e+00 7 12 44
1.248370e+00 1.985179e+00 3.732100e+00 5 24 95
1.232944e+00 2.063714e+00 3.764829e+00 179 160 111
3.791437e-01 3.116773e+00 2.744633e+00 7 8 35
4.495984e-01 3.152799e+00 2.764344e+00 180 167 171
1.288632e+00 1.859851e+00 3.434457e+00 142 108 61
1.300615e+00 1.936175e+00 3.414909e+00 208 187 170
1.367259e+00 2.126611e+00 3.236987e+00 11 4 0
1.067781e+00 1.810440e+00 3.664096e+00 175 131 89
9.258000e-01 2.070412e+00 3.355686e+00 65 1 0
1.274188e+00 1.980162e+00 3.737183e+00 166 130 93
6.090014e-01 2.337342e+00 2.948317e+00 255 239 218
1.780013e+00 3.023172e+00 2.684262e+00 167 145 95
4.790074e-01 3.153379e+00 2.757625e+00 182 167 164
1.021016e+00 1.642852e+00 3.654874e+00 107 46 0
1.188987e+00 1.746596e+00 3.564077e+00 27 6 1
1.144990e+00 1.738954e+00 3.586391e+00 139 129 116
1.027220e+00 1.750908e+00 3.616214e+00 29 17 25
1.057651e+00 1.761617e+00 3.628797e+00 41 3 1
1.170546e+00 1.811551e+00 3.637553e+00 173 144 132
1.206888e+00 1.857764e+00 3.670637e+00 87 53 36
1.082123e+00 1.850897e+00 3.693496e+00 176 154 133
1.198375e+00 1.869518e+00 3.682938e+00 168 150 136
1.302237e+00 2.007891e+00 3.375653e+00 201 202 205
1.141740e+00 1.869447e+00 3.690735e+00 168 151 137
1.099349e+00 1.887825e+00 3.718855e+00 187 169 154
1.099588e+00 1.889122e+00 3.718058e+00 187 169 154
9.300904e-01 2.060310e+00 3.339124e+00 97 39 28
9.289940e-01 2.048155e+00 3.365453e+00 97 39 28
1.160940e+00 1.928036e+00 3.723521e+00 187 166 151
8.192384e-01 1.996243e+00 3.569025e+00 160 137 113
1.388099e-01 2.136924e+00 3.178332e+00 146 108 54
1.026879e+00 2.021740e+00 3.833142e+00 156 139 128
1.005673e+00 2.057462e+00 3.784111e+00 123 114 137
1.699424e+00 3.266521e+00 2.827949e+00 140 128 114
1.699424e+00 3.266521e+00 2.827949e+00 140 128 114
1.710396e+00 3.271915e+00 2.841219e+00 188 177 168
3.286647e-01 3.093569e+00 2.765011e+00 176 169 153
1.063822e+00 1.866518e+00 3.706377e+00 30 23 29
1.072997e+00 1.721531e+00 3.591055e+00 20 8 13
1.074382e+00 1.725973e+00 3.589636e+00 20 8 13
1.157857e+00 1.735337e+00 3.578099e+00 52 19 3
1.184969e+00 1.797876e+00 3.617407e+00 153 121 114
1.068647e+00 1.835234e+00 3.683283e+00 167 137 108
1.014761e+00 1.871271e+00 3.660297e+00 150 133 118
1.179320e+00 1.903096e+00 3.703861e+00 189 157 160
1.179320e+00 1.903096e+00 3.703861e+00 189 157 160
1.088025e+00 1.904023e+00 3.732017e+00 184 168 158
1.088044e+00 1.904133e+00 3.731997e+00 184 168 158
1.190869e+00 1.944928e+00 3.726856e+00 184 163 159
1.190869e+00 1.944928e+00 3.726856e+00 184 163 159
1.157096e+00 1.943689e+00 3.741703e+00 130 106 88
1.114941e+00 1.974955e+00 3.778438e+00 64 63 60
1.225110e+00 2.000244e+00 3.740628e+00 117 124 95
1.223668e+00 2.006923e+00 3.756347e+00 61 52 40
7.268037e-01 2.055527e+00 3.640990e+00 79 1 0
7.587061e-01 2.072125e+00 3.651375e+00 54 12 0
1.221697e+00 2.028894e+00 3.780452e+00 186 173 129
7.028051e-01 2.125975e+00 3.704512e+00 15 4 3
7.008325e-01 2.117052e+00 3.712070e+00 15 4 3
7.901057e-01 2.133130e+00 3.691172e+00 10 6 3
1.553914e+00 3.197439e+00 2.710543e+00 137 124 108
1.528455e+00 3.230498e+00 2.743860e+00 140 126 112
1.348477e+00 2.038957e+00 3.477663e+00 207 193 187
1.003501e+00 2.253256e+00 3.147919e+00 194 66 27
1.031378e+00 2.037743e+00 3.806059e+00 133 140 71
8.345604e-01 2.209668e+00 3.725494e+00 122 118 67
1.118607e+00 1.968738e+00 3.766012e+00 47 34 57
1.099839e+00 2.065007e+00 3.806978e+00 99 40 50
1.173504e+00 2.099570e+00 3.749463e+00 12 39 103
1.216786e+00 2.118007e+00 3.685496e+00 179 177 142
6.250315e-01 1.996815e+00 3.584348e+00 31 13 3
1.010562e+00 2.174204e+00 3.613776e+00 8 32 99
1.108078e+00 2.227266e+00 3.164524e+00 240 215 123
1.268377e+00 1.843559e+00 3.617410e+00 130 83 54
1.209425e+00 1.861005e+00 3.669119e+00 57 31 19
1.359068e+00 1.895282e+00 3.399897e+00 109 69 37
1.338420e+00 1.917477e+00 3.404403e+00 210 201 191
1.355987e+00 1.941650e+00 3.394765e+00 206 190 173
1.200856e+00 1.948310e+00 3.744900e+00 157 140 124
1.143841e+00 1.947383e+00 3.740330e+00 84 70 58
1.308933e+00 1.983356e+00 3.328765e+00 39 30 35
1.308933e+00 1.983356e+00 3.328765e+00 39 30 35
1.246762e+00 2.032847e+00 3.810167e+00 61 52 37
1.380080e+00 2.016059e+00 3.271467e+00 215 193 164
1.139847e+00 2.099728e+00 3.774558e+00 12 51 141
1.071888e+00 2.171755e+00 3.665007e+00 70 70 74
1.168105e+00 2.204014e+00 3.601219e+00 17 53 144
1.140240e+00 2.202086e+00 3.620654e+00 213 218 244
1.102856e+00 2.205362e+00 3.160320e+00 102 66 59
8.605931e-01 2.186893e+00 3.727430e+00 110 109 68
9.600684e-01 2.194554e+00 3.256199e+00 220 174 117
7.019365e-01 2.200166e+00 3.771239e+00 225 226 188
1.019006e+00 2.295710e+00 3.047170e+00 220 214 134
8.498191e-01 2.612353e+00 5.567493e+00 218 210 177
8.985492e-01 2.645159e+00 4.796264e+00 37 41 17
6.807464e-01 1.985892e+00 3.583061e+00 41 29 5
1.201995e+00 2.014030e+00 3.768420e+00 51 31 34
1.035931e+00 1.731471e+00 3.615215e+00 38 12 14
1.465648e+00 2.047428e+00 3.161324e+00 212 194 170
1.220674e+00 2.120388e+00 3.732021e+00 171 193 122
1.492939e+00 2.118062e+00 3.058543e+00 102 83 69
1.037363e+00 2.176247e+00 3.659259e+00 216 210 238
1.210502e+00 2.227840e+00 3.155629e+00 22 11 11
1.008166e+00 2.226043e+00 3.260462e+00 233 166 96
1.008166e+00 2.226043e+00 3.260462e+00 233 166 96
4.568249e-01 2.361571e+00 2.805963e+00 218 202 172
5.627654e-01 2.249352e+00 3.398639e+00 172 142 83
6.121873e-01 1.863410e+00 3.447965e+00 63 46 47
8.281094e-01 1.934328e+00 3.519999e+00 161 133 104
8.455177e-01 2.054678e+00 3.594043e+00 21 23 39
8.483355e-01 2.093291e+00 3.622754e+00 18 16 29
1.006781e+00 1.776374e+00 3.599825e+00 139 114 86
5.250640e-01 2.376302e+00 2.903107e+00 251 237 211
1.159768e+00 2.025452e+00 3.786248e+00 88 103 71
8.554721e-01 2.045237e+00 3.585245e+00 23 14 17
1.063138e+00 1.719837e+00 3.623353e+00 105 105 114
6.042322e-01 1.941689e+00 3.348428e+00 71 43 36
8.832216e-01 1.902097e+00 3.467476e+00 85 76 76
8.578894e-01 2.044362e+00 3.580891e+00 22 8 8
1.012806e+00 2.032858e+00 3.826538e+00 27 24 47
1.237788e+00 1.756700e+00 3.555485e+00 14 5 3
1.013162e+00 1.754746e+00 3.601386e+00 138 126 130
1.129017e+00 1.860746e+00 3.682847e+00 177 154 140
6.427559e-01 1.997265e+00 3.619531e+00 156 138 133
6.065378e-01 2.150383e+00 3.543415e+00 148 117 71
6.032285e-01 2.180609e+00 3.590456e+00 115 87 50
8.192965e-01 2.105717e+00 3.859706e+00 87 69 43
1.154902e+00 1.732898e+00 3.580458e+00 45 10 4
6.994278e-01 1.819459e+00 3.470421e+00 39 32 7
7.609654e-01 1.828125e+00 3.466448e+00 17 31 17
8.224909e-01 1.842232e+00 3.451904e+00 27 19 30
1.090120e+00 1.759932e+00 3.620658e+00 157 127 130
1.091640e+00 1.763615e+00 3.617902e+00 157 127 130
1.120730e+00 1.785108e+00 3.600635e+00 147 118 118
6.725600e-01 1.849094e+00 3.492554e+00 156 125 126
1.013202e+00 1.791306e+00 3.635108e+00 133 121 117
1.208613e+00 1.831824e+00 3.631964e+00 183 149 125
1.218829e+00 1.930938e+00 3.718357e+00 18 15 44
1.166978e+00 1.937942e+00 3.737315e+00 181 168 156
7.116616e-01 2.004923e+00 3.618831e+00 50 46 16
1.139549e+00 1.945152e+00 3.750159e+00 85 75 62
6.735741e-01 2.028053e+00 3.606553e+00 112 111 97
6.265634e-01 2.039540e+00 3.621552e+00 137 113 117
1.069021e+00 1.965650e+00 3.789069e+00 153 130 137
1.143083e+00 1.984393e+00 3.771488e+00 184 142 72
1.121974e+00 1.984245e+00 3.778560e+00 175 158 56
1.014698e+00 1.976457e+00 3.779089e+00 157 154 171
7.565182e-01 2.107144e+00 3.679564e+00 6 7 19
5.968213e-01 2.211295e+00 3.518630e+00 100 71 26
1.028883e+00 2.023993e+00 3.827632e+00 158 153 137
8.201159e-01 2.125588e+00 3.681413e+00 56 51 64
8.171283e-01 2.146406e+00 3.672114e+00 19 6 12
1.848035e+00 3.254024e+00 2.846962e+00 193 180 158
8.545591e-01 2.043756e+00 3.584526e+00 23 5 12
6.661980e-01 2.128983e+00 3.849008e+00 100 100 49
1.087239e+00 1.782628e+00 3.640326e+00 188 151 121
8.503745e-01 1.861191e+00 3.453346e+00 105 104 54
1.487355e+00 2.115208e+00 3.116046e+00 127 112 96
1.393444e+00 2.136127e+00 3.098852e+00 27 2 1
1.447694e+00 2.153087e+00 3.055690e+00 186 168 149
7.154585e-01 2.167080e+00 3.576248e+00 85 75 81
1.115182e+00 2.038892e+00 3.834488e+00 169 158 96
1.116432e+00 1.786383e+00 3.633752e+00 20 0 0
3.973316e-01 2.385355e+00 3.510177e+00 45 26 0
1.038306e+00 1.738455e+00 3.612142e+00 153 131 139
7.405106e-01 1.823994e+00 3.469842e+00 19 29 0
8.428878e-01 1.847913e+00 3.447096e+00 41 21 28
6.818379e-01 1.887871e+00 3.526528e+00 28 28 48
1.189545e+00 1.977690e+00 3.751221e+00 63 48 46
9.770905e-01 2.155039e+00 3.649453e+00 49 19 19
7.583053e-01 2.127437e+00 3.689379e+00 8 5 7
4.588304e-01 2.291125e+00 3.506313e+00 181 151 96
1.881562e+00 3.212885e+00 2.877246e+00 132 121 102
1.816419e+00 3.258124e+00 2.884416e+00 157 146 125
1.725059e+00 3.286971e+00 2.865723e+00 155 139 124
6.567743e-01 2.038975e+00 3.639016e+00 19 19 34
6.534705e-01 1.852827e+00 3.510386e+00 171 147 127
9.121852e-01 2.004599e+00 3.489843e+00 177 136 83
8.485312e-01 2.056250e+00 3.589624e+00 27 28 48
1.034562e+00 1.991553e+00 3.786507e+00 5 36 126
9.961370e-01 1.758539e+00 3.568329e+00 28 25 44
9.568785e-01 1.879590e+00 3.425984e+00 110 68 26
7.238360e-01 1.897080e+00 3.521625e+00 164 150 11
1.012388e+00 1.832959e+00 3.663847e+00 170 143 121
1.225002e+00 1.860875e+00 3.655255e+00 190 160 118
1.012340e+00 1.858134e+00 3.683828e+00 167 144 121
1.007244e+00 1.899929e+00 3.736893e+00 172 147 116
6.312291e-01 1.860925e+00 3.503734e+00 65 50 59
6.284957e-01 1.959782e+00 3.569826e+00 53 35 66
6.222294e-01 2.020776e+00 3.502952e+00 61 55 62
6.480079e-01 1.969690e+00 3.599634e+00 167 141 133
6.251142e-01 2.095333e+00 3.538644e+00 55 26 35
7.883205e-01 2.060888e+00 3.623062e+00 141 63 18
9.726835e-01 2.096922e+00 3.619279e+00 40 33 34
6.327489e-01 1.815907e+00 3.478158e+00 22 27 45
7.688101e-01 1.859551e+00 3.509302e+00 189 150 21
1.071750e+00 1.856597e+00 3.697666e+00 24 16 11
8.591618e-01 2.019374e+00 3.565285e+00 110 95 76
8.591618e-01 2.019374e+00 3.565285e+00 110 95 76
1.014234e+00 1.926375e+00 3.743534e+00 164 145 135
6.855639e-01 2.049805e+00 3.653722e+00 144 84 54
6.202557e-01 2.089046e+00 3.617853e+00 55 27 24
1.010820e+00 1.996761e+00 3.779137e+00 0 5 62
1.089339e+00 2.000237e+00 3.809741e+00 21 23 50
1.147695e+00 1.743055e+00 3.582339e+00 160 144 134
9.921191e-01 1.771358e+00 3.542420e+00 25 12 12
1.186238e+00 1.758467e+00 3.581612e+00 118 106 107
1.186238e+00 1.758467e+00 3.581612e+00 118 106 107
1.129479e+00 1.754015e+00 3.603986e+00 163 150 167
6.548904e-01 1.831258e+00 3.495555e+00 45 47 55
1.159221e+00 1.768953e+00 3.605864e+00 30 23 25
6.437990e-01 1.881155e+00 3.526492e+00 47 29 30
6.437990e-01 1.881155e+00 3.526492e+00 47 29 30
1.111791e+00 1.811439e+00 3.650873e+00 194 157 116
6.248492e-01 1.924825e+00 3.488351e+00 64 56 54
8.029841e-01 1.917093e+00 3.515102e+00 180 159 144
6.368318e-01 1.900481e+00 3.535177e+00 81 72 64
7.906053e-01 1.954861e+00 3.549728e+00 131 115 106
8.024573e-01 1.961005e+00 3.550229e+00 142 125 115
6.212724e-01 1.990933e+00 3.518205e+00 126 91 86
1.015613e+00 1.896168e+00 3.718429e+00 161 140 124
8.059612e-01 2.063144e+00 3.626795e+00 73 10 0
6.185285e-01 2.088191e+00 3.584671e+00 149 90 61
6.184122e-01 2.087954e+00 3.584821e+00 149 90 61
1.083786e+00 1.964990e+00 3.780104e+00 151 135 146
1.083786e+00 1.964990e+00 3.780104e+00 151 135 146
7.621697e-01 2.077179e+00 3.648469e+00 88 13 2
1.026472e+00 2.002058e+00 3.818513e+00 141 155 174
1.121172e+00 2.016303e+00 3.812181e+00 72 59 10
6.203310e-01 2.257513e+00 3.480219e+00 134 106 63
6.269732e-01 2.141278e+00 3.702946e+00 119 93 41
7.678066e-01 2.072243e+00 3.866748e+00 88 66 19
1.817795e+00 3.194561e+00 2.890924e+00 152 137 118
6.589193e-01 2.122213e+00 3.860829e+00 100 100 49
6.742446e-01 2.123995e+00 3.709772e+00 11 2 3
1.550820e+00 3.196514e+00 2.714213e+00 137 124 108
1.640827e+00 3.223396e+00 2.765966e+00 157 142 123
4.868620e-01 2.307130e+00 3.480147e+00 121 86 22
5.996536e-01 2.265744e+00 3.499621e+00 38 12 0
1.032494e+00 2.023701e+00 3.844480e+00 178 157 59
1.145105e+00 1.852868e+00 3.677937e+00 73 61 54
1.083904e+00 1.987175e+00 3.794406e+00 199 168 106
1.011704e+00 1.886381e+00 3.670517e+00 102 77 69
6.946824e-01 1.991172e+00 3.607718e+00 9 16 0
9.879162e-01 2.056126e+00 3.669730e+00 148 128 134
6.864962e-01 2.090748e+00 3.672620e+00 28 13 15
1.825380e+00 3.209251e+00 2.877746e+00 152 137 118
9.265797e-01 1.899340e+00 3.506382e+00 27 22 19
1.204632e+00 1.780482e+00 3.581798e+00 58 49 55
1.005815e+00 1.854830e+00 3.594137e+00 152 128 112
5.464999e-01 2.072095e+00 3.320133e+00 252 246 224
1.008808e+00 1.982924e+00 3.696322e+00 166 145 117
6.086485e-01 1.860141e+00 3.456355e+00 25 36 63
6.278715e-01 1.973922e+00 3.519803e+00 94 57 34
1.045603e+00 1.877425e+00 3.711959e+00 130 128 154
1.047494e+00 1.878285e+00 3.708938e+00 130 128 154
5.143298e-01 2.304408e+00 3.509028e+00 129 92 17
1.238037e+00 1.824487e+00 3.607712e+00 107 99 116
9.712732e-01 1.938702e+00 3.544911e+00 19 17 18
1.039993e+00 1.921614e+00 3.746852e+00 0 36 118
6.198333e-01 2.054897e+00 3.555456e+00 49 16 3
1.040705e+00 1.942765e+00 3.758782e+00 0 34 116
8.121303e-01 2.078683e+00 3.614064e+00 167 84 43
1.156405e+00 2.015252e+00 3.787851e+00 80 96 36
2.141130e+00 2.956930e+00 2.844171e+00 199 187 163
1.154113e+00 1.818060e+00 3.651197e+00 196 170 130
6.574176e-01 1.893214e+00 3.539169e+00 197 174 144
9.955312e-01 2.071083e+00 3.721598e+00 100 83 86
9.849711e-01 2.107084e+00 3.704397e+00 4 26 92
8.873026e-01 2.189566e+00 3.692727e+00 109 81 40
8.873026e-01 2.189566e+00 3.692727e+00 109 81 40
2.164063e+00 2.929745e+00 2.805407e+00 50 36 5
1.089139e+00 1.746384e+00 3.587882e+00 97 84 78
1.244964e+00 1.811556e+00 3.603460e+00 23 39 112
6.002931e-01 1.914783e+00 3.416225e+00 181 165 139
7.612200e-01 1.936342e+00 3.546427e+00 167 152 125
1.213954e+00 1.877115e+00 3.671108e+00 206 176 140
6.471484e-01 1.969028e+00 3.601576e+00 172 147 146
1.015070e+00 1.951308e+00 3.756171e+00 174 168 143
9.971325e-01 2.078926e+00 3.753587e+00 0 7 86
2.186306e+00 2.855953e+00 2.790212e+00 159 143 83
1.232731e+00 1.754149e+00 3.565455e+00 20 3 3
9.742479e-01 1.862129e+00 3.439106e+00 31 26 19
6.374220e-01 1.915294e+00 3.556357e+00 35 26 42
7.245877e-01 1.969310e+00 3.569236e+00 122 92 92
1.123413e+00 1.912552e+00 3.738645e+00 209 186 161
6.252184e-01 2.039624e+00 3.625418e+00 175 148 142
1.037711e+00 1.956846e+00 3.788536e+00 155 124 143
9.876417e-01 2.051920e+00 3.699728e+00 2 12 54
1.019180e+00 2.069027e+00 3.752608e+00 136 125 129
2.272005e+00 2.813477e+00 2.791808e+00 54 22 0
4.503646e-01 2.273862e+00 3.619549e+00 160 157 129
1.219283e+00 1.760549e+00 3.580393e+00 101 89 91
5.875415e-01 1.956296e+00 3.307943e+00 40 26 30
1.130324e+00 1.801909e+00 3.636646e+00 202 170 156
6.277719e-01 1.910953e+00 3.520635e+00 151 147 128
8.716499e-01 1.934352e+00 3.508652e+00 55 1 1
6.265466e-01 1.925300e+00 3.534362e+00 157 136 125
1.025796e+00 1.878188e+00 3.716481e+00 13 34 69
6.263477e-01 1.982324e+00 3.570315e+00 167 151 142
6.263477e-01 1.982324e+00 3.570315e+00 167 151 142
6.167782e-01 2.013432e+00 3.541863e+00 87 104 130
6.238732e-01 2.026005e+00 3.594809e+00 109 91 77
6.240102e-01 2.025386e+00 3.593482e+00 109 91 77
1.128784e+00 1.949229e+00 3.766722e+00 208 189 173
6.052184e-01 2.077756e+00 3.533042e+00 146 125 89
1.042900e+00 2.002027e+00 3.816558e+00 16 24 40
7.446282e-01 2.098826e+00 3.672195e+00 90 86 102
7.446282e-01 2.098826e+00 3.672195e+00 90 86 102
9.749445e-01 2.134654e+00 3.637562e+00 24 16 3
1.012630e+00 2.043424e+00 3.787798e+00 133 127 146
2.191950e+00 2.900100e+00 2.825500e+00 191 170 102
6.191625e-01 1.807649e+00 3.470484e+00 134 99 46
9.841565e-01 1.834653e+00 3.510299e+00 157 137 125
1.011967e+00 1.803580e+00 3.606486e+00 134 102 86
6.941369e-01 1.867422e+00 3.514140e+00 124 126 83
9.820293e-01 1.860506e+00 3.530661e+00 157 135 119
9.837177e-01 1.901707e+00 3.557200e+00 167 142 117
6.250992e-01 1.951487e+00 3.551129e+00 121 90 68
9.797227e-01 1.970053e+00 3.589599e+00 18 21 57
6.300545e-01 1.966922e+00 3.592687e+00 60 57 71
7.894949e-01 1.997344e+00 3.580139e+00 190 173 146
6.243825e-01 1.997391e+00 3.584082e+00 173 163 152
6.266495e-01 2.035400e+00 3.607206e+00 47 36 33
1.004811e+00 1.971853e+00 3.738439e+00 122 102 84
7.300266e-01 2.056585e+00 3.639732e+00 59 5 0
5.911651e-01 2.147914e+00 3.502775e+00 116 96 65
5.911651e-01 2.147914e+00 3.502775e+00 116 96 65
6.254507e-01 2.073187e+00 3.642249e+00 142 125 121
6.254507e-01 2.073187e+00 3.642249e+00 142 125 121
6.262025e-01 2.089652e+00 3.640871e+00 48 12 4
6.037455e-01 2.166223e+00 3.559520e+00 69 43 10
9.941988e-01 2.082242e+00 3.726555e+00 113 111 136
1.081171e+00 2.028578e+00 3.819802e+00 28 29 36
5.990721e-01 2.220890e+00 3.531320e+00 139 123 89
6.276595e-01 2.122459e+00 3.689395e+00 78 78 83
2.141059e+00 2.859977e+00 2.777606e+00 162 139 88
4.639963e-01 2.232168e+00 3.760224e+00 103 109 85
4.244473e-01 2.298285e+00 3.686662e+00 177 174 140
4.310301e-01 2.130180e+00 3.923433e+00 193 185 141
1.004772e+00 1.723900e+00 3.604620e+00 36 24 24
7.624173e-01 1.937968e+00 3.544737e+00 167 152 125
8.092404e-01 1.938132e+00 3.528163e+00 188 164 141
6.253716e-01 2.125212e+00 3.636861e+00 39 25 40
6.197519e-01 2.123842e+00 3.832956e+00 156 160 131
1.029403e+00 1.745753e+00 3.606500e+00 28 36 72
8.624705e-01 2.726162e+00 2.332844e+00 124 112 80
6.342793e-01 2.063587e+00 3.647363e+00 35 28 33
9.363880e-01 2.177337e+00 3.730390e+00 83 53 0
6.069948e-01 1.882654e+00 3.374827e+00 117 85 47
9.628305e-01 1.880150e+00 3.435469e+00 116 79 35
4.271370e-01 2.554575e+00 3.249749e+00 145 119 63
9.302152e-01 1.901442e+00 3.502149e+00 36 25 28
9.276263e-01 1.899318e+00 3.504369e+00 36 25 28
1.136359e+00 1.932262e+00 3.739695e+00 132 114 94
6.001505e-01 2.134610e+00 3.542141e+00 156 125 74
6.018868e-01 2.052635e+00 3.492273e+00 168 137 97
5.711042e-01 2.253479e+00 3.480192e+00 196 169 102
1.040430e+00 1.919842e+00 3.744703e+00 7 37 121
1.222841e+00 2.032316e+00 3.790340e+00 199 172 130
7.284222e-01 1.844504e+00 3.494138e+00 153 133 6
9.758184e-01 1.883059e+00 3.505561e+00 11 28 61
6.887259e-01 1.883741e+00 3.528430e+00 32 32 62
6.256385e-01 1.953817e+00 3.579475e+00 44 53 92
6.352989e-01 2.019176e+00 3.635607e+00 26 23 41
1.010085e+00 2.025696e+00 3.785751e+00 96 88 92
9.815041e-01 2.106760e+00 3.652498e+00 106 92 92
6.238605e-01 1.915215e+00 3.490754e+00 56 51 78
1.187910e+00 1.828333e+00 3.651036e+00 198 168 126
7.897310e-01 1.926982e+00 3.521623e+00 60 48 60
7.897310e-01 1.926982e+00 3.521623e+00 60 48 60
6.972645e-01 1.940754e+00 3.557789e+00 119 89 63
1.226138e+00 1.968525e+00 3.747863e+00 34 31 80
6.866905e-01 2.046453e+00 3.656827e+00 164 85 22
7.861305e-01 2.120536e+00 3.658560e+00 10 16 28
6.184562e-01 2.179772e+00 3.625963e+00 17 11 9
6.103002e-01 1.918605e+00 3.448123e+00 55 36 32
4.017944e-01 2.076668e+00 3.203571e+00 152 116 46
6.272970e-01 1.910619e+00 3.521218e+00 142 139 103
6.135721e-01 1.945211e+00 3.457852e+00 24 28 55
8.611041e-01 1.954177e+00 3.529753e+00 53 7 1
8.857119e-01 1.973717e+00 3.521287e+00 184 116 103
6.168788e-01 1.984497e+00 3.520774e+00 142 93 57
6.168788e-01 1.984497e+00 3.520774e+00 142 93 57
1.019795e+00 1.900922e+00 3.714156e+00 161 149 132
1.081877e+00 1.917921e+00 3.740885e+00 198 179 165
6.430176e-01 1.997387e+00 3.620383e+00 159 139 134
6.186005e-01 2.061133e+00 3.533392e+00 58 21 8
6.180653e-01 2.102517e+00 3.636716e+00 101 65 40
8.136369e-01 2.146232e+00 3.669813e+00 26 25 32
4.854586e-01 2.340781e+00 3.441923e+00 194 169 105
1.069818e+00 1.727641e+00 3.596067e+00 24 11 16
1.090073e+00 1.790480e+00 3.632430e+00 201 168 143
9.787915e-01 1.858832e+00 3.510319e+00 41 30 39
6.343717e-01 1.868654e+00 3.514060e+00 62 36 39
6.168874e-01 1.911391e+00 3.466522e+00 162 127 98
8.243419e-01 1.902758e+00 3.489866e+00 172 137 29
9.773678e-01 1.895481e+00 3.535619e+00 16 8 9
6.141900e-01 1.940422e+00 3.494286e+00 88 111 84
6.142852e-01 1.984193e+00 3.484410e+00 51 29 24
6.253921e-01 1.951954e+00 3.549379e+00 124 96 79
6.280804e-01 1.981088e+00 3.604064e+00 23 30 75
6.243589e-01 1.997280e+00 3.583457e+00 170 153 150
6.143944e-01 2.034879e+00 3.518246e+00 51 57 67
6.193306e-01 2.012276e+00 3.574884e+00 26 26 51
9.878206e-01 1.998803e+00 3.624562e+00 152 128 115
6.134400e-01 2.035622e+00 3.575156e+00 46 8 1
6.134400e-01 2.035622e+00 3.575156e+00 46 8 1
1.025153e+00 2.010435e+00 3.804781e+00 21 29 52
8.627759e-01 2.151693e+00 3.654668e+00 18 4 0
2.105465e+00 2.862402e+00 2.832532e+00 196 175 131
9.408575e-01 2.808981e+00 3.099556e+00 146 141 113
1.114614e+00 1.749400e+00 3.605430e+00 38 27 29
1.009533e+00 1.778819e+00 3.571749e+00 152 135 127
1.136153e+00 1.762293e+00 3.597640e+00 146 137 145
6.318363e-01 1.838360e+00 3.494723e+00 38 26 39
1.086968e+00 1.766119e+00 3.624174e+00 159 130 130
6.340208e-01 1.850133e+00 3.509372e+00 48 35 16
1.252654e+00 1.792374e+00 3.605456e+00 173 138 75
8.519983e-01 1.878693e+00 3.458197e+00 156 137 67
6.144957e-01 1.938957e+00 3.476438e+00 18 22 16
9.581295e-01 1.937754e+00 3.484843e+00 41 9 4
6.135368e-01 1.951220e+00 3.476816e+00 86 101 93
9.831030e-01 1.918069e+00 3.548469e+00 49 36 31
6.614758e-01 1.919147e+00 3.578395e+00 117 91 74
9.839330e-01 1.922715e+00 3.572130e+00 152 131 107
1.075511e+00 1.860623e+00 3.695139e+00 33 21 14
6.081311e-01 2.022520e+00 3.492296e+00 171 158 143
9.850897e-01 1.961455e+00 3.599458e+00 141 129 132
6.121534e-01 2.018076e+00 3.504740e+00 31 35 51
6.026992e-01 2.040500e+00 3.468295e+00 182 153 109
6.198394e-01 1.997160e+00 3.562680e+00 48 48 60
1.010605e+00 1.941901e+00 3.679112e+00 184 152 127
5.924022e-01 2.142123e+00 3.447109e+00 157 130 83
9.703124e-01 2.072035e+00 3.653746e+00 67 72 104
1.011326e+00 2.007560e+00 3.784001e+00 105 109 143
1.017430e+00 2.020916e+00 3.801225e+00 107 114 149
6.026514e-01 2.154129e+00 3.595488e+00 133 112 80
5.961492e-01 2.227531e+00 3.475584e+00 97 70 22
5.950725e-01 2.261168e+00 3.506075e+00 40 17 0
7.055072e-01 2.138149e+00 3.709162e+00 116 86 41
2.160257e+00 2.878554e+00 2.779072e+00 92 70 20
4.035806e-01 2.369413e+00 3.590523e+00 122 115 63
6.780581e-01 2.137323e+00 3.836594e+00 118 113 95
9.888387e-01 2.067868e+00 3.726342e+00 88 80 75
1.099573e+00 1.729294e+00 3.602097e+00 30 16 6
6.013672e-01 2.233523e+00 3.485020e+00 92 67 26
9.810909e-01 1.968144e+00 3.612685e+00 138 127 121
6.127960e-01 2.009673e+00 3.547772e+00 86 99 124
6.019546e-01 2.197429e+00 3.445565e+00 121 95 46
6.095583e-01 2.148768e+00 3.611536e+00 22 18 26
9.763756e-01 2.153856e+00 3.648847e+00 10 1 1
6.139488e-01 1.893490e+00 3.416229e+00 38 29 54
1.002106e+00 1.901366e+00 3.653678e+00 167 145 117
9.827163e-01 1.939227e+00 3.585416e+00 153 135 122
1.000478e+00 1.916931e+00 3.717839e+00 187 154 126
1.164543e-01 2.154703e+00 3.973554e+00 198 191 175
9.354736e-01 1.903441e+00 3.497677e+00 16 23 34
1.117064e+00 2.016979e+00 3.606867e+00 131 105 89
1.046806e+00 2.010029e+00 3.781782e+00 1 34 96
6.029175e-01 1.846268e+00 3.355375e+00 153 107 21
8.867071e-01 1.900393e+00 3.474371e+00 8 4 0
9.889508e-01 2.000952e+00 3.564230e+00 0 19 74
1.250157e+00 1.775306e+00 3.621448e+00 186 140 52
7.437505e-01 1.937047e+00 3.548043e+00 153 127 104
1.051146e+00 1.998156e+00 3.773851e+00 3 30 113
7.870355e-01 1.990436e+00 3.567134e+00 190 166 144
1.129147e+00 2.030992e+00 3.809151e+00 187 163 29
1.035245e+00 2.039358e+00 3.802576e+00 3 37 102
1.222034e+00 1.748980e+00 3.607397e+00 191 138 69
6.151477e-01 2.082419e+00 3.556267e+00 31 24 55
1.068486e+00 1.738469e+00 3.612403e+00 103 95 96
5.897633e-01 1.953334e+00 3.301118e+00 18 17 34
1.079911e+00 1.836415e+00 3.690298e+00 127 104 88
8.668102e-01 1.957196e+00 3.524380e+00 58 5 0
1.015362e+00 1.909221e+00 3.697121e+00 94 78 49
6.013774e-01 2.062789e+00 3.437640e+00 173 149 115
1.017955e+00 1.928710e+00 3.737830e+00 169 153 130
1.218526e+00 1.965021e+00 3.751961e+00 40 37 64
1.218526e+00 1.965021e+00 3.751961e+00 40 37 64
6.177795e-01 2.035645e+00 3.632712e+00 174 152 124
6.077243e-01 2.062898e+00 3.586084e+00 28 13 19
1.216823e+00 2.031829e+00 3.800228e+00 196 182 118
1.040095e+00 2.025630e+00 3.832164e+00 185 166 104
6.873450e-01 1.836797e+00 3.492905e+00 43 56 57
6.873450e-01 1.836797e+00 3.492905e+00 43 56 57
5.987576e-01 1.948776e+00 3.358126e+00 159 140 122
6.432694e-01 1.866562e+00 3.527895e+00 176 167 158
6.179938e-01 1.912025e+00 3.465488e+00 158 121 91
8.165653e-01 1.919893e+00 3.505163e+00 180 163 155
6.418984e-01 1.924943e+00 3.571409e+00 173 140 139
6.213618e-01 1.995939e+00 3.586562e+00 175 160 152
6.143849e-01 2.035748e+00 3.573860e+00 37 12 3
5.893688e-01 2.141054e+00 3.485944e+00 162 138 88
1.026086e+00 2.064738e+00 3.752233e+00 127 115 124
5.109084e-01 2.108911e+00 3.866061e+00 122 116 79
6.318400e-01 1.829146e+00 3.477227e+00 68 78 132
5.919981e-01 1.924480e+00 3.318756e+00 128 92 42
9.788319e-01 1.832282e+00 3.535089e+00 110 93 69
6.240811e-01 1.930254e+00 3.512980e+00 38 49 13
6.260257e-01 2.007640e+00 3.535530e+00 89 109 132
5.997018e-01 2.053301e+00 3.471511e+00 141 111 72
6.261811e-01 1.990570e+00 3.618854e+00 34 37 74
6.326905e-01 2.004340e+00 3.627340e+00 23 24 66
6.023232e-01 2.092216e+00 3.552181e+00 155 137 117
6.198221e-01 2.051783e+00 3.630901e+00 74 43 8
6.096197e-01 2.150622e+00 3.561798e+00 149 123 92
5.995519e-01 2.148620e+00 3.583974e+00 75 50 21
3.229890e-01 2.253846e+00 3.716467e+00 120 123 74
5.681179e-01 2.409226e+00 3.543366e+00 164 165 109
1.208765e+00 3.662254e+00 -1.577647e+01 0 255 0
1.209557e+00 3.666447e+00 -1.582628e+01 255 255 0
1.233067e+00 3.965621e+00 -2.074961e+01 255 0 0
1.233759e+00 3.969410e+00 -2.079946e+01 255 255 0
-7.585834e+01 -2.545319e+02 3.434645e+03 0 255 0
-7.585723e+01 -2.545282e+02 3.434595e+03 255 255 0
-2.443018e+02 -6.368655e+02 5.833832e+03 255 0 0
-2.442998e+02 -6.368601e+02 5.833782e+03 255 255 0
-9.167901e+01 -1.568673e+02 9.464856e+02 0 255 0
-9.167420e+01 -1.568591e+02 9.464365e+02 255 255 0
5.140480e+02 1.293273e+03 -5.146556e+03 255 0 0
5.140528e+02 1.293285e+03 -5.146605e+03 255 255 0
-5.006909e-01 -3.895005e+00 2.020160e+01 0 255 0
-4.969622e-01 -3.877933e+00 2.015476e+01 255 255 0
5.039044e-02 -2.949879e+00 1.514313e+01 255 0 0
5.388759e-02 -2.929575e+00 1.509757e+01 255 255 0
3.229996e-01 -2.246117e+00 1.214875e+01 0 255 0
3.260579e-01 -2.223590e+00 1.210421e+01 255 255 0
3.128974e+00 3.930385e+00 1.923494e+01 255 0 0
3.121859e+00 3.924722e+00 1.918577e+01 255 255 0
5.586895e+01 6.483641e+01 8.207689e+02 0 255 0
5.586562e+01 6.483259e+01 8.207191e+02 255 255 0
-3.442106e+00 -7.576461e+00 -1.209947e+02 255 0 0
-3.443963e+00 -7.580327e+00 -1.210445e+02 255 255 0
1.903655e-01 -1.586564e+00 8.896635e+00 0 255 0
1.964886e-01 -1.558851e+00 8.855470e+00 255 255 0
-3.055609e-01 -5.594707e-01 7.039442e+00 255 0 0
-2.925990e-01 -5.308243e-01 7.000565e+00 255 255 0
2.999370e+00 3.279112e+00 1.016643e+01 0 255 0
2.984365e+00 3.271275e+00 1.011939e+01 255 255 0
-3.336301e-01 5.898069e-01 5.896740e+00 255 0 0
-3.134510e-01 6.144465e-01 5.858195e+00 255 255 0
-7.189716e-01 8.397422e-01 5.637472e+00 0 255 0
-6.920536e-01 8.607436e-01 5.600943e+00 255 255 0
-8.906827e-01 1.064471e+00 5.315987e+00 255 0 0
-8.587464e-01 1.081753e+00 5.281616e+00 255 255 0
-8.321602e-01 1.371139e+00 4.924118e+00 0 255 0
-7.945286e-01 1.384375e+00 4.893973e+00 255 255 0
